<svg width="18" height="17" viewBox="0 0 18 17" fill="none" xmlns="http://www.w3.org/2000/svg">
<path d="M5 2.85H16.2C16.4968 2.85 16.7636 2.74997 16.9568 2.55678C17.15 2.36358 17.25 2.09681 17.25 1.8C17.25 1.50319 17.15 1.23642 16.9568 1.04322C16.7636 0.850028 16.4968 0.75 16.2 0.75H5C4.70319 0.75 4.43642 0.850028 4.24322 1.04322C4.05003 1.23642 3.95 1.50319 3.95 1.8C3.95 2.09681 4.05003 2.36358 4.24322 2.55678C4.43642 2.74997 4.70319 2.85 5 2.85ZM1.8 0.75C1.50319 0.75 1.23642 0.850028 1.04322 1.04322C0.850028 1.23642 0.75 1.50319 0.75 1.8C0.75 2.09681 0.850028 2.36358 1.04322 2.55678C1.23642 2.74997 1.50319 2.85 1.8 2.85C2.09681 2.85 2.36358 2.74997 2.55678 2.55678C2.74997 2.36358 2.85 2.09681 2.85 1.8C2.85 1.50319 2.74997 1.23642 2.55678 1.04322C2.36358 0.850028 2.09681 0.75 1.8 0.75Z" fill="#D9D9D9" stroke="#D9D9D9" stroke-width="0.5"/>
<path d="M5 9.45001H16.2C16.4968 9.45001 16.7636 9.34998 16.9568 9.15678C17.15 8.96359 17.25 8.69682 17.25 8.40001C17.25 8.10319 17.15 7.83642 16.9568 7.64323C16.7636 7.45003 16.4968 7.35001 16.2 7.35001H5C4.70319 7.35001 4.43642 7.45003 4.24322 7.64323C4.05003 7.83642 3.95 8.10319 3.95 8.40001C3.95 8.69682 4.05003 8.96359 4.24322 9.15678C4.43642 9.34998 4.70319 9.45001 5 9.45001ZM1.8 7.35001C1.50319 7.35001 1.23642 7.45003 1.04322 7.64323C0.850028 7.83642 0.75 8.10319 0.75 8.40001C0.75 8.69682 0.850028 8.96359 1.04322 9.15678C1.23642 9.34998 1.50319 9.45001 1.8 9.45001C2.09681 9.45001 2.36358 9.34998 2.55678 9.15678C2.74997 8.96359 2.85 8.69682 2.85 8.40001C2.85 8.10319 2.74997 7.83642 2.55678 7.64323C2.36358 7.45003 2.09681 7.35001 1.8 7.35001Z" fill="#D9D9D9" stroke="#D9D9D9" stroke-width="0.5"/>
<path d="M5 16.05H16.2C16.4968 16.05 16.7636 15.95 16.9568 15.7568C17.15 15.5636 17.25 15.2968 17.25 15C17.25 14.7032 17.15 14.4364 16.9568 14.2432C16.7636 14.05 16.4968 13.95 16.2 13.95H5C4.70319 13.95 4.43642 14.05 4.24322 14.2432C4.05003 14.4364 3.95 14.7032 3.95 15C3.95 15.2968 4.05003 15.5636 4.24322 15.7568C4.43642 15.95 4.70319 16.05 5 16.05ZM1.8 13.95C1.50319 13.95 1.23642 14.05 1.04322 14.2432C0.850028 14.4364 0.75 14.7032 0.75 15C0.75 15.2968 0.850028 15.5636 1.04322 15.7568C1.23642 15.95 1.50319 16.05 1.8 16.05C2.09681 16.05 2.36358 15.95 2.55678 15.7568C2.74997 15.5636 2.85 15.2968 2.85 15C2.85 14.7032 2.74997 14.4364 2.55678 14.2432C2.36358 14.05 2.09681 13.95 1.8 13.95Z" fill="#D9D9D9" stroke="#D9D9D9" stroke-width="0.5"/>
</svg>
