<svg width="16" height="16" viewBox="0 0 16 16" fill="none" xmlns="http://www.w3.org/2000/svg">
<path d="M6.48 0H0.72C0.322355 0 0 0.294965 0 0.658824V10.5412C0 10.905 0.322355 11.2 0.72 11.2H6.48C6.87765 11.2 7.2 10.905 7.2 10.5412V0.658824C7.2 0.294965 6.87765 0 6.48 0Z" fill="white"/>
<path d="M6.48 12H0.72C0.322355 12 0 12.2239 0 12.5V15.5C0 15.7761 0.322355 16 0.72 16H6.48C6.87764 16 7.2 15.7761 7.2 15.5V12.5C7.2 12.2239 6.87764 12 6.48 12Z" fill="white"/>
<path d="M15.28 5.60001H9.52005C9.1224 5.60001 8.80005 5.8739 8.80005 6.21177V15.3882C8.80005 15.7261 9.1224 16 9.52005 16H15.28C15.6777 16 16 15.7261 16 15.3882V6.21177C16 5.8739 15.6777 5.60001 15.28 5.60001Z" fill="white"/>
<path d="M15.2727 0H9.45457C9.05291 0 8.72729 0.271342 8.72729 0.60606V4.24242C8.72729 4.57714 9.05291 4.84848 9.45457 4.84848H15.2727C15.6744 4.84848 16 4.57714 16 4.24242V0.60606C16 0.271342 15.6744 0 15.2727 0Z" fill="white"/>
</svg>
