<svg width="26" height="25" viewBox="0 0 26 25" fill="none" xmlns="http://www.w3.org/2000/svg">
<path d="M0.88916 6.39999C0.88916 4.15979 0.88916 3.03969 1.32513 2.18404C1.70863 1.43139 2.32055 0.819467 3.0732 0.435974C3.92885 0 5.04895 0 7.28916 0H19.3781C21.6183 0 22.7384 0 23.594 0.435974C24.3467 0.819467 24.9586 1.43139 25.3421 2.18404C25.778 3.03969 25.778 4.15979 25.778 6.4V18.4889C25.778 20.7291 25.778 21.8492 25.3421 22.7049C24.9586 23.4575 24.3467 24.0694 23.594 24.4529C22.7384 24.8889 21.6183 24.8889 19.378 24.8889H7.28915C5.04895 24.8889 3.92885 24.8889 3.0732 24.4529C2.32055 24.0694 1.70863 23.4575 1.32513 22.7049C0.88916 21.8492 0.88916 20.7291 0.88916 18.4889V6.39999Z" fill="#FFC2C2"/>
<path d="M17.5631 10.2864L17.3698 16.1363C17.3533 16.6373 17.1423 17.1122 16.7814 17.4602C16.4206 17.8081 15.9383 18.0018 15.437 18H11.7648C11.2638 18.0018 10.7819 17.8084 10.4211 17.4609C10.0603 17.1133 9.84901 16.6389 9.83205 16.1383L9.63877 10.2864C9.63455 10.1582 9.6814 10.0336 9.76902 9.94003C9.85665 9.84643 9.97787 9.79146 10.106 9.78724C10.2342 9.78301 10.3587 9.82986 10.4524 9.91748C10.546 10.0051 10.6009 10.1263 10.6052 10.2545L10.7984 16.1059C10.8081 16.3557 10.9141 16.592 11.0943 16.7653C11.2745 16.9386 11.5148 17.0352 11.7648 17.0351H15.437C15.6873 17.0352 15.9279 16.9383 16.1082 16.7646C16.2884 16.5909 16.3943 16.3541 16.4034 16.104L16.5967 10.2545C16.6009 10.1263 16.6559 10.0051 16.7495 9.91748C16.8431 9.82986 16.9677 9.78301 17.0958 9.78724C17.224 9.79146 17.3452 9.84643 17.4328 9.94003C17.5204 10.0336 17.5673 10.1582 17.5631 10.2864ZM18.2023 8.3396C18.2023 8.46775 18.1514 8.59065 18.0608 8.68127C17.9702 8.77188 17.8473 8.82279 17.7191 8.82279H9.48319C9.35504 8.82279 9.23214 8.77188 9.14152 8.68127C9.05091 8.59065 9 8.46775 9 8.3396C9 8.21145 9.05091 8.08855 9.14152 7.99794C9.23214 7.90732 9.35504 7.85641 9.48319 7.85641H10.9811C11.1342 7.85683 11.2819 7.80026 11.3956 7.69773C11.5093 7.5952 11.5808 7.45404 11.5962 7.30171C11.6318 6.94439 11.7992 6.61314 12.0658 6.3725C12.3323 6.13186 12.6789 5.99907 13.038 6H14.1638C14.5229 5.99907 14.8695 6.13186 15.1361 6.3725C15.4026 6.61314 15.57 6.94439 15.6057 7.30171C15.621 7.45404 15.6925 7.5952 15.8062 7.69773C15.9199 7.80026 16.0677 7.85683 16.2208 7.85641H17.7186C17.8468 7.85641 17.9697 7.90732 18.0603 7.99794C18.1509 8.08855 18.2023 8.21145 18.2023 8.3396ZM12.435 7.85641H14.7678C14.7043 7.71133 14.6628 7.5576 14.6446 7.40028C14.6326 7.28118 14.5769 7.17076 14.4881 7.09042C14.3994 7.01008 14.284 6.96553 14.1643 6.96542H13.0385C12.9188 6.96553 12.8034 7.01008 12.7147 7.09042C12.6259 7.17076 12.5702 7.28118 12.5582 7.40028C12.5399 7.55763 12.4986 7.71136 12.435 7.85641ZM12.9216 15.1772V11.0629C12.9216 10.9347 12.8706 10.8118 12.78 10.7212C12.6894 10.6306 12.5665 10.5797 12.4384 10.5797C12.3102 10.5797 12.1873 10.6306 12.0967 10.7212C12.0061 10.8118 11.9552 10.9347 11.9552 11.0629V15.1791C11.9552 15.3073 12.0061 15.4302 12.0967 15.5208C12.1873 15.6114 12.3102 15.6623 12.4384 15.6623C12.5665 15.6623 12.6894 15.6114 12.78 15.5208C12.8706 15.4302 12.9216 15.3073 12.9216 15.1791V15.1772ZM15.2476 15.1772V11.0629C15.2476 10.9347 15.1967 10.8118 15.1061 10.7212C15.0155 10.6306 14.8926 10.5797 14.7644 10.5797C14.6363 10.5797 14.5134 10.6306 14.4228 10.7212C14.3322 10.8118 14.2812 10.9347 14.2812 11.0629V15.1791C14.2812 15.3073 14.3322 15.4302 14.4228 15.5208C14.5134 15.6114 14.6363 15.6623 14.7644 15.6623C14.8926 15.6623 15.0155 15.6114 15.1061 15.5208C15.1967 15.4302 15.2476 15.3073 15.2476 15.1791V15.1772Z" fill="#B85151"/>
</svg>
