<svg width="787" height="725" viewBox="0 0 787 725" fill="none" xmlns="http://www.w3.org/2000/svg">
<path d="M726.508 314.866H711.885V692.203H726.508V314.866Z" fill="#4B83A8"/>
<path d="M780.039 324.615H656.671C655.679 324.613 654.699 324.392 653.802 323.968C652.905 323.544 652.113 322.927 651.482 322.161C650.851 321.395 650.396 320.499 650.152 319.538C649.907 318.576 649.877 317.572 650.065 316.598L674.695 189.718C674.994 188.172 675.827 186.781 677.048 185.787C678.268 184.792 679.8 184.259 681.374 184.279L759.793 185.126C761.379 185.144 762.909 185.721 764.111 186.757C765.313 187.793 766.11 189.22 766.362 190.786L786.645 316.819C786.797 317.777 786.74 318.757 786.479 319.691C786.217 320.625 785.757 321.492 785.13 322.232C784.503 322.972 783.724 323.568 782.845 323.98C781.966 324.391 781.009 324.608 780.039 324.615Z" fill="#273956"/>
<path d="M125.775 161.221L139.612 323.805L424.655 353.554L419.118 121.097L125.775 161.221Z" fill="#DDEEF8"/>
<path d="M425.233 114.184L423.158 305.818L418.308 121.097L221.137 148.771L425.233 114.184Z" fill="#D3E9F4"/>
<path d="M134.774 326.567L130.011 216.214L139.612 323.805L252.077 335.469L134.774 326.567Z" fill="#D3E9F4"/>
<path d="M358.548 207.603C361.661 192.674 359.514 179.597 353.752 178.396C347.991 177.194 340.796 188.323 337.682 203.252C334.569 218.181 336.716 231.257 342.478 232.459C348.24 233.66 355.434 222.532 358.548 207.603Z" stroke="#4B83A8" stroke-miterlimit="10"/>
<path opacity="0.2" d="M359.03 346.556L420.125 171.608L424.655 353.554L359.03 346.556Z" fill="white"/>
<path opacity="0.2" d="M139.612 323.805L125.775 161.221L229.903 145.223L160.484 326.42L139.612 323.805Z" fill="white"/>
<path d="M248.689 147.384L248.836 196.999L197.49 226.65L197.355 177.035L248.689 147.384Z" fill="#D3E9F4"/>
<path d="M243.728 218.473L227.62 209.117L227.546 184.254L243.655 193.61L243.728 218.473Z" fill="#BDE5EF"/>
<path d="M243.655 193.61L227.546 184.254L248.738 172.013L264.846 181.369L243.655 193.61Z" fill="#C9E7F2"/>
<path d="M264.847 181.369L264.92 206.244L243.729 218.473L243.655 193.61L264.847 181.369Z" fill="#D3E9F4"/>
<path d="M203.027 229.67L202.954 204.807L197.416 201.701L197.355 177.035L162.461 156.752L162.596 206.367L197.49 226.65V226.564L203.027 229.67Z" fill="#BDE5EF"/>
<path d="M232.457 187.127L232.519 211.99L203.027 229.67L202.954 204.808L232.457 187.127Z" fill="#D3E9F4"/>
<path d="M243.409 195.034L225.103 184.389L248.959 170.552L267.265 181.197L243.409 195.034Z" fill="#4B83A8"/>
<g opacity="0.2">
<path d="M243.409 195.034L225.103 184.389L248.959 170.552L267.265 181.197L243.409 195.034Z" fill="black"/>
</g>
<path d="M243.409 195.034L245.779 175.721L267.265 181.197L243.409 195.034Z" fill="#4B83A8"/>
<path d="M225.103 184.389L245.779 175.721L248.959 170.552L225.103 184.389Z" fill="#4B83A8"/>
<g opacity="0.4">
<path d="M225.103 184.389L245.779 175.721L248.959 170.552L225.103 184.389Z" fill="black"/>
</g>
<path d="M198.828 177.956L158.986 154.8L210.873 124.694L250.715 147.838L198.828 177.956Z" fill="#4B83A8"/>
<g opacity="0.2">
<path d="M198.828 177.956L158.986 154.8L210.873 124.694L250.715 147.838L198.828 177.956Z" fill="black"/>
</g>
<path d="M198.828 177.956L203.972 135.941L250.714 147.838L198.828 177.956Z" fill="#4B83A8"/>
<path d="M158.986 154.8L203.973 135.941L210.873 124.694L158.986 154.8Z" fill="#4B83A8"/>
<g opacity="0.4">
<path d="M158.986 154.8L203.973 135.941L210.873 124.694L158.986 154.8Z" fill="black"/>
</g>
<path d="M233.108 188.146L200.78 207.017L196.299 201.026L228.626 182.167L233.108 188.146Z" fill="#4B83A8"/>
<path d="M200.817 207.017L196.336 201.026L195.206 202.978L200.817 207.017Z" fill="#4B83A8"/>
<path opacity="0.2" d="M200.817 207.017L196.336 201.026L195.206 202.978L200.817 207.017Z" fill="black"/>
<path d="M222.77 128.832L222.758 132.798L218.399 135.572L218.424 126.327L222.77 128.832Z" fill="#4B83A8"/>
<g opacity="0.4">
<path d="M222.77 128.832L222.758 132.798L218.399 135.572L218.424 126.327L222.77 128.832Z" fill="black"/>
</g>
<path d="M218.424 126.327L218.399 135.572L214.102 133.682L214.114 128.832L218.424 126.327Z" fill="#4B83A8"/>
<path d="M218.46 132.085L218.436 137.967L212.813 134.062L212.837 128.832L218.46 132.085Z" fill="#4B83A8"/>
<g opacity="0.4">
<path d="M218.46 132.085L218.436 137.967L212.813 134.062L212.837 128.832L218.46 132.085Z" fill="black"/>
</g>
<path d="M224.047 128.832V136.579L218.436 137.967L218.461 132.085L224.047 128.832Z" fill="#4B83A8"/>
<path d="M222.795 128.623L222.782 129.777L218.448 127.273L218.46 126.119L222.795 128.623Z" fill="#4B83A8"/>
<path d="M218.461 126.119L218.448 127.273L214.139 129.777V128.623L218.461 126.119Z" fill="#4B83A8"/>
<g opacity="0.2">
<path d="M218.461 126.119L218.448 127.273L214.139 129.777V128.623L218.461 126.119Z" fill="black"/>
</g>
<path d="M218.485 132.552V133.706L211.671 129.777V128.623L218.485 132.552Z" fill="#4B83A8"/>
<g opacity="0.3">
<path d="M218.485 132.552V133.706L211.671 129.777V128.623L218.485 132.552Z" fill="black"/>
</g>
<path d="M225.25 128.623V129.777L218.485 133.706V132.552L225.25 128.623Z" fill="#4B83A8"/>
<g opacity="0.2">
<path d="M225.25 128.623V129.777L218.485 133.706V132.552L225.25 128.623Z" fill="black"/>
</g>
<path d="M218.436 124.731L211.671 128.66L218.485 132.589L225.25 128.66L218.436 124.731ZM218.436 131.165L214.102 128.709L218.423 126.254L222.758 128.709L218.436 131.165Z" fill="#4B83A8"/>
<path opacity="0.4" d="M218.436 124.731L211.671 128.66L218.485 132.589L225.25 128.66L218.436 124.731ZM218.436 131.165L214.102 128.709L218.423 126.254L222.758 128.709L218.436 131.165Z" fill="black"/>
<path d="M233.869 213.512L233.796 210.971L204.366 227.976V227.988L203.027 228.762V231.229L204.366 230.444L204.378 230.431V230.456L233.869 213.512Z" fill="#4B83A8"/>
<path d="M161.246 204.611L161.233 207.079L203.027 231.23V228.762L161.246 204.611Z" fill="#4B83A8"/>
<path opacity="0.4" d="M161.246 204.611L161.233 207.079L203.027 231.23V228.762L161.246 204.611Z" fill="black"/>
<path d="M266.271 207.017L266.258 204.537L245.067 216.766V216.778L243.728 217.552V220.02L245.067 219.234V219.222V219.259L266.271 207.017Z" fill="#4B83A8"/>
<path opacity="0.2" d="M266.271 207.017L266.258 204.537L245.067 216.766V216.778L243.728 217.552V220.02L245.067 219.234V219.222V219.259L266.271 207.017Z" fill="black"/>
<path d="M266.259 204.537L264.92 203.751L243.643 216.029L232.58 210.246L232.556 210.259L232.519 210.246L203.028 227.19V227.202L162.584 203.837L161.246 204.611L203.028 228.762L204.378 227.976H204.354H204.366L232.617 211.744L243.729 217.552L245.067 216.766L266.259 204.537Z" fill="#4B83A8"/>
<path opacity="0.3" d="M266.259 204.537L264.92 203.751L243.643 216.029L232.58 210.246L232.556 210.259L232.519 210.246L203.028 227.19V227.202L162.584 203.837L161.246 204.611L203.028 228.762L204.378 227.976H204.354H204.366L232.617 211.744L243.729 217.552L245.067 216.766L266.259 204.537Z" fill="black"/>
<path d="M243.728 217.552V220.02L232.568 214.261L232.543 211.708L243.728 217.552Z" fill="#4B83A8"/>
<g opacity="0.4">
<path d="M243.728 217.552V220.02L232.568 214.261L232.543 211.708L243.728 217.552Z" fill="black"/>
</g>
<path d="M246.147 153.4L246.197 167.384L233.685 174.604L233.649 160.619L246.147 153.4Z" fill="#EBFDFF"/>
<path d="M245.84 167.176L239.885 170.614L240.597 171.031L246.552 167.593L245.84 167.176Z" fill="#4B83A8"/>
<path d="M233.329 174.395L234.041 174.813L240.008 171.375L239.296 170.957L233.329 174.395Z" fill="#4B83A8"/>
<g opacity="0.4">
<path d="M245.84 167.176L239.885 170.614L240.598 171.031L246.552 167.593L245.84 167.176Z" fill="black"/>
<path d="M233.329 174.395L234.041 174.813L240.008 171.375L239.296 170.957L233.329 174.395Z" fill="black"/>
</g>
<path d="M246.503 153.609L245.803 153.191L245.84 167.176L246.552 167.593L246.503 153.609Z" fill="#4B83A8"/>
<path d="M239.259 156.973L239.296 170.957L240.008 171.375L239.971 157.39L239.259 156.973Z" fill="#4B83A8"/>
<g opacity="0.2">
<path d="M246.504 153.609L245.804 153.191L245.841 167.176L246.553 167.593L246.504 153.609Z" fill="black"/>
<path d="M239.259 156.973L239.296 170.957L240.008 171.375L239.971 157.39L239.259 156.973Z" fill="black"/>
</g>
<path d="M233.255 176.114L232.543 175.697L232.494 160.03L233.206 160.447L233.255 176.114Z" fill="#4B83A8"/>
<g opacity="0.2">
<path d="M233.255 176.114L232.543 175.697L232.494 160.03L233.206 160.447L233.255 176.114Z" fill="black"/>
</g>
<path d="M247.314 152.295L240.561 156.199L239.971 156.543L233.206 160.447V176.114L239.959 172.21L240.548 171.866L247.314 167.962V152.295ZM234.041 174.813V160.828L240.008 157.39L240.057 171.387L234.041 174.813ZM240.598 171.031V157.046L246.54 153.609V167.593L240.598 171.031Z" fill="#4B83A8"/>
<path d="M246.602 151.89L239.849 155.794L239.259 156.126L232.494 160.03L233.206 160.448L239.971 156.543L240.561 156.199L247.314 152.307L246.602 151.89Z" fill="#4B83A8"/>
<path opacity="0.4" d="M246.602 151.89L239.849 155.794L239.259 156.126L232.494 160.03L233.206 160.448L239.971 156.543L240.561 156.199L247.314 152.307L246.602 151.89Z" fill="black"/>
<path d="M229.314 163.357L229.351 177.342L216.852 184.561L216.815 170.577L229.314 163.357Z" fill="#EBFDFF"/>
<path d="M229.007 177.133L223.052 180.571L223.765 180.976L229.707 177.551L229.007 177.133Z" fill="#4B83A8"/>
<path d="M216.496 184.353L217.208 184.77L223.175 181.32L222.463 180.915L216.496 184.353Z" fill="#4B83A8"/>
<g opacity="0.4">
<path d="M229.008 177.133L223.053 180.571L223.765 180.976L229.708 177.551L229.008 177.133Z" fill="black"/>
<path d="M216.496 184.353L217.208 184.77L223.175 181.32L222.463 180.915L216.496 184.353Z" fill="black"/>
</g>
<path d="M229.67 163.566L228.958 163.149L229.007 177.133L229.707 177.551L229.67 163.566Z" fill="#4B83A8"/>
<path d="M222.426 166.93L222.463 180.915L223.175 181.32L223.126 167.335L222.426 166.93Z" fill="#4B83A8"/>
<g opacity="0.2">
<path d="M229.67 163.566L228.958 163.149L229.007 177.133L229.707 177.551L229.67 163.566Z" fill="black"/>
<path d="M222.426 166.93L222.463 180.915L223.175 181.32L223.126 167.335L222.426 166.93Z" fill="black"/>
</g>
<path d="M216.41 186.071L215.71 185.654L215.661 169.987L216.373 170.405L216.41 186.071Z" fill="#4B83A8"/>
<g opacity="0.2">
<path d="M216.41 186.071L215.71 185.654L215.661 169.987L216.373 170.405L216.41 186.071Z" fill="black"/>
</g>
<path d="M230.481 162.252L223.715 166.157L223.126 166.501L216.373 170.405V186.072L223.138 182.167L223.728 181.823L230.493 177.919L230.481 162.252ZM217.208 184.77V170.786L223.163 167.335V181.32L217.208 184.77ZM223.765 180.976V167.004L229.707 163.566V177.551L223.765 180.976Z" fill="#4B83A8"/>
<path d="M229.768 161.847L223.016 165.739L222.414 166.083L215.661 169.987L216.373 170.405L223.126 166.5L223.715 166.157L230.481 162.252L229.768 161.847Z" fill="#4B83A8"/>
<path opacity="0.4" d="M229.768 161.847L223.016 165.739L222.414 166.083L215.661 169.987L216.373 170.405L223.126 166.5L223.715 166.157L230.481 162.252L229.768 161.847Z" fill="black"/>
<path d="M212.837 173.094L212.874 187.078L200.375 194.298L200.326 180.313L212.837 173.094Z" fill="#EBFDFF"/>
<path d="M212.518 186.882L206.576 190.307L207.288 190.725L213.23 187.287L212.518 186.882Z" fill="#4B83A8"/>
<path d="M200.019 194.101L200.731 194.506L206.686 191.069L205.986 190.651L200.019 194.101Z" fill="#4B83A8"/>
<g opacity="0.4">
<path d="M212.518 186.882L206.576 190.307L207.288 190.725L213.231 187.287L212.518 186.882Z" fill="black"/>
<path d="M200.019 194.101L200.731 194.506L206.686 191.069L205.986 190.651L200.019 194.101Z" fill="black"/>
</g>
<path d="M213.193 173.302L212.481 172.897L212.518 186.882L213.23 187.287L213.193 173.302Z" fill="#4B83A8"/>
<path d="M205.937 176.667L205.986 190.651L206.686 191.068L206.649 177.084L205.937 176.667Z" fill="#4B83A8"/>
<g opacity="0.2">
<path d="M213.193 173.302L212.481 172.897L212.518 186.882L213.23 187.287L213.193 173.302Z" fill="black"/>
<path d="M205.937 176.667L205.986 190.651L206.686 191.068L206.649 177.084L205.937 176.667Z" fill="black"/>
</g>
<path d="M199.933 195.808L199.221 195.403L199.184 179.724L199.896 180.141L199.933 195.808Z" fill="#4B83A8"/>
<g opacity="0.2">
<path d="M199.933 195.808L199.221 195.403L199.184 179.724L199.896 180.141L199.933 195.808Z" fill="black"/>
</g>
<path d="M214.004 172.001L207.239 175.893L206.649 176.237L199.884 180.141V195.808L206.649 191.903L207.239 191.56L213.992 187.668L214.004 172.001ZM200.768 194.506V180.522L206.723 177.084V191.069L200.768 194.506ZM207.325 190.725V176.74L213.279 173.302V187.287L207.325 190.725Z" fill="#4B83A8"/>
<path d="M213.291 171.583L206.526 175.488L205.937 175.832L199.184 179.724L199.896 180.141L206.649 176.237L207.238 175.893L214.003 172.001L213.291 171.583Z" fill="#4B83A8"/>
<path opacity="0.4" d="M213.291 171.583L206.526 175.488L205.937 175.832L199.184 179.724L199.896 180.141L206.649 176.237L207.238 175.893L214.003 172.001L213.291 171.583Z" fill="black"/>
<path d="M261.568 189.325L261.605 203.309L249.106 210.529L249.057 196.544L261.568 189.325Z" fill="#EBFDFF"/>
<path d="M261.249 203.101L255.306 206.539L256.006 206.956L261.961 203.518L261.249 203.101Z" fill="#4B83A8"/>
<path d="M248.75 210.32L249.462 210.738L255.417 207.287L254.717 206.882L248.75 210.32Z" fill="#4B83A8"/>
<g opacity="0.4">
<path d="M261.249 203.101L255.307 206.539L256.006 206.956L261.961 203.518L261.249 203.101Z" fill="black"/>
<path d="M248.75 210.32L249.462 210.738L255.417 207.287L254.717 206.882L248.75 210.32Z" fill="black"/>
</g>
<path d="M261.924 189.534L261.212 189.116L261.249 203.101L261.961 203.518L261.924 189.534Z" fill="#4B83A8"/>
<path d="M254.668 192.898L254.717 206.882L255.417 207.288L255.38 193.303L254.668 192.898Z" fill="#4B83A8"/>
<g opacity="0.2">
<path d="M261.924 189.534L261.212 189.116L261.249 203.101L261.961 203.518L261.924 189.534Z" fill="black"/>
<path d="M254.668 192.898L254.717 206.882L255.417 207.288L255.38 193.303L254.668 192.898Z" fill="black"/>
</g>
<path d="M248.664 212.039L247.952 211.622L247.903 195.955L248.615 196.373L248.664 212.039Z" fill="#4B83A8"/>
<g opacity="0.2">
<path d="M248.664 212.039L247.952 211.622L247.903 195.955L248.615 196.373L248.664 212.039Z" fill="black"/>
</g>
<path d="M262.722 188.22L255.969 192.125L255.38 192.468L248.652 196.373V212.039L255.405 208.135L256.006 207.791L262.759 203.887L262.722 188.22ZM249.462 210.738V196.753L255.429 193.316V207.288L249.462 210.738ZM256.018 206.993V193.009L261.973 189.571V203.555L256.018 206.993Z" fill="#4B83A8"/>
<path d="M262.022 187.815L255.257 191.719L254.668 192.063L247.903 195.955L248.615 196.373L255.38 192.468L255.969 192.124L262.722 188.22L262.022 187.815Z" fill="#4B83A8"/>
<path opacity="0.4" d="M262.022 187.815L255.257 191.719L254.668 192.063L247.903 195.955L248.615 196.373L255.38 192.468L255.969 192.124L262.722 188.22L262.022 187.815Z" fill="black"/>
<path d="M234.667 193.929L234.704 207.914L222.205 215.133L222.168 201.149L234.667 193.929Z" fill="#EBFDFF"/>
<path d="M234.36 207.717L228.406 211.143L229.118 211.56L235.06 208.122L234.36 207.717Z" fill="#4B83A8"/>
<path d="M221.849 214.937L222.561 215.342L228.528 211.904L227.816 211.487L221.849 214.937Z" fill="#4B83A8"/>
<g opacity="0.4">
<path d="M234.36 207.717L228.406 211.143L229.118 211.56L235.06 208.122L234.36 207.717Z" fill="black"/>
<path d="M221.849 214.937L222.561 215.342L228.528 211.904L227.816 211.487L221.849 214.937Z" fill="black"/>
</g>
<path d="M235.023 194.138L234.311 193.733L234.36 207.717L235.06 208.123L235.023 194.138Z" fill="#4B83A8"/>
<path d="M227.78 197.502L227.816 211.487L228.528 211.904L228.479 197.92L227.78 197.502Z" fill="#4B83A8"/>
<g opacity="0.2">
<path d="M235.023 194.138L234.311 193.733L234.36 207.717L235.06 208.123L235.023 194.138Z" fill="black"/>
<path d="M227.779 197.502L227.816 211.487L228.528 211.904L228.479 197.92L227.779 197.502Z" fill="black"/>
</g>
<path d="M221.763 216.643L221.051 216.238L221.014 200.572L221.727 200.977L221.763 216.643Z" fill="#4B83A8"/>
<g opacity="0.2">
<path d="M221.763 216.643L221.051 216.238L221.014 200.572L221.727 200.977L221.763 216.643Z" fill="black"/>
</g>
<path d="M235.834 192.837L229.069 196.741L228.479 197.073L221.727 200.977V216.644L228.492 212.739L229.081 212.408L235.834 208.503V192.837ZM222.561 215.342V201.358L228.516 197.92V211.904L222.561 215.342ZM229.118 211.56V197.576L235.06 194.138V208.123L229.118 211.56Z" fill="#4B83A8"/>
<path d="M235.122 192.419L228.369 196.324L227.767 196.667L221.014 200.572L221.727 200.977L228.479 197.085L229.069 196.741L235.834 192.837L235.122 192.419Z" fill="#4B83A8"/>
<path opacity="0.4" d="M235.122 192.419L228.369 196.324L227.767 196.667L221.014 200.572L221.727 200.977L228.479 197.085L229.069 196.741L235.834 192.837L235.122 192.419Z" fill="black"/>
<path d="M206.662 206.428L205.606 205.814L205.655 224.477L206.711 225.091L206.662 206.428Z" fill="#4B83A8"/>
<path opacity="0.4" d="M206.662 206.428L205.606 205.814L205.655 224.477L206.711 225.091L206.662 206.428Z" fill="black"/>
<path d="M212.973 201.566L205.606 205.814L206.662 206.428L214.028 202.18L212.973 201.566Z" fill="#4B83A8"/>
<path opacity="0.2" d="M212.973 201.566L205.606 205.814L206.662 206.428L214.028 202.18L212.973 201.566Z" fill="black"/>
<path d="M214.028 202.18L206.661 206.428L206.71 225.091L214.077 220.843L214.028 202.18Z" fill="#4B83A8"/>
<path d="M208.221 214.74C208.289 214.613 208.391 214.507 208.515 214.433C208.562 214.408 208.615 214.394 208.669 214.394C208.722 214.394 208.775 214.408 208.822 214.433L208.294 214.126H208.049H207.987C207.934 214.152 207.888 214.19 207.852 214.237V214.311V214.458C207.846 214.486 207.846 214.516 207.852 214.544C207.848 214.596 207.857 214.648 207.879 214.695C207.9 214.742 207.933 214.783 207.975 214.814L208.503 215.121C208.461 215.09 208.428 215.049 208.407 215.002C208.385 214.955 208.376 214.903 208.38 214.851C208.387 214.704 208.429 214.561 208.503 214.433L208.221 214.74Z" fill="#4B83A8"/>
<path opacity="0.4" d="M208.221 214.74C208.289 214.613 208.391 214.507 208.515 214.433C208.562 214.408 208.615 214.394 208.669 214.394C208.722 214.394 208.775 214.408 208.822 214.433L208.294 214.126H208.049H207.987C207.934 214.152 207.888 214.19 207.852 214.237V214.311V214.458C207.846 214.486 207.846 214.516 207.852 214.544C207.848 214.596 207.857 214.648 207.879 214.695C207.9 214.742 207.933 214.783 207.975 214.814L208.503 215.121C208.461 215.09 208.428 215.049 208.407 215.002C208.385 214.955 208.376 214.903 208.38 214.851C208.387 214.704 208.429 214.561 208.503 214.433L208.221 214.74Z" fill="black"/>
<path d="M208.515 214.433C208.749 214.298 208.945 214.433 208.945 214.667C208.937 214.813 208.895 214.956 208.822 215.084C208.75 215.211 208.649 215.321 208.528 215.403C208.294 215.526 208.098 215.403 208.098 215.158C208.106 215.013 208.148 214.872 208.221 214.746C208.293 214.62 208.394 214.513 208.515 214.433Z" fill="#4B83A8"/>
<path opacity="0.4" d="M213.365 213.132V212.567V203.248L207.055 206.932V216.238V216.815V223.973L213.365 220.29V213.132ZM207.46 207.14L212.923 203.985V212.8L207.46 215.956V207.14ZM207.46 223.2V216.57L212.923 213.414V220.081L207.46 223.2Z" fill="black"/>
<path d="M465.983 705.868C472.432 705.868 477.659 700.641 477.659 694.192C477.659 687.743 472.432 682.516 465.983 682.516C459.534 682.516 454.307 687.743 454.307 694.192C454.307 700.641 459.534 705.868 465.983 705.868Z" fill="#4B83A8"/>
<path d="M546.624 706.973C553.073 706.973 558.3 701.746 558.3 695.297C558.3 688.848 553.073 683.621 546.624 683.621C540.175 683.621 534.948 688.848 534.948 695.297C534.948 701.746 540.175 706.973 546.624 706.973Z" fill="#4B83A8"/>
<path d="M511.03 570.726H498.789V680.281H511.03V570.726Z" fill="#4B83A8"/>
<path d="M555.108 675.836H455.829C453.144 675.836 450.967 678.013 450.967 680.698V682.098C450.967 684.783 453.144 686.96 455.829 686.96H555.108C557.794 686.96 559.97 684.783 559.97 682.098V680.698C559.97 678.013 557.794 675.836 555.108 675.836Z" fill="#273956"/>
<path d="M478.776 554.04H534.948V556.851C534.948 562.006 532.9 566.95 529.255 570.595C525.61 574.24 520.666 576.287 515.512 576.287H498.212C493.058 576.287 488.114 574.24 484.469 570.595C480.824 566.95 478.776 562.006 478.776 556.851V554.04Z" fill="#273956"/>
<path d="M643.656 383.144C643.656 383.144 633.834 456.615 592.801 540.669C592.801 540.669 593.513 556.913 563.838 556.913L445.172 559.037L474.835 538.557L507.875 479.181L593.513 325.229C600.524 324.953 607.525 325.973 614.165 328.237C629.267 333.382 646.529 347.096 643.656 383.144Z" fill="#4B83A8"/>
<path opacity="0.2" d="M563.838 523.763C532.763 538.606 496.727 537.894 496.727 537.894L507.875 479.231L593.514 325.229C600.524 324.953 607.525 325.973 614.165 328.237C630.495 409.419 563.838 523.763 563.838 523.763Z" fill="black"/>
<path d="M282.048 705.254L249.548 713.64L266.062 721.191L322.946 720.467C322.946 720.467 332.915 722.038 329.772 703.155L282.048 705.254Z" fill="black"/>
<path opacity="0.2" d="M282.048 705.254L249.548 713.64L266.062 721.191L322.946 720.467C322.946 720.467 332.915 722.038 329.772 703.155L282.048 705.254Z" fill="black"/>
<path d="M300.845 683.621C300.845 683.621 300.845 683.694 300.845 683.805C301.702 687.809 301.027 691.989 298.954 695.521C296.882 699.053 293.561 701.68 289.647 702.885L281.998 705.254C281.998 705.254 282.526 710.497 291.968 709.453L313.982 708.398C313.982 708.398 325.032 708.925 329.723 703.155V684.284L309.268 675.898L300.845 683.621Z" fill="#FFCDC6"/>
<path d="M265.104 666.8C265.104 666.8 245.177 700.883 216.864 706.089C216.864 706.089 218.436 711.86 233.12 711.86L261.433 709.76L282.932 682.503L265.104 666.8Z" fill="#FFCDC6"/>
<path d="M201.652 724.481C201.652 724.481 188.024 724.481 197.969 717.667L216.852 706.126C216.852 706.126 220.536 712.424 233.108 711.897L261.421 709.797C261.421 709.797 271.452 715.826 264.834 721.547C262.916 723.148 260.494 724.018 257.995 724.003L201.652 724.481Z" fill="black"/>
<path d="M396.355 456.332C396.355 456.332 287.278 518.851 300.28 570.873L299.63 683.977L332.78 687.23L341.878 597.528L437.424 471.422L429.824 469.568C429.824 469.568 404.777 465.676 396.355 456.332Z" fill="#273956"/>
<path opacity="0.2" d="M299.629 683.977L321.73 685.929C321.73 685.929 321.079 649.525 328.225 638.475L343.83 554.617L423.783 474.013V468.168L331.478 541.615C331.478 541.615 303.865 560.031 304.774 541.05C304.774 541.05 295.479 555.783 300.28 570.873L299.629 683.977Z" fill="black"/>
<path d="M262.551 664.848L283.73 683.375C284.322 683.888 285.094 684.146 285.875 684.093C286.657 684.04 287.387 683.681 287.904 683.093C296.352 673.381 330.705 634.3 357.655 610.064C363.157 605.173 369.366 601.141 376.072 598.105C381.56 595.65 388.19 591.254 389.308 584.6C389.308 584.6 389.958 578.092 399.707 577.442C399.707 577.442 485.505 553.389 531.007 516.347L507.63 474.651L428.977 464.252L359.423 526.009C342.556 538.921 328.417 555.05 317.826 573.464L261.998 661.029C261.616 661.626 261.461 662.34 261.563 663.042C261.664 663.743 262.015 664.384 262.551 664.848Z" fill="#273956"/>
<path opacity="0.2" d="M527.434 519.134C527.434 519.134 503.16 526.832 486.597 505.628C486.597 505.628 461.821 481.072 437.424 471.397C437.424 471.397 463.576 480.213 485.873 495.229C485.873 495.229 504.29 514.873 527.041 509.091C528.195 509.471 531.031 516.249 531.031 516.249L527.434 519.134Z" fill="black"/>
<path d="M539.478 225.005H511.595V268.272H539.478V225.005Z" fill="#FFCDC6"/>
<path d="M511.595 268.272V250.96L533.695 234.139H537.072C537.072 234.139 529.815 263.95 511.595 268.272Z" fill="#F7A79E"/>
<path d="M396.355 456.332C396.355 456.332 400.247 464.116 429.824 469.568C429.824 469.568 461.747 478.162 485.873 495.253C488.206 499.145 507.666 514.714 525.567 509.262L552.038 276.179C548.885 271.646 546.581 266.58 545.236 261.224L503.823 262.784C503.823 262.784 507.507 278.745 489.384 282.87C489.384 282.87 447.21 332.252 450.427 361.964L446.903 423.01L396.355 456.332Z" fill="#87A644"/>
<path opacity="0.2" d="M396.355 456.332C396.355 456.332 399.498 463.969 429.824 469.568C429.824 469.568 455.522 443.293 452.944 399.105C452.944 399.105 454.392 325.327 489.384 282.87C489.384 282.87 456.234 303.006 444.472 349.036L446.927 423.01L396.355 456.332Z" fill="black"/>
<path d="M510.871 254.324C525.077 254.324 536.593 237.965 536.593 217.785C536.593 197.605 525.077 181.246 510.871 181.246C496.665 181.246 485.149 197.605 485.149 217.785C485.149 237.965 496.665 254.324 510.871 254.324Z" fill="#FFCDC6"/>
<path d="M591.463 312.902C591.463 312.902 592.825 302.012 580.584 295.222L552.038 276.179C552.038 276.179 547.962 272.496 545.236 261.224L539.466 261.433L539.552 233.12L539.478 225.005L536.053 224.845C536.053 224.845 539.969 182.879 501.429 188.11C501.429 188.11 483.614 189.067 485.627 223.593C485.627 223.593 487.985 252.667 511.583 254.287L511.865 262.747H503.823C503.823 262.747 507.445 278.819 489.384 282.834C489.384 282.834 472.907 287.646 465.688 296.069C465.688 296.069 455.939 281.139 464.546 271.612C464.546 271.612 475.424 260.733 474.061 248.492C474.061 248.492 471.274 234.545 477.647 227.951C479.024 226.603 480.136 225.008 480.925 223.249C482.337 219.909 483.38 214.789 479.501 210.873C479.501 210.873 454.122 193.684 475.879 185.089C481.953 183.327 487.852 181.005 493.497 178.152C498.282 175.506 503.409 173.535 508.734 172.296C520.754 169.607 539.429 168.084 548.858 181.001C548.858 181.001 555.759 190.037 562.831 197.613C566.179 201.173 569.914 204.348 573.967 207.079C579.443 210.762 589.732 219.529 589.928 232.715C589.914 234.695 589.683 236.667 589.24 238.596C588.491 242.169 587.779 252.102 599.394 262.55C604.011 266.644 607.599 271.767 609.867 277.505C614.042 288.15 614.533 303.387 591.463 312.902Z" fill="#273956"/>
<path opacity="0.2" d="M591.463 312.902C591.463 312.902 592.825 302.012 580.584 295.222L552.038 276.179C552.038 276.179 547.962 272.496 545.236 261.225L539.466 261.433L539.552 233.12L547.201 231.463C547.201 231.463 547.201 232.077 547.201 233.17C547.706 241.591 550.133 249.785 554.296 257.124C558.459 264.462 564.247 270.749 571.216 275.504C581.64 282.649 599.394 297.714 591.463 312.902Z" fill="black"/>
<path d="M591.463 312.902L579.32 404.127C583.445 427.001 587.583 499.182 589.142 528.293C589.233 530.05 588.955 531.806 588.328 533.45C587.701 535.094 586.738 536.588 585.5 537.839C584.263 539.089 582.778 540.067 581.141 540.711C579.504 541.355 577.75 541.65 575.993 541.578C547.471 540.51 527.47 520.705 519.097 510.687C517.529 508.844 516.062 506.917 514.701 504.916C495.83 469.568 501.454 382.849 501.454 382.849C502.252 342.48 551.596 276.793 552.051 276.179L578.927 294.166C592.568 300.538 591.463 312.902 591.463 312.902Z" fill="black"/>
<path d="M421.328 403.783C424.25 385.489 438.345 306.788 465.688 296.106C472.29 289.692 480.462 285.128 489.385 282.87C489.385 282.87 452.465 324.37 450.771 359.104L446.903 423.01L412.599 424.717L407.454 407.994L416.884 407.687C417.962 407.653 418.995 407.245 419.806 406.532C420.617 405.82 421.155 404.848 421.328 403.783Z" fill="black"/>
<path d="M444.89 421.021L416.036 420.862L419.892 429.456L446.056 429.886C446.312 426.881 445.914 423.857 444.89 421.021Z" fill="#FFCDC6"/>
<g opacity="0.2">
<path d="M505.592 284.601C507.089 284.601 508.587 284.7 510.073 284.675C511.559 284.651 513.056 284.675 514.542 284.675C517.513 284.589 520.485 284.442 523.431 284.159C526.378 283.877 529.325 283.484 532.247 282.993L534.432 282.576C535.169 282.428 535.881 282.232 536.606 282.06C538.079 281.802 539.479 281.286 540.94 280.943C538.215 282.217 535.368 283.212 532.443 283.914C529.518 284.631 526.542 285.124 523.542 285.387C520.546 285.661 517.536 285.739 514.53 285.621C511.528 285.515 508.54 285.174 505.592 284.601Z" fill="black"/>
</g>
<g opacity="0.2">
<path d="M473.927 331.724C475.4 331.564 476.861 331.417 478.322 331.171C479.783 330.926 481.22 330.729 482.669 330.459C485.542 329.895 488.402 329.232 491.263 328.458C494.082 327.682 496.853 326.743 499.563 325.646L501.577 324.861C502.24 324.554 502.89 324.21 503.553 323.891C504.916 323.326 506.132 322.503 507.47 321.853C505.146 323.707 502.616 325.289 499.931 326.567C497.247 327.86 494.453 328.912 491.582 329.71C488.717 330.511 485.794 331.094 482.841 331.454C479.884 331.816 476.9 331.906 473.927 331.724Z" fill="black"/>
</g>
<path opacity="0.2" d="M514.677 504.916C516.037 506.917 517.504 508.844 519.072 510.687C513.498 511.067 504.597 509.938 493.448 502.571C493.448 502.571 479.82 413.839 501.92 356.759C501.92 356.759 521.872 304.627 551.989 276.228C550.492 278.254 502.215 342.922 501.429 382.849C501.429 382.849 495.806 469.568 514.677 504.916Z" fill="black"/>
<path d="M143.025 699.705L177.452 454.147H195.046L159.085 699.705H143.025Z" fill="#273956"/>
<path d="M654.792 699.705L618.843 451.09H639.494L672.387 700.466L654.792 699.705Z" fill="#273956"/>
<path d="M576.054 131.865C612.251 131.865 641.594 102.346 641.594 65.9323C641.594 29.5189 612.251 0 576.054 0C539.858 0 510.515 29.5189 510.515 65.9323C510.515 102.346 539.858 131.865 576.054 131.865Z" fill="#273956"/>
<path d="M576.054 126.438C609.274 126.438 636.203 99.3484 636.203 65.9322C636.203 32.516 609.274 5.42676 576.054 5.42676C542.834 5.42676 515.905 32.516 515.905 65.9322C515.905 99.3484 542.834 126.438 576.054 126.438Z" fill="white"/>
<path d="M577.11 74.0725C580.989 74.0725 584.133 70.9282 584.133 67.0496C584.133 63.1709 580.989 60.0266 577.11 60.0266C573.232 60.0266 570.087 63.1709 570.087 67.0496C570.087 70.9282 573.232 74.0725 577.11 74.0725Z" fill="#273956"/>
<path d="M575.71 69.0509C575.565 69.0495 575.421 69.0288 575.281 68.9895C575.091 68.9285 574.916 68.828 574.768 68.6947C574.62 68.5614 574.502 68.3982 574.421 68.216L562.377 41.3151C562.302 41.1466 562.26 40.965 562.256 40.7806C562.251 40.5963 562.282 40.4128 562.349 40.2406C562.415 40.0685 562.514 39.911 562.641 39.7773C562.768 39.6435 562.92 39.5361 563.089 39.4611C563.257 39.3862 563.439 39.3451 563.623 39.3403C563.807 39.3355 563.991 39.3671 564.163 39.4332C564.335 39.4993 564.493 39.5987 564.626 39.7257C564.76 39.8527 564.868 40.0048 564.943 40.1732L576.336 65.6253L617.136 41.1432C617.297 41.0481 617.476 40.9856 617.661 40.9595C617.846 40.9333 618.035 40.9438 618.216 40.9906C618.398 41.0373 618.568 41.1193 618.717 41.2319C618.867 41.3444 618.993 41.4854 619.088 41.6466C619.183 41.8078 619.246 41.9862 619.272 42.1716C619.298 42.357 619.287 42.5457 619.241 42.7269C619.194 42.9082 619.112 43.0785 618.999 43.2281C618.887 43.3777 618.746 43.5037 618.585 43.5988L576.472 68.8544C576.243 68.9939 575.978 69.0623 575.71 69.0509Z" fill="#273956"/>
<path d="M522.707 68.8421C524.26 68.8421 525.518 67.4953 525.518 65.834C525.518 64.1727 524.26 62.8259 522.707 62.8259C521.154 62.8259 519.895 64.1727 519.895 65.834C519.895 67.4953 521.154 68.8421 522.707 68.8421Z" fill="#273956"/>
<path d="M576.103 17.4468C577.656 17.4468 578.915 16.1001 578.915 14.4387C578.915 12.7774 577.656 11.4307 576.103 11.4307C574.55 11.4307 573.291 12.7774 573.291 14.4387C573.291 16.1001 574.55 17.4468 576.103 17.4468Z" fill="#273956"/>
<path d="M627.499 66.0428C629.051 66.0428 630.31 64.696 630.31 63.0347C630.31 61.3734 629.051 60.0266 627.499 60.0266C625.946 60.0266 624.687 61.3734 624.687 63.0347C624.687 64.696 625.946 66.0428 627.499 66.0428Z" fill="#273956"/>
<path d="M576.103 120.643C577.656 120.643 578.915 119.296 578.915 117.635C578.915 115.973 577.656 114.626 576.103 114.626C574.55 114.626 573.291 115.973 573.291 117.635C573.291 119.296 574.55 120.643 576.103 120.643Z" fill="#273956"/>
<path d="M683.915 693.627V700.049H759.203V693.431L727.281 685.598H711.626L683.915 693.627Z" fill="#273956"/>
<path opacity="0.2" d="M685.168 190.32L665.216 316.131" stroke="black" stroke-miterlimit="10"/>
<path opacity="0.2" d="M697.912 191.425L684.063 316.131" stroke="black" stroke-miterlimit="10"/>
<path opacity="0.2" d="M707.894 189.215L703.462 316.131" stroke="black" stroke-miterlimit="10"/>
<path opacity="0.2" d="M718.981 191.425L719.534 316.684" stroke="black" stroke-miterlimit="10"/>
<path opacity="0.2" d="M731.173 191.425L737.263 316.131" stroke="black" stroke-miterlimit="10"/>
<path opacity="0.2" d="M741.695 191.425L755.005 315.566" stroke="black" stroke-miterlimit="10"/>
<path opacity="0.2" d="M754.44 190.872L773.839 314.461" stroke="black" stroke-miterlimit="10"/>
<path d="M539.245 238.461C543.626 238.461 547.177 234.157 547.177 228.847C547.177 223.538 543.626 219.234 539.245 219.234C534.865 219.234 531.314 223.538 531.314 228.847C531.314 234.157 534.865 238.461 539.245 238.461Z" fill="#FFCDC6"/>
<path d="M502.227 441.501C503.517 441.906 571.708 457.351 584.993 387.478C584.993 387.478 598.363 335.825 591.463 312.976C591.463 312.976 593.415 301.226 578.915 294.178C578.915 294.178 558.841 285.842 551.548 320.588C551.548 320.588 544.181 350.153 542.757 374.488C542.517 378.606 542.616 382.737 543.051 386.84C543.837 394.403 543.346 412.709 520.239 414.072L446.486 413.667C446.034 413.661 445.586 413.76 445.179 413.956C444.771 414.152 444.414 414.44 444.136 414.796C443.858 415.153 443.666 415.569 443.575 416.012C443.484 416.455 443.497 416.913 443.613 417.35C445.233 423.771 447.947 436.786 444.767 441.55L502.227 441.501Z" fill="black"/>
<path opacity="0.2" d="M502.227 441.501C503.516 441.906 571.708 457.351 584.992 387.478C584.992 387.478 598.363 335.825 591.463 312.976C591.463 312.976 593.415 301.226 578.915 294.178C578.915 294.178 558.841 285.842 551.547 320.588C551.547 320.588 545.31 345.524 543.211 368.472C542.685 375.009 542.685 381.579 543.211 388.116C543.776 396.281 542.167 412.758 520.288 414.047L446.768 413.642C446.292 413.637 445.822 413.741 445.393 413.947C444.964 414.152 444.588 414.453 444.294 414.827C444 415.2 443.795 415.637 443.696 416.102C443.597 416.567 443.606 417.049 443.723 417.51C445.344 424.005 447.959 436.774 444.816 441.488L502.227 441.501Z" fill="black"/>
<path d="M417.141 429.788H502.62C504.017 429.788 505.357 430.343 506.344 431.33C507.332 432.318 507.887 433.658 507.887 435.055V437.081C507.887 438.478 507.332 439.817 506.344 440.805C505.357 441.793 504.017 442.348 502.62 442.348H417.141V429.788Z" fill="#273956"/>
<path d="M656.02 442.274H149.287V456.725H656.02V442.274Z" fill="#273956"/>
<path opacity="0.4" d="M656.02 442.274H149.287V456.725H656.02V442.274Z" fill="black"/>
<path d="M284.258 436.454L243.446 334.757C242.978 333.592 242.803 332.33 242.936 331.082C243.069 329.834 243.507 328.638 244.209 327.598C244.912 326.559 245.86 325.707 246.968 325.118C248.077 324.53 249.312 324.222 250.568 324.222H370.007C371.475 324.222 372.912 324.643 374.149 325.435C375.385 326.227 376.368 327.357 376.981 328.691L429.297 442.311L292.853 442.237C291.006 442.245 289.199 441.698 287.666 440.667C286.134 439.636 284.947 438.168 284.258 436.454Z" fill="#87A644"/>
<path d="M284.258 436.454L243.446 334.757C242.978 333.592 242.803 332.33 242.936 331.082C243.069 329.834 243.507 328.638 244.209 327.598C244.912 326.559 245.86 325.707 246.968 325.118C248.077 324.53 249.312 324.222 250.568 324.222H370.007C371.475 324.222 372.912 324.643 374.149 325.435C375.385 326.227 376.368 327.357 376.981 328.691L429.297 442.311L292.853 442.237C291.006 442.245 289.199 441.698 287.666 440.667C286.134 439.636 284.947 438.168 284.258 436.454Z" fill="#87A644"/>
<path d="M264.687 283.226C269.782 280.538 272.95 276.793 272.95 272.643C272.95 264.466 260.672 257.836 245.448 257.836C230.223 257.836 217.945 264.466 217.945 272.643C217.945 280.82 230.223 287.45 245.448 287.45C246.675 287.45 247.805 287.45 248.947 287.327C258.143 298.242 272.275 293.466 272.275 293.466C266.381 290.556 264.945 286.124 264.687 283.226Z" fill="#4B83A8"/>
<path d="M232.605 275.233C234.266 275.233 235.613 273.887 235.613 272.225C235.613 270.564 234.266 269.217 232.605 269.217C230.943 269.217 229.597 270.564 229.597 272.225C229.597 273.887 230.943 275.233 232.605 275.233Z" fill="#FDFFFF"/>
<path d="M245.852 275.233C247.514 275.233 248.86 273.887 248.86 272.225C248.86 270.564 247.514 269.217 245.852 269.217C244.191 269.217 242.844 270.564 242.844 272.225C242.844 273.887 244.191 275.233 245.852 275.233Z" fill="#FDFFFF"/>
<path d="M257.492 275.233C259.153 275.233 260.5 273.887 260.5 272.225C260.5 270.564 259.153 269.217 257.492 269.217C255.831 269.217 254.484 270.564 254.484 272.225C254.484 273.887 255.831 275.233 257.492 275.233Z" fill="#FDFFFF"/>
<path d="M348.643 233.071C364.083 233.071 376.6 220.758 376.6 205.569C376.6 190.379 364.083 178.066 348.643 178.066C333.203 178.066 320.686 190.379 320.686 205.569C320.686 220.758 333.203 233.071 348.643 233.071Z" stroke="#4B83A8" stroke-miterlimit="10"/>
<path d="M321.546 212.481C328.631 215.758 336.038 218.288 343.646 220.032C352.414 221.929 361.388 222.696 370.351 222.316" stroke="#4B83A8" stroke-miterlimit="10"/>
<path d="M324.775 191.326C324.775 191.326 349.33 184.979 376.047 199.786" stroke="#4B83A8" stroke-miterlimit="10"/>
<path d="M142.767 412.193C127.874 419.904 116.456 433.189 108.242 447.799C100.028 462.41 94.7361 478.494 89.5058 494.455L84.9138 576.619C102.238 547.152 116.149 512.479 119.906 478.494L108.377 477.463C116.112 476.235 122.595 470.685 126.732 464.043C130.87 457.401 132.982 449.739 135.057 442.201L120.962 444.288C132.086 436.791 139.895 425.297 142.767 412.193Z" fill="#87A644"/>
<g opacity="0.3">
<path d="M142.767 412.193C127.874 419.904 116.456 433.189 108.242 447.799C100.028 462.41 94.7361 478.494 89.5058 494.455L84.9138 576.619C102.238 547.152 116.149 512.479 119.906 478.494L108.377 477.463C116.112 476.235 122.595 470.685 126.732 464.043C130.87 457.401 132.982 449.739 135.057 442.201L120.962 444.288C132.086 436.791 139.895 425.297 142.767 412.193Z" fill="black"/>
</g>
<path d="M82.3482 595.834C82.3482 595.834 44.741 550.774 45.1707 507.801H60.3707C60.3707 507.801 43.857 496.948 45.1707 490.87C46.4844 484.793 46.9142 461.784 46.9142 461.784L60.8004 465.295C60.8004 465.295 50.3765 460.089 49.0751 451.79C47.7736 443.49 52.12 405.342 52.12 405.342C52.12 405.342 69.0512 423.145 74.2202 441.378C79.3892 459.611 93.1036 480.876 89.0887 536.433C85.0738 591.991 82.3482 595.834 82.3482 595.834Z" fill="#87A644"/>
<path d="M101.415 600.082C101.415 600.082 142.166 572.936 151.214 538.287L138.998 534.96C138.998 534.96 154.64 529.852 154.959 524.683C155.278 519.514 159.87 500.913 159.87 500.913L147.948 500.668C147.948 500.668 157.464 498.765 160.312 492.417C163.161 486.07 168.035 454.356 168.035 454.356C168.035 454.356 150.527 464.964 142.35 478.482C134.173 492 118.531 506.107 109.605 551.658C100.679 597.209 101.415 600.082 101.415 600.082Z" fill="#87A644"/>
<path d="M62.3965 444.644C62.3965 444.803 62.4824 444.951 62.5192 445.11L62.8507 446.498C63.1331 447.726 63.526 449.543 64.0785 451.839C64.631 454.135 65.1958 457.008 65.8466 460.31C66.4973 463.613 67.2953 467.395 68.0566 471.569C69.665 479.918 71.3593 489.9 73.1151 501.036C74.8708 512.172 76.5038 524.364 78.0262 537.268C79.5487 550.172 80.6537 562.462 81.5377 573.672C82.4217 584.882 82.9865 594.987 83.3303 603.483C83.539 607.731 83.6372 611.574 83.7477 614.938C83.8582 618.302 83.9196 621.224 83.9442 623.606C83.9687 625.988 83.9442 627.781 84.0178 629.07V630.494C84.0301 630.658 84.0301 630.822 84.0178 630.985C84.0056 630.822 84.0056 630.658 84.0178 630.494V629.07C84.0178 627.842 83.9073 625.951 83.8337 623.606C83.76 621.261 83.674 618.327 83.5267 615.012C83.3794 611.697 83.2566 607.805 83.011 603.569C82.6181 595.073 81.9429 584.98 81.0834 573.783C80.224 562.585 78.9962 550.283 77.5228 537.403C76.0495 524.524 74.3551 512.295 72.6853 501.183C71.0155 490.072 69.3212 480.102 67.7742 471.717C67.0375 467.53 66.3008 463.76 65.6624 460.445C65.0239 457.13 64.4346 454.307 63.9926 451.949C63.5506 449.592 63.17 447.848 62.9244 446.584C62.8139 445.994 62.7157 445.528 62.6543 445.184C62.544 445.017 62.4572 444.835 62.3965 444.644Z" fill="#273956"/>
<path d="M77.1297 623.398C77.1297 623.398 42.7516 584.342 32.0207 560.78L40.0996 557.343C34.243 558.3 28.2514 555.796 23.7209 551.977C19.1903 548.159 15.8385 543.039 12.5971 538.128L23.2052 536.347C13.4446 533.56 5.13365 527.118 0 518.36C12.5357 520.423 23.8805 527.311 33.2362 535.918C40.8117 542.892 47.2208 550.983 53.372 559.246C56.3823 563.272 59.0012 567.576 61.193 572.101C66.9391 584.072 77.1543 609.057 77.1297 623.398Z" fill="#87A644"/>
<path d="M151.755 477.106C151.722 477.249 151.668 477.385 151.595 477.512L151.068 478.641L148.968 482.975C148.035 484.842 146.918 487.137 145.653 489.826C144.388 492.515 142.89 495.548 141.331 498.937C138.151 505.702 134.505 513.817 130.576 522.878C126.647 531.94 122.546 541.995 118.421 552.615C114.295 563.236 110.636 573.488 107.371 582.807C104.105 592.126 101.416 600.622 99.218 607.755C98.0884 611.316 97.143 614.57 96.2836 617.406C95.4241 620.242 94.6997 622.698 94.1227 624.773L92.7721 629.389C92.6125 629.88 92.4897 630.273 92.4038 630.617L92.2564 631.022C92.2566 630.88 92.2815 630.738 92.3301 630.605C92.416 630.298 92.5143 629.893 92.6371 629.377C92.9317 628.272 93.3492 626.713 93.8648 624.723C94.3805 622.734 95.0926 620.242 95.9153 617.357C96.7379 614.471 97.6587 611.218 98.7637 607.682C100.912 600.511 103.675 592.04 106.781 582.672C109.887 573.304 113.657 563.089 117.758 552.431C121.858 541.774 126.057 531.768 130.036 522.694C134.014 513.621 137.697 505.505 140.926 498.789C142.51 495.413 144.02 492.38 145.321 489.716C146.623 487.052 147.777 484.805 148.747 482.914C149.717 481.023 150.429 479.648 150.945 478.629L151.534 477.524C151.593 477.377 151.667 477.238 151.755 477.106Z" fill="#273956"/>
<path d="M80.0518 640.132C79.9683 639.899 79.9147 639.655 79.8922 639.408L79.5607 637.333C79.4379 636.437 79.266 635.332 79.0328 634.067C78.7995 632.803 78.5785 631.329 78.2347 629.745C77.6208 626.541 76.7368 622.771 75.6072 618.609C74.4776 614.447 73.0166 610.015 71.2731 605.312C69.5297 600.61 67.5898 596.337 65.7358 592.457C63.8818 588.578 62.0524 585.177 60.3458 582.377C59.56 580.953 58.7619 579.713 58.0867 578.608C57.4114 577.503 56.8589 576.557 56.3309 575.796L55.2014 574.016C55.0636 573.814 54.9444 573.601 54.8453 573.377C55.0203 573.549 55.1767 573.738 55.3119 573.942L56.5396 575.649C57.2077 576.538 57.8305 577.46 58.4059 578.411C59.0443 579.504 59.9284 580.732 60.751 582.095C62.4576 584.882 64.3361 588.234 66.276 592.15C68.2159 596.067 70.119 600.377 71.887 605.03C73.655 609.683 75.0547 614.238 76.1843 618.413C77.1959 622.1 78.0155 625.838 78.6399 629.61C78.9591 631.206 79.1432 632.68 79.352 633.957C79.5607 635.233 79.6835 636.412 79.7694 637.259C79.8554 638.107 79.929 638.806 79.9904 639.347C80.0414 639.605 80.062 639.869 80.0518 640.132Z" fill="#273956"/>
<path d="M125.468 630.948H50.1433V646.32H125.468V630.948Z" fill="black"/>
<path d="M57.3133 646.308L65.4658 697.998H110.98L118.58 646.308H57.3133Z" fill="black"/>
<path opacity="0.2" d="M120.852 646.308C120.852 646.492 106.597 646.627 89.0272 646.627C71.4576 646.627 57.1906 646.492 57.1906 646.308C57.1906 646.124 71.4453 645.989 89.0272 645.989C106.609 645.989 120.852 646.173 120.852 646.308Z" fill="black"/>
<path d="M491.496 217.797C491.476 218.431 491.7 219.047 492.124 219.519C492.547 219.99 493.136 220.279 493.768 220.327C494.068 220.364 494.373 220.342 494.664 220.261C494.956 220.18 495.228 220.041 495.466 219.854C495.703 219.667 495.901 219.434 496.048 219.169C496.195 218.905 496.288 218.614 496.322 218.313C496.328 218.281 496.328 218.247 496.322 218.215C496.342 217.582 496.118 216.965 495.694 216.494C495.271 216.022 494.682 215.733 494.05 215.686C493.443 215.613 492.832 215.784 492.351 216.162C491.869 216.539 491.558 217.092 491.484 217.699L491.496 217.797Z" fill="#273956"/>
<path d="M489.716 208.847C489.999 209.179 491.889 207.865 494.517 207.951C497.144 208.037 499.023 209.387 499.305 209.08C499.588 208.773 499.158 208.356 498.335 207.717C497.232 206.919 495.915 206.466 494.554 206.416C493.205 206.377 491.879 206.773 490.772 207.546C489.851 208.135 489.569 208.7 489.716 208.847Z" fill="#273956"/>
<path d="M515.414 218.178C515.393 218.811 515.618 219.428 516.041 219.899C516.464 220.371 517.053 220.66 517.685 220.707C517.992 220.74 518.302 220.711 518.597 220.622C518.892 220.534 519.167 220.388 519.406 220.193C519.645 219.998 519.842 219.757 519.987 219.485C520.132 219.213 520.222 218.915 520.251 218.608C520.269 217.977 520.042 217.363 519.62 216.894C519.197 216.426 518.609 216.138 517.98 216.091C517.371 216.022 516.76 216.196 516.279 216.575C515.799 216.955 515.488 217.509 515.414 218.117C515.414 218.117 515.414 218.141 515.414 218.178Z" fill="#273956"/>
<path d="M515.475 210.062C515.757 210.406 517.648 209.08 520.263 209.154C522.878 209.228 524.782 210.615 525.064 210.296C525.346 209.976 524.929 209.571 524.094 208.945C522.996 208.135 521.676 207.68 520.312 207.644C518.966 207.609 517.643 208 516.531 208.761C515.61 209.363 515.242 209.927 515.475 210.062Z" fill="#273956"/>
<path d="M505.395 229.24C504.025 228.77 502.602 228.473 501.159 228.356C500.496 228.258 499.931 228.111 499.759 227.657C499.744 226.991 499.918 226.335 500.262 225.766L502.386 220.707C504.352 216.433 505.97 212.006 507.224 207.472C506.929 207.361 504.302 213.144 501.343 220.253L499.305 225.324C498.851 226.12 498.702 227.054 498.887 227.951C498.971 228.191 499.11 228.407 499.293 228.582C499.477 228.757 499.7 228.886 499.943 228.958C500.311 229.081 500.697 229.143 501.085 229.142C502.511 229.365 503.96 229.398 505.395 229.24Z" fill="#F7A79E"/>
<path d="M536.716 232.531C536.886 232.647 537.062 232.753 537.244 232.85C537.715 233.06 538.246 233.095 538.742 232.948C539.5 232.502 540.127 231.862 540.559 231.094C540.99 230.326 541.21 229.458 541.197 228.577C541.268 227.59 541.113 226.599 540.743 225.68C540.65 225.316 540.472 224.98 540.222 224.7C539.971 224.42 539.657 224.204 539.306 224.071C539.076 224.004 538.83 224.015 538.607 224.104C538.384 224.193 538.198 224.355 538.078 224.563C537.907 224.894 537.968 225.115 537.907 225.14C537.845 225.164 537.661 224.943 537.784 224.477C537.853 224.183 538.028 223.925 538.275 223.752C538.602 223.531 539.002 223.443 539.392 223.507C539.86 223.626 540.29 223.862 540.642 224.193C540.994 224.524 541.257 224.938 541.406 225.397C541.86 226.419 542.058 227.536 541.983 228.651C542.006 229.689 541.719 230.711 541.159 231.585C540.599 232.46 539.792 233.148 538.84 233.562C538.516 233.648 538.178 233.658 537.85 233.592C537.522 233.526 537.214 233.386 536.949 233.182C536.74 232.776 536.679 232.543 536.716 232.531Z" fill="#F7A79E"/>
<path d="M510.552 234.385C507.472 235.069 504.493 236.146 501.687 237.59C501.442 238.928 503.578 241.936 504.941 242.501C505.64 242.762 506.392 242.855 507.134 242.772C507.877 242.689 508.589 242.432 509.213 242.022C510.316 241.113 511.043 239.826 511.252 238.412C511.346 237.033 511.106 235.652 510.552 234.385Z" fill="white"/>
</svg>
