<svg width="592" height="608" viewBox="0 0 592 608" fill="none" xmlns="http://www.w3.org/2000/svg">
<path d="M537.364 204.584H96.6798C92.2679 204.584 88.6914 208.16 88.6914 212.572V513.628C88.6914 518.04 92.2679 521.617 96.6798 521.617H537.364C541.776 521.617 545.352 518.04 545.352 513.628V212.572C545.352 208.16 541.776 204.584 537.364 204.584Z" fill="#273956"/>
<path d="M42.0518 521.617V524.576C42.0518 526.643 42.4589 528.69 43.2499 530.6C44.041 532.509 45.2004 534.245 46.6621 535.706C48.1238 537.168 49.859 538.327 51.7687 539.118C53.6785 539.91 55.7254 540.317 57.7924 540.317H576.259C580.434 540.317 584.438 538.658 587.39 535.706C590.342 532.754 592 528.751 592 524.576V521.617H42.0518Z" fill="#1C2F4F"/>
<path d="M525.393 224.016H108.651V502.169H525.393V224.016Z" fill="white"/>
<path d="M351.49 529.369H282.554C280.597 529.369 278.719 528.593 277.334 527.21C275.948 525.828 275.168 523.952 275.164 521.995V520.09H358.88V521.995C358.876 523.952 358.096 525.828 356.71 527.21C355.325 528.593 353.447 529.369 351.49 529.369ZM276.446 521.373V521.995C276.451 523.612 277.096 525.161 278.241 526.303C279.386 527.445 280.937 528.086 282.554 528.086H351.49C353.107 528.086 354.657 527.445 355.8 526.303C356.944 525.16 357.588 523.611 357.59 521.995V521.373H276.446Z" fill="#273956"/>
<path d="M320.599 113.492H287.992V122.992H320.599V113.492Z" fill="white"/>
<path d="M391.739 113.492H359.132V122.992H391.739V113.492Z" fill="white"/>
<path d="M423.295 7.15723H214.715V485.665H423.295V7.15723Z" fill="#E6E7E8"/>
<path d="M431.075 485.413H207.203V502.169H431.075V485.413Z" fill="#755850"/>
<path d="M378.643 496.589H259.643V502.177H378.643V496.589Z" fill="white"/>
<path d="M369.812 491.001H268.474V496.589H369.812V491.001Z" fill="white"/>
<path d="M358.928 485.413H279.358V491.001H358.928V485.413Z" fill="white"/>
<path d="M358.928 489.884H279.358V491.001H358.928V489.884Z" fill="#89ABBF"/>
<path d="M369.812 495.464H268.474V496.589H369.812V495.464Z" fill="#89ABBF"/>
<path d="M423.173 368.987H336.214V426.291H423.173V368.987Z" fill="#D1D3D4"/>
<path d="M338.126 368.987H336.214V426.291H338.126V368.987Z" fill="#BCBEC0"/>
<path d="M329.634 444.055H308.518V485.413H329.634V444.055Z" fill="#445C77"/>
<path d="M392.55 382.564H356.22V426.299H392.55V382.564Z" fill="white"/>
<path d="M390.598 384.94H375.44V424.064H390.598V384.94Z" fill="#445C77"/>
<path d="M373.22 384.94H358.062V424.064H373.22V384.94Z" fill="#445C77"/>
<path d="M423.165 434.728L215.113 438.514V433.729H423.165V434.728Z" fill="#89ABBF"/>
<path d="M336.214 373.701L215.113 377.495V372.702H336.214V373.701Z" fill="#89ABBF"/>
<path d="M423.165 374.496L336.214 379.675V372.702H423.165V374.496Z" fill="#BCBEC0"/>
<path d="M348.468 417.374H345.17V426.299H348.468V417.374Z" fill="white"/>
<path d="M386.639 417.374H383.342V426.299H386.639V417.374Z" fill="white"/>
<path d="M424.818 417.374H421.521V426.299H424.818V417.374Z" fill="white"/>
<path d="M405.725 417.374H402.427V426.299H405.725V417.374Z" fill="white"/>
<path d="M367.553 417.374H364.256V426.299H367.553V417.374Z" fill="white"/>
<path d="M348.468 417.374H345.17V419.161H348.468V417.374Z" fill="#89ABBF"/>
<path d="M386.639 417.374H383.342V419.161H386.639V417.374Z" fill="#89ABBF"/>
<path d="M424.818 417.374H421.521V419.161H424.818V417.374Z" fill="#89ABBF"/>
<path d="M405.725 417.374H402.427V419.161H405.725V417.374Z" fill="#89ABBF"/>
<path d="M367.553 417.374H364.256V419.161H367.553V417.374Z" fill="#89ABBF"/>
<path d="M428.564 426.299H209.722V433.729H428.564V426.299Z" fill="#A7A9AC"/>
<path d="M428.564 415.761H336.214V417.374H428.564V415.761Z" fill="white"/>
<path d="M292.47 433.729H282.192V485.421H292.47V433.729Z" fill="#BCBEC0"/>
<path d="M356.094 433.729H345.815V485.421H356.094V433.729Z" fill="#BCBEC0"/>
<path d="M292.47 433.729H282.192V436.121H292.47V433.729Z" fill="#D1D3D4"/>
<path d="M356.094 433.729H345.815V436.121H356.094V433.729Z" fill="#D1D3D4"/>
<path d="M235.269 455.12H228.799V477.96H235.269V455.12Z" fill="#445C77"/>
<path d="M235.269 445.393H228.799V453.153H235.269V445.393Z" fill="#445C77"/>
<path d="M258.085 455.12H236.591V477.96H258.085V455.12Z" fill="#445C77"/>
<path d="M258.085 445.393H236.591V453.153H258.085V445.393Z" fill="#445C77"/>
<path d="M265.877 455.12H259.407V477.96H265.877V455.12Z" fill="#445C77"/>
<path d="M265.877 445.393H259.407V453.153H265.877V445.393Z" fill="#445C77"/>
<path d="M227.202 444.055H226.163V481.053H267.395V479.935H227.202V444.055Z" fill="#89ABBF"/>
<path d="M235.269 394.464H228.799V417.303H235.269V394.464Z" fill="#445C77"/>
<path d="M235.269 384.736H228.799V392.496H235.269V384.736Z" fill="#445C77"/>
<path d="M258.085 394.464H236.591V417.303H258.085V394.464Z" fill="#445C77"/>
<path d="M258.085 384.736H236.591V392.496H258.085V384.736Z" fill="#445C77"/>
<path d="M265.877 394.464H259.407V417.303H265.877V394.464Z" fill="#445C77"/>
<path d="M265.877 384.736H259.407V392.496H265.877V384.736Z" fill="#445C77"/>
<path d="M227.202 383.398H226.163V420.396H267.395V419.279H227.202V383.398Z" fill="#89ABBF"/>
<path d="M423.173 307.968H336.214V365.272H423.173V307.968Z" fill="#D1D3D4"/>
<path d="M338.126 307.968H336.214V365.272H338.126V307.968Z" fill="#BCBEC0"/>
<path d="M428.564 304.254H209.722V311.683H428.564V304.254Z" fill="#A7A9AC"/>
<path d="M392.55 321.537H356.22V365.272H392.55V321.537Z" fill="white"/>
<path d="M390.598 323.914H375.44V363.037H390.598V323.914Z" fill="#445C77"/>
<path d="M373.22 323.914H358.062V363.037H373.22V323.914Z" fill="#445C77"/>
<path d="M336.214 312.683L215.113 316.469V311.683H336.214V312.683Z" fill="#89ABBF"/>
<path d="M423.165 313.47L336.214 318.649V311.683H423.165V313.47Z" fill="#BCBEC0"/>
<path d="M348.468 356.348H345.17V365.273H348.468V356.348Z" fill="white"/>
<path d="M386.639 356.348H383.342V365.273H386.639V356.348Z" fill="white"/>
<path d="M424.818 356.348H421.521V365.273H424.818V356.348Z" fill="white"/>
<path d="M405.725 356.348H402.427V365.273H405.725V356.348Z" fill="white"/>
<path d="M367.553 356.348H364.256V365.273H367.553V356.348Z" fill="white"/>
<path d="M348.468 356.348H345.17V358.134H348.468V356.348Z" fill="#89ABBF"/>
<path d="M386.639 356.348H383.342V358.134H386.639V356.348Z" fill="#89ABBF"/>
<path d="M424.818 356.348H421.521V358.134H424.818V356.348Z" fill="#89ABBF"/>
<path d="M405.725 356.348H402.427V358.134H405.725V356.348Z" fill="#89ABBF"/>
<path d="M367.553 356.348H364.256V358.134H367.553V356.348Z" fill="#89ABBF"/>
<path d="M428.564 354.734H336.214V356.348H428.564V354.734Z" fill="white"/>
<path d="M235.269 333.437H228.799V356.277H235.269V333.437Z" fill="#445C77"/>
<path d="M235.269 323.709H228.799V331.469H235.269V323.709Z" fill="#445C77"/>
<path d="M258.085 333.437H236.591V356.277H258.085V333.437Z" fill="#445C77"/>
<path d="M258.085 323.709H236.591V331.469H258.085V323.709Z" fill="#445C77"/>
<path d="M265.877 333.437H259.407V356.277H265.877V333.437Z" fill="#445C77"/>
<path d="M265.877 323.709H259.407V331.469H265.877V323.709Z" fill="#445C77"/>
<path d="M227.202 322.379H226.163V359.37H267.395V358.26H227.202V322.379Z" fill="#89ABBF"/>
<path d="M423.173 246.95H336.214V304.254H423.173V246.95Z" fill="#D1D3D4"/>
<path d="M338.126 246.95H336.214V304.254H338.126V246.95Z" fill="#BCBEC0"/>
<path d="M428.564 243.235H209.722V250.664H428.564V243.235Z" fill="#A7A9AC"/>
<path d="M392.55 260.518H356.22V304.254H392.55V260.518Z" fill="white"/>
<path d="M390.598 262.895H375.44V302.019H390.598V262.895Z" fill="#445C77"/>
<path d="M373.22 262.895H358.062V302.019H373.22V262.895Z" fill="#445C77"/>
<path d="M336.214 251.664L215.113 255.45V250.665H336.214V251.664Z" fill="#89ABBF"/>
<path d="M423.165 252.451L336.214 257.63V250.665H423.165V252.451Z" fill="#BCBEC0"/>
<path d="M348.468 295.329H345.17V304.254H348.468V295.329Z" fill="white"/>
<path d="M386.639 295.329H383.342V304.254H386.639V295.329Z" fill="white"/>
<path d="M424.818 295.329H421.521V304.254H424.818V295.329Z" fill="white"/>
<path d="M405.725 295.329H402.427V304.254H405.725V295.329Z" fill="white"/>
<path d="M367.553 295.329H364.256V304.254H367.553V295.329Z" fill="white"/>
<path d="M348.468 295.329H345.17V297.115H348.468V295.329Z" fill="#89ABBF"/>
<path d="M386.639 295.329H383.342V297.115H386.639V295.329Z" fill="#89ABBF"/>
<path d="M424.818 295.329H421.521V297.115H424.818V295.329Z" fill="#89ABBF"/>
<path d="M405.725 295.329H402.427V297.115H405.725V295.329Z" fill="#89ABBF"/>
<path d="M367.553 295.329H364.256V297.115H367.553V295.329Z" fill="#89ABBF"/>
<path d="M428.564 293.715H336.214V295.329H428.564V293.715Z" fill="white"/>
<path d="M235.269 272.418H228.799V295.258H235.269V272.418Z" fill="#445C77"/>
<path d="M235.269 262.69H228.799V270.451H235.269V262.69Z" fill="#445C77"/>
<path d="M258.085 272.418H236.591V295.258H258.085V272.418Z" fill="#445C77"/>
<path d="M258.085 262.69H236.591V270.451H258.085V262.69Z" fill="#445C77"/>
<path d="M265.877 272.418H259.407V295.258H265.877V272.418Z" fill="#445C77"/>
<path d="M265.877 262.69H259.407V270.451H265.877V262.69Z" fill="#445C77"/>
<path d="M227.202 261.352H226.163V298.351H267.395V297.233H227.202V261.352Z" fill="#89ABBF"/>
<path d="M292.226 394.464H285.757V417.303H292.226V394.464Z" fill="#445C77"/>
<path d="M292.226 384.736H285.757V392.496H292.226V384.736Z" fill="#445C77"/>
<path d="M315.042 394.464H293.549V417.303H315.042V394.464Z" fill="#445C77"/>
<path d="M315.042 384.736H293.549V392.496H315.042V384.736Z" fill="#445C77"/>
<path d="M322.834 394.464H316.365V417.303H322.834V394.464Z" fill="#445C77"/>
<path d="M322.834 384.736H316.365V392.496H322.834V384.736Z" fill="#445C77"/>
<path d="M284.159 383.398H283.12V420.396H324.353V419.279H284.159V383.398Z" fill="#89ABBF"/>
<path d="M292.226 333.437H285.757V356.277H292.226V333.437Z" fill="#445C77"/>
<path d="M292.226 323.709H285.757V331.469H292.226V323.709Z" fill="#445C77"/>
<path d="M315.042 333.437H293.549V356.277H315.042V333.437Z" fill="#445C77"/>
<path d="M315.042 323.709H293.549V331.469H315.042V323.709Z" fill="#445C77"/>
<path d="M322.834 333.437H316.365V356.277H322.834V333.437Z" fill="#445C77"/>
<path d="M322.834 323.709H316.365V331.469H322.834V323.709Z" fill="#445C77"/>
<path d="M284.159 322.379H283.12V359.37H324.353V358.26H284.159V322.379Z" fill="#89ABBF"/>
<path d="M292.226 272.418H285.757V295.258H292.226V272.418Z" fill="#445C77"/>
<path d="M292.226 262.69H285.757V270.451H292.226V262.69Z" fill="#445C77"/>
<path d="M315.042 272.418H293.549V295.258H315.042V272.418Z" fill="#445C77"/>
<path d="M315.042 262.69H293.549V270.451H315.042V262.69Z" fill="#445C77"/>
<path d="M322.834 272.418H316.365V295.258H322.834V272.418Z" fill="#445C77"/>
<path d="M322.834 262.69H316.365V270.451H322.834V262.69Z" fill="#445C77"/>
<path d="M284.159 261.352H283.12V298.351H324.353V297.233H284.159V261.352Z" fill="#89ABBF"/>
<path d="M423.173 185.931H336.214V243.235H423.173V185.931Z" fill="#D1D3D4"/>
<path d="M338.126 185.931H336.214V243.235H338.126V185.931Z" fill="#BCBEC0"/>
<path d="M428.564 182.216H209.722V189.646H428.564V182.216Z" fill="#A7A9AC"/>
<path d="M392.55 199.499H356.22V243.235H392.55V199.499Z" fill="white"/>
<path d="M390.598 201.876H375.44V241H390.598V201.876Z" fill="#445C77"/>
<path d="M373.22 201.876H358.062V241H373.22V201.876Z" fill="#445C77"/>
<path d="M336.214 190.637L215.113 194.431V189.638H336.214V190.637Z" fill="#89ABBF"/>
<path d="M423.165 191.432L336.214 196.611V189.638H423.165V191.432Z" fill="#BCBEC0"/>
<path d="M348.468 234.31H345.17V243.235H348.468V234.31Z" fill="white"/>
<path d="M386.639 234.31H383.342V243.235H386.639V234.31Z" fill="white"/>
<path d="M424.818 234.31H421.521V243.235H424.818V234.31Z" fill="white"/>
<path d="M405.725 234.31H402.427V243.235H405.725V234.31Z" fill="white"/>
<path d="M367.553 234.31H364.256V243.235H367.553V234.31Z" fill="white"/>
<path d="M348.468 234.31H345.17V236.096H348.468V234.31Z" fill="#89ABBF"/>
<path d="M386.639 234.31H383.342V236.096H386.639V234.31Z" fill="#89ABBF"/>
<path d="M424.818 234.31H421.521V236.096H424.818V234.31Z" fill="#89ABBF"/>
<path d="M405.725 234.31H402.427V236.096H405.725V234.31Z" fill="#89ABBF"/>
<path d="M367.553 234.31H364.256V236.096H367.553V234.31Z" fill="#89ABBF"/>
<path d="M428.564 232.697H336.214V234.31H428.564V232.697Z" fill="white"/>
<path d="M235.269 211.399H228.799V234.239H235.269V211.399Z" fill="#445C77"/>
<path d="M235.269 201.672H228.799V209.432H235.269V201.672Z" fill="#445C77"/>
<path d="M258.085 211.399H236.591V234.239H258.085V211.399Z" fill="#445C77"/>
<path d="M258.085 201.672H236.591V209.432H258.085V201.672Z" fill="#445C77"/>
<path d="M265.877 211.399H259.407V234.239H265.877V211.399Z" fill="#445C77"/>
<path d="M265.877 201.672H259.407V209.432H265.877V201.672Z" fill="#445C77"/>
<path d="M227.202 200.334H226.163V237.332H267.395V236.215H227.202V200.334Z" fill="#89ABBF"/>
<path d="M292.226 211.399H285.757V234.239H292.226V211.399Z" fill="#445C77"/>
<path d="M292.226 201.672H285.757V209.432H292.226V201.672Z" fill="#445C77"/>
<path d="M315.042 211.399H293.549V234.239H315.042V211.399Z" fill="#445C77"/>
<path d="M315.042 201.672H293.549V209.432H315.042V201.672Z" fill="#445C77"/>
<path d="M322.834 211.399H316.365V234.239H322.834V211.399Z" fill="#445C77"/>
<path d="M322.834 201.672H316.365V209.432H322.834V201.672Z" fill="#445C77"/>
<path d="M284.159 200.334H283.12V237.332H324.353V236.215H284.159V200.334Z" fill="#89ABBF"/>
<path d="M424.818 173.283H421.521V182.208H424.818V173.283Z" fill="white"/>
<path d="M423.173 124.904H336.214V182.208H423.173V124.904Z" fill="#D1D3D4"/>
<path d="M338.126 124.904H336.214V182.208H338.126V124.904Z" fill="#BCBEC0"/>
<path d="M428.564 121.189H209.722V128.619H428.564V121.189Z" fill="#A7A9AC"/>
<path d="M392.55 138.473H356.22V182.208H392.55V138.473Z" fill="white"/>
<path d="M390.598 140.85H375.44V179.973H390.598V140.85Z" fill="#445C77"/>
<path d="M373.22 140.85H358.062V179.973H373.22V140.85Z" fill="#445C77"/>
<path d="M336.214 129.619L215.113 133.404V128.619H336.214V129.619Z" fill="#89ABBF"/>
<path d="M423.165 130.413L336.214 135.592V128.619H423.165V130.413Z" fill="#BCBEC0"/>
<path d="M348.468 173.283H345.17V182.208H348.468V173.283Z" fill="white"/>
<path d="M386.639 173.283H383.342V182.208H386.639V173.283Z" fill="white"/>
<path d="M405.725 173.283H402.427V182.208H405.725V173.283Z" fill="white"/>
<path d="M367.553 173.283H364.256V182.208H367.553V173.283Z" fill="white"/>
<path d="M348.468 173.283H345.17V175.07H348.468V173.283Z" fill="#89ABBF"/>
<path d="M386.639 173.283H383.342V175.07H386.639V173.283Z" fill="#89ABBF"/>
<path d="M424.818 173.283H421.521V175.07H424.818V173.283Z" fill="#89ABBF"/>
<path d="M405.725 173.283H402.427V175.07H405.725V173.283Z" fill="#89ABBF"/>
<path d="M367.553 173.283H364.256V175.07H367.553V173.283Z" fill="#89ABBF"/>
<path d="M428.564 171.67H336.214V173.283H428.564V171.67Z" fill="white"/>
<path d="M235.269 150.373H228.799V173.212H235.269V150.373Z" fill="#445C77"/>
<path d="M235.269 140.645H228.799V148.405H235.269V140.645Z" fill="#445C77"/>
<path d="M258.085 150.373H236.591V173.212H258.085V150.373Z" fill="#445C77"/>
<path d="M258.085 140.645H236.591V148.405H258.085V140.645Z" fill="#445C77"/>
<path d="M265.877 150.373H259.407V173.212H265.877V150.373Z" fill="#445C77"/>
<path d="M265.877 140.645H259.407V148.405H265.877V140.645Z" fill="#445C77"/>
<path d="M227.202 139.315H226.163V176.305H267.395V175.196H227.202V139.315Z" fill="#89ABBF"/>
<path d="M292.226 150.373H285.757V173.212H292.226V150.373Z" fill="#445C77"/>
<path d="M292.226 140.645H285.757V148.405H292.226V140.645Z" fill="#445C77"/>
<path d="M315.042 150.373H293.549V173.212H315.042V150.373Z" fill="#445C77"/>
<path d="M315.042 140.645H293.549V148.405H315.042V140.645Z" fill="#445C77"/>
<path d="M322.834 150.373H316.365V173.212H322.834V150.373Z" fill="#445C77"/>
<path d="M322.834 140.645H316.365V148.405H322.834V140.645Z" fill="#445C77"/>
<path d="M284.159 139.315H283.12V176.305H324.353V175.196H284.159V139.315Z" fill="#89ABBF"/>
<path d="M423.173 64.0394H336.214V121.343H423.173V64.0394Z" fill="#D1D3D4"/>
<path d="M338.126 64.0394H336.214V121.343H338.126V64.0394Z" fill="#BCBEC0"/>
<path d="M428.564 60.3247H209.722V67.7543H428.564V60.3247Z" fill="#A7A9AC"/>
<path d="M392.55 77.6079H356.22V121.343H392.55V77.6079Z" fill="white"/>
<path d="M390.598 79.9847H375.44V119.108H390.598V79.9847Z" fill="#445C77"/>
<path d="M373.22 79.9847H358.062V119.108H373.22V79.9847Z" fill="#445C77"/>
<path d="M336.214 68.7538L215.113 72.5394V67.7543H336.214V68.7538Z" fill="#89ABBF"/>
<path d="M423.165 69.5487L336.214 74.7274V67.7543H423.165V69.5487Z" fill="#BCBEC0"/>
<path d="M348.468 112.418H345.17V121.343H348.468V112.418Z" fill="white"/>
<path d="M386.639 112.418H383.342V121.343H386.639V112.418Z" fill="white"/>
<path d="M405.725 112.418H402.427V121.343H405.725V112.418Z" fill="white"/>
<path d="M367.553 112.418H364.256V121.343H367.553V112.418Z" fill="white"/>
<path d="M348.468 112.418H345.17V114.205H348.468V112.418Z" fill="#89ABBF"/>
<path d="M386.639 112.418H383.342V114.205H386.639V112.418Z" fill="#89ABBF"/>
<path d="M424.818 112.418H421.521V114.205H424.818V112.418Z" fill="#89ABBF"/>
<path d="M405.725 112.418H402.427V114.205H405.725V112.418Z" fill="#89ABBF"/>
<path d="M367.553 112.418H364.256V114.205H367.553V112.418Z" fill="#89ABBF"/>
<path d="M428.564 110.805H336.214V112.419H428.564V110.805Z" fill="white"/>
<path d="M235.269 89.5079H228.799V112.348H235.269V89.5079Z" fill="#445C77"/>
<path d="M235.269 79.7803H228.799V87.5404H235.269V79.7803Z" fill="#445C77"/>
<path d="M258.085 89.5079H236.591V112.348H258.085V89.5079Z" fill="#445C77"/>
<path d="M258.085 79.7803H236.591V87.5404H258.085V79.7803Z" fill="#445C77"/>
<path d="M265.877 89.5079H259.407V112.348H265.877V89.5079Z" fill="#445C77"/>
<path d="M265.877 79.7803H259.407V87.5404H265.877V79.7803Z" fill="#445C77"/>
<path d="M227.202 78.4501H226.163V115.441H267.395V114.331H227.202V78.4501Z" fill="#89ABBF"/>
<path d="M292.226 89.5079H285.757V112.348H292.226V89.5079Z" fill="#445C77"/>
<path d="M292.226 79.7803H285.757V87.5404H292.226V79.7803Z" fill="#445C77"/>
<path d="M315.042 89.5079H293.549V112.348H315.042V89.5079Z" fill="#445C77"/>
<path d="M315.042 79.7803H293.549V87.5404H315.042V79.7803Z" fill="#445C77"/>
<path d="M322.834 89.5079H316.365V112.348H322.834V89.5079Z" fill="#445C77"/>
<path d="M322.834 79.7803H316.365V87.5404H322.834V79.7803Z" fill="#445C77"/>
<path d="M284.159 78.4501H283.12V115.441H324.353V114.331H284.159V78.4501Z" fill="#89ABBF"/>
<path d="M423.173 3.71472H336.214V61.0187H423.173V3.71472Z" fill="#D1D3D4"/>
<path d="M338.126 3.71472H336.214V61.0187H338.126V3.71472Z" fill="#BCBEC0"/>
<path d="M428.564 0H209.722V7.42961H428.564V0Z" fill="#A7A9AC"/>
<path d="M392.55 17.2832H356.22V61.0187H392.55V17.2832Z" fill="white"/>
<path d="M390.598 19.6602H375.44V58.7836H390.598V19.6602Z" fill="#445C77"/>
<path d="M373.22 19.6602H358.062V58.7836H373.22V19.6602Z" fill="#445C77"/>
<path d="M336.214 8.4291L215.113 12.2147V7.42957H336.214V8.4291Z" fill="#89ABBF"/>
<path d="M423.165 9.224L336.214 14.4027V7.42957H423.165V9.224Z" fill="#BCBEC0"/>
<path d="M348.468 52.0938H345.17V61.0187H348.468V52.0938Z" fill="white"/>
<path d="M386.639 52.0938H383.342V61.0187H386.639V52.0938Z" fill="white"/>
<path d="M405.725 52.0938H402.427V61.0187H405.725V52.0938Z" fill="white"/>
<path d="M367.553 52.0938H364.256V61.0187H367.553V52.0938Z" fill="white"/>
<path d="M348.468 52.0938H345.17V53.8803H348.468V52.0938Z" fill="#89ABBF"/>
<path d="M386.639 52.0938H383.342V53.8803H386.639V52.0938Z" fill="#89ABBF"/>
<path d="M424.818 52.0938H421.521V53.8803H424.818V52.0938Z" fill="#89ABBF"/>
<path d="M405.725 52.0938H402.427V53.8803H405.725V52.0938Z" fill="#89ABBF"/>
<path d="M367.553 52.0938H364.256V53.8803H367.553V52.0938Z" fill="#89ABBF"/>
<path d="M428.564 50.4805H336.214V52.0939H428.564V50.4805Z" fill="white"/>
<path d="M235.269 29.1832H228.799V52.023H235.269V29.1832Z" fill="#445C77"/>
<path d="M235.269 19.4556H228.799V27.2157H235.269V19.4556Z" fill="#445C77"/>
<path d="M258.085 29.1832H236.591V52.023H258.085V29.1832Z" fill="#445C77"/>
<path d="M258.085 19.4556H236.591V27.2157H258.085V19.4556Z" fill="#445C77"/>
<path d="M265.877 29.1832H259.407V52.023H265.877V29.1832Z" fill="#445C77"/>
<path d="M265.877 19.4556H259.407V27.2157H265.877V19.4556Z" fill="#445C77"/>
<path d="M227.202 18.1254H226.163V55.116H267.395V54.0063H227.202V18.1254Z" fill="#89ABBF"/>
<path d="M292.226 29.1832H285.757V52.023H292.226V29.1832Z" fill="#445C77"/>
<path d="M292.226 19.4556H285.757V27.2157H292.226V19.4556Z" fill="#445C77"/>
<path d="M315.042 29.1832H293.549V52.023H315.042V29.1832Z" fill="#445C77"/>
<path d="M315.042 19.4556H293.549V27.2157H315.042V19.4556Z" fill="#445C77"/>
<path d="M322.834 29.1832H316.365V52.023H322.834V29.1832Z" fill="#445C77"/>
<path d="M322.834 19.4556H316.365V27.2157H322.834V19.4556Z" fill="#445C77"/>
<path d="M284.159 18.1254H283.12V55.116H324.353V54.0063H284.159V18.1254Z" fill="#89ABBF"/>
<path d="M376.392 455.12H368.75V477.96H376.392V455.12Z" fill="#445C77"/>
<path d="M376.392 445.393H368.75V453.153H376.392V445.393Z" fill="#445C77"/>
<path d="M403.34 455.12H377.958V477.96H403.34V455.12Z" fill="#445C77"/>
<path d="M403.34 445.393H377.958V453.153H403.34V445.393Z" fill="#445C77"/>
<path d="M412.54 455.12H404.898V477.96H412.54V455.12Z" fill="#445C77"/>
<path d="M412.54 445.393H404.898V453.153H412.54V445.393Z" fill="#445C77"/>
<path d="M366.861 444.055H365.641V481.053H414.343V479.935H366.861V444.055Z" fill="#89ABBF"/>
<path d="M306.96 444.055H306.291V485.413H306.96V444.055Z" fill="#89ABBF"/>
<path d="M331.861 444.055H331.193V485.413H331.861V444.055Z" fill="#89ABBF"/>
<path d="M333.829 440.93H304.331V444.055H333.829V440.93Z" fill="#BCBEC0"/>
<path d="M427.289 365.28H208.447V372.71H427.289V365.28Z" fill="#A7A9AC"/>
<path d="M108.651 502.295H149.978C149.719 501.297 149.246 500.366 148.591 499.57C147.936 498.773 147.114 498.129 146.184 497.683C144.334 496.934 142.27 496.905 140.4 497.604C140.746 497.494 141.187 496.77 141.462 496.471C142.084 495.768 142.494 494.903 142.643 493.976C142.79 492.872 142.527 491.751 141.903 490.828C141.406 490.156 140.735 489.631 139.963 489.311C139.191 488.99 138.346 488.886 137.519 489.01H137.283C136.971 489.066 136.668 489.158 136.378 489.285C135.083 489.923 133.938 490.827 133.017 491.938C132.836 492.15 132.663 492.355 132.498 492.583C132.498 492.583 135.182 490.025 135.811 488.081C138.172 482.572 133.214 474.552 127.075 476.819C124.612 478.007 122.597 480.439 121.267 483.312C126.178 474.898 118.04 469.783 115.144 477.354C116.93 471.113 114.262 464.588 108.847 468.248L108.627 468.358L108.651 502.295Z" fill="#39B54A"/>
<path d="M108.651 502.295H133.001C132.849 501.707 132.569 501.16 132.183 500.691C131.797 500.222 131.314 499.843 130.766 499.58C129.673 499.138 128.455 499.122 127.351 499.533C127.585 498.894 127.583 498.193 127.345 497.556C127.107 496.92 126.648 496.389 126.052 496.062C125.491 495.875 124.894 495.826 124.31 495.919C123.726 496.012 123.174 496.245 122.699 496.597C123.656 495.985 124.352 495.04 124.651 493.945C126.028 490.694 123.124 485.972 119.504 487.31C117.962 488.16 116.754 489.509 116.08 491.135C118.976 486.177 114.176 483.162 112.476 487.625C114.136 482.745 110.901 479.88 108.651 480.982V502.295Z" fill="#39B54A"/>
<path d="M133.899 475.638C133.689 475.836 133.441 475.989 133.171 476.089C132.9 476.189 132.613 476.234 132.325 476.221C132.4 475.538 132.673 474.892 133.112 474.363C133.321 474.164 133.568 474.01 133.839 473.91C134.109 473.81 134.398 473.766 134.686 473.781C134.611 474.464 134.337 475.11 133.899 475.638Z" fill="#39B54A"/>
<path d="M115.112 483.454C114.788 484.07 114.238 484.538 113.577 484.76C113.427 483.967 113.507 483.148 113.806 482.399C114.13 481.782 114.68 481.314 115.34 481.093C115.49 481.885 115.411 482.704 115.112 483.454Z" fill="#39B54A"/>
<path d="M131.915 472.97C132.054 473.933 131.926 474.916 131.545 475.811C130.85 475.213 130.365 474.408 130.16 473.513C130.022 472.55 130.15 471.568 130.53 470.672C131.225 471.271 131.711 472.076 131.915 472.97Z" fill="#39B54A"/>
<path d="M488.387 502.177L487.348 487.098L495.69 477.433L495.179 477.016L490.26 481.234L489.544 477.016L488.765 477.22L488.898 482.47L486.891 484.422L486.136 469.012L490.221 463.951L489.764 463.565L485.53 466.949L485.262 458.89H484.16L483.428 468.791L482.358 478.645L476.849 472.663L476.329 473.01L478.336 476.166L474.834 476.118V476.701L478.659 477.291L482.421 483.178L481.563 502.177H488.387Z" fill="#AD5105"/>
<path d="M452.765 447.628C452.617 445.749 452.913 443.861 453.631 442.119C453.997 441.25 454.57 440.484 455.3 439.887C456.03 439.291 456.894 438.881 457.818 438.695C458.354 438.594 458.907 438.633 459.423 438.81C459.939 438.986 460.4 439.294 460.762 439.702C458.66 437.097 456.748 434.233 455.921 430.99C455.095 427.747 455.504 424.04 457.661 421.475C458.749 420.278 460.118 419.372 461.645 418.838C463.172 418.305 464.808 418.162 466.405 418.421C469.609 418.987 472.504 420.681 474.566 423.198C474.346 418.161 473.181 413.085 474.102 408.127C475.023 403.168 478.966 398.202 484.003 398.422C487.419 398.58 490.299 401.02 492.471 403.656C497.013 409.174 499.759 415.949 500.342 423.072C501.57 421.214 503.048 419.532 504.733 418.075C505.584 417.35 506.573 416.807 507.641 416.478C508.709 416.149 509.832 416.042 510.943 416.162C514.556 416.753 516.854 420.436 517.735 424.033C518.675 427.854 518.542 431.86 517.35 435.61C515.382 441.764 510.762 446.628 506.276 451.311C508.338 450.39 510.935 451.634 511.927 453.672C513.281 456.419 511.99 459.583 510.109 461.771C508.472 463.557 506.498 465.002 504.3 466.021C492.164 472.113 477.384 471.239 465.138 465.934C460.589 463.959 457.417 460.708 454.993 456.348V456.301C453.572 453.628 452.809 450.655 452.765 447.628Z" fill="#39B54A"/>
<path d="M491.755 473.199C492.322 472.545 493.998 472.286 493.967 473.482C494.463 469.775 499.303 471.184 497.044 474.725C500.767 470.853 504.065 475.804 499.248 478.007C503.341 478.094 501.058 483.934 497.461 481.392C497.76 481.553 497.989 481.82 498.103 482.14C498.218 482.46 498.209 482.811 498.081 483.125C497.952 483.44 497.711 483.696 497.405 483.843C497.099 483.991 496.749 484.02 496.423 483.926C492.259 483.241 488.001 476.599 491.755 473.199Z" fill="#39B54A"/>
<path d="M499.028 462.259C499.407 461.283 499.553 460.232 499.453 459.189C499.397 458.669 499.214 458.17 498.92 457.736C498.627 457.303 498.231 456.948 497.768 456.702C497.501 456.559 497.201 456.489 496.898 456.5C496.595 456.511 496.301 456.603 496.045 456.765C497.613 455.767 498.954 454.451 499.98 452.901C500.487 452.119 500.804 451.229 500.907 450.303C501.009 449.376 500.894 448.439 500.57 447.565C500.181 446.755 499.597 446.055 498.87 445.528C498.144 445 497.297 444.662 496.407 444.543C494.614 444.335 492.806 444.773 491.307 445.778C492.228 443.142 493.668 440.623 493.959 437.837C494.25 435.051 492.96 431.785 490.244 431.1C488.403 430.636 486.482 431.478 484.908 432.532C481.621 434.753 479.089 437.925 477.652 441.623C477.296 440.438 476.78 439.307 476.117 438.262C475.781 437.74 475.341 437.293 474.826 436.948C474.31 436.603 473.729 436.367 473.119 436.255C471.104 435.988 469.294 437.577 468.255 439.332C467.15 441.216 466.581 443.366 466.61 445.55C466.681 449.139 468.357 452.476 469.994 455.671C469.487 455.301 468.862 455.131 468.237 455.194C467.613 455.256 467.033 455.547 466.61 456.01C465.453 457.253 465.634 459.158 466.287 460.606C466.879 461.819 467.703 462.904 468.711 463.801C474.22 468.98 482.193 470.885 489.56 470.011C492.195 469.673 494.635 468.446 496.478 466.532C497.656 465.331 498.531 463.866 499.028 462.259Z" fill="#009444"/>
<path d="M512.785 449.627C512.37 450.511 512.27 451.511 512.502 452.46C512.752 453.254 513.268 453.936 513.963 454.393C514.659 454.85 515.49 455.053 516.318 454.967C517.145 454.882 517.918 454.513 518.505 453.924C519.093 453.335 519.459 452.561 519.541 451.733C519.624 450.906 519.419 450.075 518.96 449.381C518.501 448.687 517.816 448.173 517.022 447.925C516.228 447.678 515.372 447.712 514.601 448.022C513.829 448.332 513.187 448.899 512.785 449.627Z" fill="#39B54A"/>
<path d="M516.964 452.303C515.622 452.313 514.323 452.779 513.281 453.625C513.703 454.123 514.22 454.534 514.801 454.832C515.382 455.131 516.017 455.312 516.668 455.365C517.319 455.418 517.974 455.343 518.596 455.143C519.218 454.943 519.795 454.622 520.293 454.2L520.458 454.05C519.523 453.091 518.292 452.475 516.964 452.303Z" fill="#39B54A"/>
<path d="M473.512 477.874C473.539 477.774 473.547 477.67 473.534 477.567C473.521 477.464 473.488 477.365 473.437 477.275C473.386 477.185 473.318 477.106 473.236 477.043C473.154 476.979 473.061 476.933 472.961 476.905C472.861 476.878 472.756 476.871 472.653 476.884C472.55 476.898 472.451 476.931 472.361 476.983C472.271 477.035 472.192 477.104 472.129 477.187C472.066 477.27 472.019 477.364 471.993 477.464C471.954 477.598 471.954 477.74 471.993 477.874C472.484 478.047 473.02 478.047 473.512 477.874Z" fill="#39B54A"/>
<path d="M472.646 475.371C473.211 475.809 473.907 476.042 474.622 476.032C475.226 475.981 475.795 475.724 476.232 475.303C476.669 474.881 476.948 474.322 477.02 473.72C477.093 473.117 476.955 472.508 476.631 471.995C476.306 471.482 475.815 471.097 475.239 470.904C474.664 470.712 474.039 470.723 473.471 470.938C472.904 471.152 472.427 471.556 472.122 472.081C471.818 472.606 471.703 473.22 471.799 473.819C471.894 474.418 472.194 474.966 472.646 475.371Z" fill="#39B54A"/>
<path d="M473.725 433.91C474.451 434.561 475.379 434.945 476.353 434.996C476.383 434.036 476.031 433.104 475.375 432.403C474.718 431.702 473.811 431.29 472.851 431.257H472.702C472.733 432.232 473.094 433.167 473.725 433.91Z" fill="#009444"/>
<path d="M498.076 442.111C497.46 442.391 496.96 442.875 496.659 443.48C496.955 443.622 497.277 443.704 497.605 443.721C497.934 443.738 498.262 443.691 498.572 443.581C498.882 443.471 499.167 443.302 499.411 443.082C499.656 442.862 499.854 442.596 499.996 442.3L500.043 442.189C499.416 441.935 498.721 441.908 498.076 442.111Z" fill="#009444"/>
<path d="M477.494 430.683C477.109 431.979 477.179 433.367 477.691 434.618C478.897 434.1 479.849 433.125 480.336 431.906C480.823 430.686 480.806 429.324 480.288 428.117L480.178 427.881C478.992 428.484 478.046 429.472 477.494 430.683Z" fill="#009444"/>
<path d="M494.172 481.762C494.527 481.801 494.886 481.801 495.242 481.762C495.747 481.707 496.215 481.469 496.556 481.093C496.701 480.921 496.801 480.716 496.847 480.496C496.894 480.277 496.886 480.049 496.824 479.833C496.604 479.227 495.817 479.369 495.454 478.92C495.369 478.786 495.311 478.636 495.284 478.48C495.257 478.323 495.262 478.162 495.297 478.007C495.374 477.698 495.387 477.377 495.336 477.063C495.311 476.906 495.227 476.764 495.102 476.666C494.976 476.568 494.818 476.522 494.66 476.536C494.423 476.591 494.282 476.811 494.124 476.976C494.081 477.03 494.027 477.074 493.967 477.107C493.906 477.139 493.839 477.159 493.77 477.165C493.18 477.165 493.046 476.276 492.432 476.378C491.818 476.481 491.425 477.165 491.252 477.732C491.085 478.216 491.045 478.736 491.136 479.24C491.227 479.744 491.446 480.217 491.771 480.612C492.394 481.289 493.254 481.7 494.172 481.762Z" fill="#009444"/>
<path d="M182.97 502.177L182.223 491.316L188.228 484.359L187.866 484.06L184.316 487.09L183.797 484.06L183.238 484.201L183.34 487.987L181.892 489.388L181.341 478.291L184.285 474.647L183.962 474.363L180.916 476.803L180.719 471.003H179.924L179.397 478.133L178.626 485.224L174.659 480.919L174.281 481.171L175.73 483.446L173.211 483.414V483.831L175.966 484.248L178.673 488.491L178.059 502.177H182.97Z" fill="#AD5105"/>
<path d="M157.313 462.873C157.21 461.515 157.423 460.152 157.935 458.89C158.198 458.263 158.611 457.711 159.138 457.281C159.665 456.852 160.29 456.558 160.957 456.427C161.343 456.357 161.741 456.387 162.111 456.515C162.482 456.643 162.814 456.865 163.074 457.159C161.477 455.332 160.288 453.185 159.587 450.862C159.246 449.703 159.181 448.479 159.399 447.29C159.616 446.101 160.109 444.979 160.839 444.015C161.621 443.152 162.607 442.499 163.707 442.114C164.807 441.729 165.985 441.625 167.135 441.812C169.442 442.221 171.527 443.441 173.014 445.251C172.857 441.623 172.015 437.963 172.684 434.398C173.353 430.832 176.186 427.251 179.814 427.409C182.27 427.519 184.34 429.282 185.906 431.179C189.175 435.154 191.153 440.034 191.573 445.164C192.453 443.825 193.512 442.612 194.721 441.56C195.332 441.037 196.044 440.645 196.813 440.408C197.582 440.171 198.391 440.094 199.191 440.182C201.796 440.607 203.449 443.26 204.086 445.825C204.761 448.577 204.663 451.461 203.803 454.16C202.386 458.591 199.081 462.117 195.83 465.47C196.597 465.2 197.436 465.222 198.187 465.533C198.938 465.844 199.548 466.421 199.899 467.154C200.875 469.13 199.947 471.412 198.593 472.986C197.403 474.272 195.973 475.313 194.382 476.048C185.638 480.439 174.998 479.802 166.183 475.985C163.028 474.588 160.448 472.151 158.871 469.082V469.043C157.879 467.135 157.345 465.023 157.313 462.873Z" fill="#39B54A"/>
<path d="M185.394 481.305C185.804 480.833 187.008 480.644 186.968 481.51C187.323 478.842 190.817 479.849 189.188 482.407C191.864 479.621 194.241 483.194 190.762 484.768C193.713 484.831 192.068 489.042 189.479 487.208C189.696 487.323 189.862 487.515 189.945 487.746C190.028 487.977 190.023 488.231 189.93 488.458C189.837 488.686 189.663 488.87 189.441 488.977C189.22 489.083 188.967 489.103 188.731 489.034C185.756 488.538 182.687 483.753 185.394 481.305Z" fill="#39B54A"/>
<path d="M189.424 474.741C189.785 474.078 189.984 473.339 190.006 472.585C190.016 472.206 189.931 471.832 189.761 471.494C189.591 471.157 189.34 470.866 189.03 470.649C188.852 470.525 188.644 470.45 188.427 470.431C188.211 470.411 187.993 470.448 187.795 470.538C188.998 469.981 190.071 469.177 190.943 468.177C191.372 467.667 191.676 467.065 191.833 466.418C191.99 465.771 191.995 465.096 191.848 464.447C191.641 463.835 191.286 463.284 190.815 462.842C190.344 462.4 189.772 462.081 189.149 461.912C187.885 461.591 186.548 461.739 185.386 462.33C186.292 460.519 187.543 458.859 188.015 456.891C188.487 454.924 187.85 452.476 185.977 451.744C185.32 451.556 184.631 451.506 183.954 451.597C183.277 451.688 182.626 451.917 182.042 452.271C179.485 453.552 177.38 455.581 176.005 458.087C175.863 457.207 175.598 456.352 175.218 455.545C175.024 455.142 174.751 454.783 174.414 454.49C174.077 454.196 173.684 453.974 173.258 453.837C171.842 453.468 170.401 454.436 169.504 455.593C168.538 456.833 167.936 458.319 167.765 459.882C167.481 462.448 168.371 464.99 169.252 467.422C168.925 467.11 168.493 466.931 168.041 466.919C167.588 466.907 167.148 467.064 166.805 467.359C166.392 467.778 166.11 468.309 165.994 468.887C165.878 469.464 165.933 470.062 166.151 470.609C166.459 471.532 166.949 472.383 167.592 473.112C171.031 477.315 176.572 479.408 181.916 479.455C183.83 479.455 185.687 478.802 187.181 477.606C188.147 476.844 188.916 475.861 189.424 474.741Z" fill="#009444"/>
<path d="M200.505 464.336C200.208 464.97 200.135 465.687 200.301 466.367C200.962 466.193 201.528 465.764 201.875 465.174C202.221 464.585 202.321 463.882 202.15 463.219C202.154 463.18 202.154 463.14 202.15 463.101C201.476 463.31 200.894 463.747 200.505 464.336Z" fill="#39B54A"/>
<path d="M203.543 466.257C202.579 466.265 201.647 466.601 200.899 467.209C201.202 467.567 201.573 467.862 201.99 468.077C202.408 468.292 202.863 468.423 203.331 468.461C203.799 468.5 204.27 468.446 204.717 468.303C205.164 468.16 205.578 467.93 205.936 467.626L206.062 467.516C205.391 466.821 204.502 466.376 203.543 466.257Z" fill="#39B54A"/>
<path d="M172.251 484.673C172.316 484.528 172.32 484.364 172.263 484.215C172.206 484.067 172.093 483.947 171.948 483.883C171.803 483.818 171.638 483.813 171.49 483.87C171.341 483.927 171.222 484.04 171.157 484.186C171.122 484.262 171.104 484.345 171.104 484.43C171.104 484.514 171.122 484.597 171.157 484.673C171.511 484.8 171.897 484.8 172.251 484.673Z" fill="#39B54A"/>
<path d="M171.629 482.871C172.039 483.182 172.539 483.351 173.054 483.351C173.035 482.845 172.817 482.366 172.447 482.019C172.077 481.673 171.585 481.487 171.078 481.502H170.992C171.043 482.017 171.268 482.5 171.629 482.871Z" fill="#39B54A"/>
<path d="M172.408 453.011C172.929 453.482 173.596 453.76 174.297 453.798C174.277 453.096 174.019 452.422 173.565 451.886C173.041 451.42 172.376 451.143 171.676 451.099C171.697 451.801 171.955 452.475 172.408 453.011Z" fill="#009444"/>
<path d="M189.943 458.937C189.504 459.145 189.146 459.494 188.928 459.929C189.38 460.109 189.88 460.128 190.345 459.984C190.787 459.777 191.147 459.428 191.368 458.993C190.913 458.813 190.411 458.794 189.943 458.937Z" fill="#009444"/>
<path d="M175.123 450.689C174.85 451.615 174.9 452.606 175.265 453.499C176.133 453.125 176.817 452.422 177.167 451.544C177.517 450.666 177.504 449.685 177.13 448.816C177.109 448.756 177.083 448.699 177.052 448.643C176.195 449.086 175.514 449.808 175.123 450.689Z" fill="#009444"/>
<path d="M187.126 487.459C187.387 487.491 187.651 487.491 187.913 487.459C188.276 487.419 188.611 487.249 188.857 486.979C188.962 486.855 189.034 486.706 189.067 486.547C189.1 486.387 189.093 486.222 189.046 486.066C188.897 485.634 188.33 485.736 188.07 485.413C187.946 485.217 187.904 484.979 187.952 484.752C187.992 484.528 187.992 484.299 187.952 484.075C187.897 483.855 187.685 483.642 187.456 483.697C187.228 483.753 187.189 483.894 187.079 484.012C187.048 484.053 187.009 484.085 186.964 484.109C186.919 484.132 186.869 484.145 186.819 484.146C186.394 484.146 186.299 483.509 185.859 483.587C185.418 483.666 185.135 484.154 185.009 484.563C184.889 484.911 184.861 485.284 184.925 485.646C184.99 486.008 185.146 486.348 185.379 486.633C185.834 487.122 186.459 487.418 187.126 487.459Z" fill="#009444"/>
<path d="M146.515 502.177H140.84L141.911 487.42H145.436L146.515 502.177Z" fill="#0F3554"/>
<path d="M144.602 438.325H142.745V502.169H144.602V438.325Z" fill="#0F3554"/>
<path d="M146.601 438.325H140.746L138.597 427.708H148.758L146.601 438.325Z" fill="#0F3554"/>
<path d="M145.515 436.357H141.832L140.478 429.676H146.869L145.515 436.357Z" fill="white"/>
<path d="M146.601 425.008H140.746L138.597 427.708H148.758L146.601 425.008Z" fill="#0F3554"/>
<path d="M147.042 438.325H140.321C140.25 438.326 140.179 438.313 140.112 438.287C140.046 438.26 139.986 438.221 139.935 438.172C139.883 438.122 139.843 438.063 139.814 437.997C139.786 437.932 139.771 437.861 139.77 437.79C139.77 437.644 139.828 437.504 139.931 437.4C140.035 437.297 140.175 437.239 140.321 437.239H147.042C147.188 437.239 147.328 437.297 147.432 437.4C147.535 437.504 147.593 437.644 147.593 437.79C147.593 437.934 147.536 438.072 147.434 438.174C147.332 438.276 147.194 438.333 147.05 438.333L147.042 438.325Z" fill="#0F3554"/>
<path d="M145.515 487.971H141.848C141.702 487.971 141.562 487.913 141.458 487.81C141.355 487.706 141.297 487.566 141.297 487.42C141.297 487.274 141.355 487.134 141.458 487.031C141.562 486.927 141.702 486.869 141.848 486.869H145.515C145.661 486.869 145.802 486.927 145.905 487.031C146.008 487.134 146.066 487.274 146.066 487.42C146.066 487.566 146.008 487.706 145.905 487.81C145.802 487.913 145.661 487.971 145.515 487.971Z" fill="#0F3554"/>
<path d="M145.279 425.008C145.279 425.32 145.187 425.624 145.014 425.883C144.841 426.142 144.595 426.343 144.307 426.463C144.02 426.582 143.703 426.613 143.398 426.552C143.093 426.491 142.812 426.342 142.592 426.121C142.372 425.901 142.222 425.621 142.161 425.315C142.1 425.01 142.132 424.694 142.251 424.406C142.37 424.118 142.572 423.873 142.831 423.7C143.089 423.527 143.394 423.434 143.705 423.434C144.123 423.434 144.523 423.6 144.818 423.895C145.113 424.191 145.279 424.591 145.279 425.008Z" fill="#0F3554"/>
<path d="M445.958 502.177H440.283L441.361 487.42H444.887L445.958 502.177Z" fill="#0F3554"/>
<path d="M444.053 438.325H442.196V502.169H444.053V438.325Z" fill="#0F3554"/>
<path d="M446.052 438.325H440.197L438.048 427.708H448.201L446.052 438.325Z" fill="#0F3554"/>
<path d="M444.966 436.357H441.283L439.929 429.676H446.32L444.966 436.357Z" fill="white"/>
<path d="M446.052 425.008H440.197L438.048 427.708H448.201L446.052 425.008Z" fill="#0F3554"/>
<path d="M446.493 438.325H439.764C439.62 438.325 439.482 438.268 439.38 438.166C439.278 438.064 439.221 437.926 439.221 437.782C439.22 437.711 439.233 437.64 439.259 437.573C439.285 437.507 439.325 437.447 439.374 437.396C439.424 437.344 439.483 437.304 439.549 437.275C439.614 437.247 439.685 437.232 439.756 437.231H446.493C446.639 437.231 446.779 437.289 446.883 437.392C446.986 437.496 447.044 437.636 447.044 437.782C447.04 437.926 446.98 438.063 446.878 438.164C446.775 438.265 446.637 438.323 446.493 438.325Z" fill="#0F3554"/>
<path d="M444.966 487.971H441.291C441.147 487.967 441.01 487.907 440.908 487.805C440.807 487.702 440.75 487.564 440.748 487.42C440.75 487.276 440.807 487.138 440.908 487.036C441.01 486.933 441.147 486.873 441.291 486.869H444.966C445.111 486.873 445.249 486.933 445.351 487.035C445.454 487.138 445.513 487.275 445.517 487.42C445.513 487.565 445.454 487.703 445.351 487.805C445.249 487.908 445.111 487.967 444.966 487.971Z" fill="#0F3554"/>
<path d="M444.722 425.008C444.722 425.32 444.63 425.624 444.457 425.883C444.284 426.142 444.038 426.343 443.751 426.463C443.463 426.582 443.146 426.613 442.841 426.552C442.536 426.491 442.255 426.342 442.035 426.121C441.815 425.901 441.665 425.621 441.604 425.315C441.544 425.01 441.575 424.694 441.694 424.406C441.813 424.118 442.015 423.873 442.274 423.7C442.533 423.527 442.837 423.434 443.148 423.434C443.566 423.434 443.966 423.6 444.261 423.895C444.556 424.191 444.722 424.591 444.722 425.008Z" fill="#0F3554"/>
<path d="M220.968 391.78C219.412 391.795 217.875 392.127 216.451 392.756C215.272 393.268 213.966 393.414 212.703 393.176C211.44 392.937 210.278 392.325 209.367 391.418C206.222 387.944 201.825 385.863 197.145 385.631C192.465 385.4 187.884 387.037 184.411 390.182C183.481 391.029 182.642 391.971 181.908 392.992C180.168 395.707 177.075 395.455 175.462 395.455C173.375 395.455 171.373 396.284 169.897 397.76C168.421 399.236 167.592 401.238 167.592 403.326H220.968V391.78Z" fill="#CFDDE6"/>
<path d="M208.329 398.139L207.841 397.714C210.438 394.692 214.987 392.913 215.184 392.842L215.412 393.441C215.365 393.456 210.824 395.235 208.329 398.139Z" fill="#ADC9D6"/>
<path d="M183.143 399.28C183.143 399.28 181.774 396.329 176.635 395.739L176.705 395.101C182.215 395.739 183.671 398.887 183.734 399.036L183.143 399.28Z" fill="#ADC9D6"/>
<path d="M525.393 375.173C523.837 375.188 522.3 375.52 520.876 376.149C519.697 376.662 518.391 376.808 517.128 376.57C515.865 376.331 514.703 375.718 513.793 374.811C512.238 373.09 510.36 371.691 508.266 370.696C506.171 369.701 503.901 369.128 501.585 369.01C499.268 368.892 496.952 369.232 494.767 370.01C492.582 370.788 490.572 371.989 488.851 373.544C487.915 374.384 487.073 375.324 486.341 376.346C484.594 379.061 481.508 378.81 479.895 378.81C477.808 378.81 475.806 379.639 474.33 381.115C472.854 382.591 472.025 384.593 472.025 386.68H525.393V375.173Z" fill="white"/>
<path d="M512.754 381.533L512.266 381.108C514.863 378.085 519.412 376.307 519.601 376.236L519.837 376.834C519.79 376.85 515.241 378.66 512.754 381.533Z" fill="#ADC9D6"/>
<path d="M487.568 382.674C487.568 382.674 486.199 379.73 481.059 379.132L481.13 378.495C486.64 379.132 488.096 382.28 488.158 382.43L487.568 382.674Z" fill="#ADC9D6"/>
<path d="M476.817 442.725L473.606 441.623L470.395 442.764L470.49 439.364L468.42 436.664L471.678 435.704L473.606 432.895L475.535 435.704L478.801 436.664L476.755 439.325L476.817 442.725ZM473.606 441.402L476.605 442.473L476.518 439.262L478.462 436.735L475.377 435.83L473.606 433.162L471.788 435.814L468.703 436.72L470.663 439.27L470.576 442.418L473.606 441.402Z" fill="#7A7ABF"/>
<path d="M481.17 442.725L481.264 439.325L479.186 436.625L482.453 435.665L484.381 432.855L486.309 435.665L489.567 436.625L487.498 439.325L487.592 442.725L484.381 441.623L481.17 442.725ZM479.478 436.719L481.477 439.262L481.39 442.41L484.42 441.331L487.419 442.402L487.324 439.191L489.268 436.664L486.199 435.814L484.381 433.162L482.563 435.814L479.478 436.719Z" fill="#7A7ABF"/>
<path d="M491.944 442.725L492.039 439.325L489.961 436.625L493.227 435.665L495.156 432.855L497.076 435.665L500.342 436.625L498.264 439.325L498.359 442.725L495.156 441.623L491.944 442.725ZM490.252 436.719L492.212 439.269L492.126 442.418L495.156 441.339L498.162 442.41L498.068 439.199L500.004 436.672L496.926 435.767L495.108 433.115L493.282 435.767L490.252 436.719Z" fill="#7A7ABF"/>
<path d="M509.133 442.725L505.93 441.623L502.727 442.725L502.821 439.325L500.743 436.625L504.01 435.665L505.938 432.855L507.858 435.665L511.124 436.625L509.023 439.325L509.133 442.725ZM505.93 441.402L508.929 442.473L508.866 439.262L510.802 436.735L507.717 435.83L505.906 433.178L504.088 435.83L501.003 436.735L502.963 439.262L502.876 442.41L505.93 441.402Z" fill="#7A7ABF"/>
<path d="M519.908 442.725L516.696 441.623L513.493 442.764L513.588 439.364L511.51 436.664L514.776 435.704L516.696 432.895L518.625 435.704L521.891 436.664L519.813 439.364L519.908 442.725ZM516.696 441.402L519.695 442.473L519.608 439.262L521.552 436.735L518.467 435.83L516.649 433.178L514.831 435.83L511.754 436.735L513.745 439.262L513.658 442.41L516.696 441.402Z" fill="#7A7ABF"/>
<path d="M554.284 277.085H431.451C416.782 277.085 404.891 288.976 404.891 303.645V580.773C404.891 595.442 416.782 607.333 431.451 607.333H554.284C568.953 607.333 580.844 595.442 580.844 580.773V303.645C580.844 288.976 568.953 277.085 554.284 277.085Z" fill="#1C2F4F"/>
<path d="M554.124 280.163H432.274C419.466 280.163 409.083 290.546 409.083 303.354V580.753C409.083 593.561 419.466 603.944 432.274 603.944H554.124C566.932 603.944 577.315 593.561 577.315 580.753V303.354C577.315 290.546 566.932 280.163 554.124 280.163Z" fill="#273956"/>
<path d="M504.574 293.418H484.772C484.399 293.418 484.042 293.27 483.779 293.006C483.516 292.743 483.368 292.386 483.368 292.014C483.368 291.642 483.516 291.285 483.779 291.021C484.042 290.758 484.399 290.61 484.772 290.61H504.574C504.946 290.61 505.303 290.758 505.566 291.021C505.83 291.285 505.977 291.642 505.977 292.014C505.977 292.386 505.83 292.743 505.566 293.006C505.303 293.27 504.946 293.418 504.574 293.418Z" fill="#101010"/>
<path d="M555.107 287.663H537.22V290.139C537.22 292.889 536.127 295.526 534.183 297.47C532.239 299.414 529.602 300.506 526.852 300.506H460.348C457.598 300.506 454.961 299.414 453.017 297.47C451.073 295.526 449.98 292.889 449.98 290.139V287.663H431.823C427.589 287.663 423.529 289.344 420.536 292.338C417.542 295.331 415.861 299.391 415.861 303.625V581.174C415.839 585.406 417.499 589.473 420.476 592.481C423.452 595.489 427.501 597.193 431.732 597.216H555.147C557.243 597.215 559.318 596.801 561.255 595.998C563.191 595.194 564.95 594.017 566.431 592.534C567.912 591.051 569.087 589.291 569.888 587.354C570.689 585.416 571.1 583.341 571.099 581.244V303.625C571.099 299.391 569.417 295.331 566.424 292.338C563.43 289.344 559.37 287.663 555.137 287.663H555.107Z" fill="white"/>
<path d="M470.296 484.314L440.831 513.778L468.474 541.421L497.939 511.956L470.296 484.314Z" fill="#4B83A8"/>
<path d="M571.069 508.603V453.318L512.435 511.952L540.077 539.605L571.069 508.603Z" fill="#4B83A8"/>
<path d="M477.543 477.071L505.185 504.713L571.068 438.84V383.545L477.543 477.071Z" fill="#4B83A8"/>
<path d="M549.101 391.034L571.069 369.067V347.841H536.999L521.458 363.392L549.101 391.034Z" fill="#4B83A8"/>
<path d="M547.316 546.844L552.169 551.697H571.068V523.082L547.316 546.844Z" fill="#4B83A8"/>
<path d="M433.597 521.016L415.86 538.753V551.697H458.212L461.25 548.659L433.597 521.016Z" fill="#4B83A8"/>
<path d="M449.028 366.049L476.68 393.691L522.521 347.841H467.226L449.028 366.049Z" fill="#4B83A8"/>
<path d="M532.838 546.844L505.186 519.191L472.69 551.697H527.986L532.838 546.844Z" fill="#4B83A8"/>
<path d="M463.065 477.071L435.422 449.428L415.86 468.989V524.275L463.065 477.071Z" fill="#4B83A8"/>
<path d="M514.218 370.629L442.661 442.185L470.304 469.828L541.861 398.272L514.218 370.629Z" fill="#4B83A8"/>
<path d="M452.757 347.841H415.86V384.738L452.757 347.841Z" fill="#4B83A8"/>
<path d="M415.86 399.216V415.388L435.422 434.95L469.441 400.93L441.789 373.288L415.86 399.216Z" fill="#4B83A8"/>
<path d="M415.86 429.866V454.511L428.183 442.189L415.86 429.866Z" fill="#4B83A8"/>
<path d="M449.9 312.618H423.4V339.118H449.9V312.618Z" fill="#024059"/>
<path d="M545.822 316.91H455.585C455.344 316.911 455.105 316.865 454.882 316.774C454.659 316.683 454.456 316.549 454.284 316.379C454.113 316.21 453.977 316.008 453.883 315.786C453.79 315.564 453.741 315.326 453.74 315.085C453.74 314.595 453.934 314.126 454.28 313.78C454.626 313.434 455.095 313.24 455.585 313.24H545.822C546.311 313.24 546.78 313.434 547.126 313.78C547.472 314.126 547.667 314.595 547.667 315.085C547.667 315.571 547.473 316.038 547.129 316.382C546.785 316.726 546.319 316.92 545.832 316.92L545.822 316.91Z" fill="#024059"/>
<path d="M499.089 324.279H455.545C455.056 324.279 454.586 324.084 454.24 323.738C453.894 323.393 453.7 322.923 453.7 322.434C453.7 321.947 453.893 321.481 454.237 321.137C454.581 320.792 455.048 320.599 455.535 320.599H499.089C499.576 320.599 500.043 320.792 500.387 321.137C500.731 321.481 500.924 321.947 500.924 322.434C500.922 322.921 500.728 323.387 500.384 323.732C500.041 324.077 499.576 324.274 499.089 324.279Z" fill="#D1D3D4"/>
<path d="M499.089 331.638H455.545C455.056 331.638 454.586 331.444 454.24 331.098C453.894 330.752 453.7 330.283 453.7 329.793C453.7 329.307 453.893 328.84 454.237 328.496C454.581 328.152 455.048 327.959 455.535 327.959H499.089C499.576 327.959 500.043 328.152 500.387 328.496C500.731 328.84 500.924 329.307 500.924 329.793C500.922 330.28 500.728 330.746 500.384 331.092C500.041 331.437 499.576 331.633 499.089 331.638Z" fill="#D1D3D4"/>
<path d="M499.089 338.998H455.545C455.056 338.998 454.586 338.803 454.24 338.457C453.894 338.111 453.7 337.642 453.7 337.153C453.7 336.666 453.893 336.199 454.237 335.855C454.581 335.511 455.048 335.318 455.535 335.318H499.089C499.576 335.318 500.043 335.511 500.387 335.855C500.731 336.199 500.924 336.666 500.924 337.153C500.922 337.639 500.728 338.106 500.384 338.451C500.041 338.796 499.576 338.992 499.089 338.998Z" fill="#D1D3D4"/>
<path d="M530.051 522.109C543.119 522.109 553.713 511.515 553.713 498.447C553.713 485.378 543.119 474.785 530.051 474.785C516.982 474.785 506.388 485.378 506.388 498.447C506.388 511.515 516.982 522.109 530.051 522.109Z" fill="#87A644"/>
<path d="M530.061 530.952C523.634 530.952 517.351 529.046 512.007 525.476C506.663 521.905 502.498 516.83 500.039 510.892C497.579 504.954 496.936 498.421 498.19 492.117C499.444 485.814 502.538 480.023 507.083 475.479C511.628 470.934 517.418 467.839 523.721 466.586C530.025 465.332 536.558 465.975 542.496 468.435C548.434 470.894 553.509 475.059 557.08 480.403C560.65 485.747 562.556 492.03 562.556 498.457C562.546 507.072 559.119 515.331 553.027 521.423C546.935 527.514 538.676 530.941 530.061 530.952ZM530.061 469.972C524.427 469.972 518.92 471.642 514.235 474.772C509.551 477.902 505.9 482.351 503.744 487.556C501.588 492.761 501.024 498.488 502.123 504.014C503.222 509.539 505.935 514.615 509.919 518.598C513.903 522.582 518.978 525.295 524.504 526.394C530.029 527.493 535.756 526.929 540.961 524.773C546.166 522.617 550.615 518.966 553.745 514.282C556.875 509.598 558.546 504.09 558.546 498.457C558.535 490.905 555.531 483.666 550.191 478.326C544.851 472.987 537.612 469.982 530.061 469.972Z" fill="#87A644"/>
<path d="M547.165 412.651H434.319V454.973H547.165V412.651Z" fill="#273956"/>
<path d="M530.03 445.017L521.451 453.595L530.03 462.174L538.609 453.595L530.03 445.017Z" fill="#273956"/>
<path d="M443.273 422.808H507.933C508.128 422.826 508.326 422.806 508.513 422.747C508.701 422.689 508.875 422.594 509.026 422.468C509.176 422.341 509.3 422.187 509.391 422.012C509.481 421.837 509.535 421.647 509.551 421.451C509.567 421.255 509.544 421.058 509.483 420.871C509.423 420.684 509.325 420.511 509.197 420.362C509.069 420.213 508.912 420.091 508.737 420.003C508.561 419.916 508.369 419.863 508.173 419.85C508.093 419.84 508.013 419.84 507.933 419.85H443.273C443.077 419.832 442.88 419.852 442.692 419.91C442.504 419.969 442.33 420.064 442.18 420.19C442.029 420.316 441.905 420.471 441.815 420.646C441.725 420.82 441.67 421.011 441.654 421.207C441.638 421.403 441.661 421.6 441.722 421.787C441.783 421.974 441.88 422.147 442.009 422.295C442.137 422.444 442.293 422.566 442.469 422.654C442.645 422.742 442.836 422.794 443.032 422.808H443.273Z" fill="white"/>
<path d="M507.933 427.59H443.273C443.077 427.572 442.88 427.592 442.692 427.651C442.504 427.709 442.33 427.804 442.18 427.931C442.029 428.057 441.905 428.212 441.815 428.386C441.725 428.561 441.67 428.752 441.654 428.947C441.638 429.143 441.661 429.34 441.722 429.527C441.783 429.714 441.88 429.887 442.009 430.036C442.137 430.185 442.293 430.307 442.469 430.395C442.645 430.483 442.836 430.535 443.032 430.548H507.933C508.128 430.567 508.326 430.546 508.513 430.488C508.701 430.429 508.875 430.334 509.026 430.208C509.176 430.082 509.3 429.927 509.391 429.752C509.481 429.578 509.535 429.387 509.551 429.191C509.567 428.995 509.544 428.798 509.483 428.611C509.423 428.425 509.325 428.252 509.197 428.103C509.069 427.954 508.912 427.832 508.737 427.744C508.561 427.656 508.369 427.604 508.173 427.59H507.933Z" fill="white"/>
<path d="M449.609 440.083L447.774 437.406L445.94 440.083L442.831 440.996L444.807 443.562L444.716 446.811L447.774 445.718L450.832 446.811L450.742 443.562L452.717 440.996L449.609 440.083Z" fill="#024059"/>
<path d="M463.335 440.083L461.501 437.406L459.666 440.083L456.558 440.996L458.533 443.562L458.443 446.811L461.501 445.718L464.559 446.811L464.468 443.562L466.444 440.996L463.335 440.083Z" fill="#024059"/>
<path d="M477.061 440.083L475.226 437.406L473.391 440.083L470.283 440.996L472.258 443.562L472.168 446.811L475.226 445.718L478.274 446.811L478.194 443.562L480.169 440.996L477.061 440.083Z" fill="#024059"/>
<path d="M490.777 440.083L488.953 437.406L487.118 440.083L484 440.996L485.985 443.562L485.895 446.811L488.953 445.718L492.001 446.811L491.91 443.562L493.896 440.996L490.777 440.083Z" fill="#024059"/>
<path d="M504.504 440.083L502.669 437.406L500.834 440.083L497.726 440.996L499.701 443.562L499.621 446.811L502.669 445.718L505.727 446.811L505.637 443.562L507.612 440.996L504.504 440.083Z" fill="#F1F2F2"/>
<path d="M538.192 419.85H517.618C515.541 419.85 513.858 421.533 513.858 423.61V444.184C513.858 446.261 515.541 447.944 517.618 447.944H538.192C540.268 447.944 541.952 446.261 541.952 444.184V423.61C541.952 421.533 540.268 419.85 538.192 419.85Z" fill="white"/>
<path d="M528.156 423.43L519.002 432.584H522.24V442.219H526.09V435.291H530.231V442.219H534.081V432.584H537.32L528.156 423.43Z" fill="#273956"/>
<path d="M143.916 215.339C143.916 215.339 136.833 217.881 135.755 224.988C134.677 232.095 122.021 229.45 122.021 229.45C122.021 229.45 122.021 207.925 125.366 204.218C128.711 200.511 143.916 215.339 143.916 215.339Z" fill="#F7A79E"/>
<path d="M147.623 186.816C147.623 186.816 149.851 196.088 150.968 196.835C152.086 197.583 155.407 199.063 155.045 200.164C154.19 201.736 153.194 203.227 152.07 204.619C152.07 204.619 152.707 214.221 151.59 215.331C150.472 216.44 148.363 217.235 143.971 217.235C139.58 217.235 134.315 215.756 132.835 213.52L129.86 209.082C129.86 209.082 127.318 209.081 127.318 205.375C127.318 201.668 125.468 196.835 129.86 191.633C134.252 186.431 143.539 183.81 147.623 186.816Z" fill="#FFCDC6"/>
<path d="M148.261 198.338C148.41 199.338 148.261 200.188 147.867 200.251C147.474 200.314 147.08 199.527 146.939 198.535C146.797 197.544 146.939 196.67 147.324 196.623C147.71 196.575 148.08 197.331 148.261 198.338Z" fill="#273956"/>
<path d="M144.452 195.71H144.31C144.213 195.673 144.135 195.599 144.093 195.505C144.05 195.411 144.046 195.303 144.082 195.206C144.483 194.084 145.3 193.16 146.364 192.625C146.706 192.505 147.07 192.461 147.431 192.498C147.791 192.535 148.139 192.651 148.45 192.837C148.542 192.887 148.61 192.972 148.639 193.072C148.669 193.173 148.657 193.281 148.607 193.372C148.557 193.464 148.473 193.532 148.372 193.562C148.272 193.591 148.164 193.58 148.072 193.53C147.861 193.397 147.623 193.313 147.375 193.284C147.127 193.256 146.876 193.283 146.64 193.365C145.795 193.824 145.149 194.578 144.822 195.482C144.788 195.551 144.735 195.609 144.67 195.649C144.604 195.689 144.529 195.71 144.452 195.71Z" fill="#273956"/>
<path d="M121.273 221.281C121.273 221.281 124.618 219.431 130.93 222.02C137.242 224.61 144.31 228.372 145.388 228.694C146.466 229.017 148.363 230.182 145.774 230.93C142.604 231.701 139.373 232.196 136.117 232.409C134.637 232.409 126.468 228.332 123.524 228.332H119.07C119.07 228.332 118.314 222.398 121.273 221.281Z" fill="#87A644"/>
<path d="M30.2372 449.143C26.727 464.655 22.2173 484.804 19.6201 487.708C15.9131 491.808 8.48353 493.272 3.2891 498.844C-1.90532 504.416 -0.787734 505.928 5.51641 505.526C11.8206 505.125 18.5025 502.189 22.54 501.386C26.5775 500.584 28.8913 501.016 29.9696 496.94C31.0478 492.863 27.4275 491.367 30.3395 484.347C31.9135 480.577 38.2728 467.032 45.1672 453.401C46.1825 451.402 47.2135 449.395 48.2366 447.427" fill="#FFCDC6"/>
<path d="M234.787 204.698C233.355 206.272 229.837 208.633 228.302 209.924L228.239 209.979C224.902 212.954 192.571 237.21 178.089 242.405C163.608 247.599 137.282 255.784 137.282 255.784C137.887 259.461 138.132 263.188 138.014 266.913C137.967 267.395 137.864 267.871 137.707 268.33C137.597 268.684 137.463 269.054 137.297 269.447C137.14 269.833 136.967 270.234 136.762 270.651C136.369 271.486 135.897 272.375 135.377 273.272L134.59 274.626L134.181 275.318C133.897 275.767 133.614 276.224 133.331 276.664C132.764 277.562 132.19 278.427 131.647 279.238L130.86 280.395L130.49 280.938C129.404 282.512 128.577 283.653 128.373 283.968C128.307 284.08 128.255 284.199 128.215 284.322C127.357 286.841 125.413 299.189 125.413 299.189C125.421 299.453 125.447 299.716 125.492 299.976C125.964 304.588 128.294 327.365 130.608 343.31L74.9092 328.553C77.8842 317.047 83.4564 311.475 89.3828 300.716C95.3092 289.957 97.5365 285.873 97.5365 279.938C97.5365 274.004 91.9722 259.224 91.9722 259.224C91.9722 259.224 63.7806 284.81 58.9167 288.895C54.0528 292.98 50.3852 310.05 47.4181 313.025C45.6736 314.78 43.6856 316.275 41.5154 317.464C41.5154 317.464 41.3737 321.675 39.1543 321.675C38.4089 321.602 37.6893 321.363 37.048 320.976C36.4067 320.59 35.8598 320.065 35.4473 319.44C35.4473 319.44 40.3978 295.191 47.0797 285.196C53.7616 275.2 81.1976 237.753 83.8027 234.747C86.4078 231.74 91.9722 230.245 98.2763 228.395C104.58 226.546 113.86 224.689 123.879 226.908C130.039 228.323 135.847 230.977 140.949 234.707C142.051 234.707 162.089 232.063 167.307 229.844C178.012 225.28 188.428 220.068 198.497 214.237C214.081 205.335 231.151 196.796 231.151 196.796L233.371 200.503C233.668 200.718 233.947 200.958 234.205 201.219C234.481 201.492 234.724 201.796 234.929 202.124C235.214 202.5 235.357 202.966 235.331 203.437C235.305 203.908 235.112 204.355 234.787 204.698Z" fill="#87A644"/>
<path d="M113.639 464.325C116.488 473.242 119.054 481.64 119.755 485.378C121.211 493.146 118.291 498.309 119.755 500.56C121.218 502.811 135.22 504.991 138.903 505.369C142.586 505.746 152.157 506.84 152.881 504.259C153.605 501.678 146.262 501.3 141.469 496.121C137.534 491.84 131.167 485.402 128.963 475.784C128.325 472.998 127.625 468.26 126.987 462.711" fill="#FFCDC6"/>
<path d="M23.4057 489.227C20.1159 489.227 15.1733 491.871 15.1733 491.871L16.0548 490.462C12.2455 492.823 7.16128 494.704 3.35203 498.813C-1.8424 504.377 -0.724809 505.896 5.57934 505.495C11.8835 505.093 18.5024 502.158 22.5399 501.355C26.5774 500.552 28.8913 500.985 29.9695 496.908C30.6779 494.271 29.4029 492.705 29.1825 490.037C27.3005 489.516 25.3584 489.244 23.4057 489.227Z" fill="#87A644"/>
<path d="M29.9616 497.128C26.7863 496.107 23.4321 495.764 20.1158 496.121C13.7917 496.877 7.585 498.41 1.63626 500.686C-1.51188 504.7 -0.000770333 505.762 5.44551 505.471C11.7969 505.093 18.4394 502.134 22.5163 501.378C26.5931 500.623 28.8913 501.008 29.9616 497.128Z" fill="#273956"/>
<path d="M28.8913 499.387C27.6242 498.97 24.7358 498.435 18.5182 499.104C12.1383 499.796 5.92046 501.558 0.125183 504.314C0.495089 505.384 2.35249 505.676 5.56359 505.494C11.915 505.117 18.5575 502.157 22.6344 501.402C25.5621 500.843 27.6242 500.914 28.8913 499.387Z" fill="white"/>
<path opacity="0.5" d="M29.2219 489.636C29.2343 487.797 29.6423 485.983 30.4182 484.315C32.1654 480.16 39.6973 464.175 47.3473 449.269L40.3585 450.182C40.3585 450.182 31.1502 473.006 27.9784 481.293C26.79 484.386 25.8534 486.905 24.9798 488.967" fill="#E9B8AF"/>
<path d="M141.681 496.278C140.06 494.523 138.037 492.469 136.054 489.927C134.787 490.981 133.85 492.377 133.354 493.949C133.354 493.949 124.792 492.682 121.832 490.989C121.327 490.705 120.784 490.493 120.219 490.36C120.219 495.515 118.645 499.017 119.786 500.78C121.274 503.007 135.385 505.227 139.092 505.613C142.799 505.998 152.472 507.084 153.188 504.495C153.904 501.906 146.506 501.355 141.681 496.278Z" fill="#87A644"/>
<path d="M153.196 504.377C153.242 504.218 153.255 504.051 153.233 503.887C153.211 503.723 153.156 503.566 153.07 503.425C149.032 504.361 143.035 503.425 134.677 501.732L119.353 498.655C119.251 499.388 119.392 500.135 119.754 500.78C121.242 503.007 135.353 505.227 139.06 505.613C142.767 505.998 152.959 507.218 153.196 504.377Z" fill="#273956"/>
<path opacity="0.5" d="M136.054 489.927C132.71 485.822 130.318 481.027 129.049 475.886C127.624 468.251 126.626 460.541 126.059 452.795L121.423 455.337C121.423 455.337 123.957 477.602 126.499 483.961C127.53 486.535 130.545 489.636 133.89 492.666C134.234 491.999 134.659 491.378 135.157 490.816C135.436 490.5 135.736 490.203 136.054 489.927Z" fill="#E9B8AF"/>
<path opacity="0.2" d="M88.3596 239.76C88.9573 242.613 90.2612 245.27 92.1518 247.487C94.0425 249.705 96.4595 251.413 99.1813 252.455C108.712 256.264 124.579 253.73 132.882 248C141.185 242.271 136.117 232.464 136.117 232.464L132.245 227.034C132.245 227.034 111.892 245.419 88.3596 239.76Z" fill="black"/>
<path opacity="0.2" d="M47.4417 312.931C50.4167 309.956 54.1236 292.893 58.9482 288.8C63.4421 284.991 88.155 262.537 91.5707 259.483L88.3596 253.053C81.0557 258.811 74.2572 265.183 68.0384 272.099C58.4917 282.921 47.0482 289.918 47.7329 296.214C48.4176 302.51 41.5862 317.291 41.5862 317.291C43.7332 316.12 45.7045 314.652 47.4417 312.931Z" fill="black"/>
<path opacity="0.2" d="M234.787 204.698C233.355 206.272 229.837 208.633 228.302 209.924L228.239 209.971C224.902 212.938 192.571 237.194 178.089 242.389C163.608 247.583 137.282 255.768 137.282 255.768C137.887 259.445 138.132 263.173 138.014 266.897C137.967 267.38 137.864 267.855 137.707 268.314C137.596 268.668 137.455 269.038 137.297 269.431C137.14 269.817 136.959 270.218 136.762 270.636C136.361 271.47 135.889 272.351 135.377 273.256L134.59 274.61L134.181 275.303L133.331 276.649C132.764 277.546 132.19 278.411 131.646 279.222L130.859 280.379L130.49 280.922C129.396 282.496 128.577 283.622 128.372 283.936C128.305 284.053 128.253 284.177 128.215 284.306C127.357 286.825 125.413 299.173 125.413 299.173C125.467 299.432 125.493 299.696 125.492 299.96C122.74 299.332 120.101 298.284 117.669 296.852C113.962 294.223 117.031 284.157 117.669 280.324C118.306 276.491 120.817 272.068 120.203 270.163C118.771 266.229 116.614 262.599 113.844 259.46C110.696 256.272 121.525 258.161 124.65 256.272C127.774 254.383 148.749 247.379 157.705 244.844C166.662 242.31 171.675 235.345 173.603 233.409C175.532 231.473 165.985 243.569 165.985 243.569C176.794 239.988 186.909 234.582 195.892 227.585C210.539 216.126 233.985 201.133 233.985 201.133L234.229 201.203C235.047 202.022 235.968 203.407 234.787 204.698Z" fill="black"/>
<path d="M137.091 255.413L124.479 260.242L124.76 260.977L137.373 256.148L137.091 255.413Z" fill="#87A644"/>
<path d="M133.974 256.989L124.332 267.012L124.9 267.557L134.541 257.535L133.974 256.989Z" fill="#87A644"/>
<g opacity="0.2">
<path d="M91.9642 259.515C91.8894 259.515 91.8161 259.494 91.7532 259.453C91.6903 259.413 91.6406 259.355 91.61 259.287L85.9591 246.946C85.9366 246.901 85.9234 246.851 85.9204 246.801C85.9173 246.75 85.9244 246.7 85.9413 246.652C85.9582 246.604 85.9845 246.56 86.0187 246.523C86.0528 246.486 86.0941 246.455 86.1402 246.434C86.2344 246.39 86.342 246.385 86.4404 246.418C86.5387 246.452 86.6202 246.523 86.6675 246.615L92.3184 258.964C92.3589 259.059 92.361 259.166 92.3244 259.263C92.2877 259.36 92.2151 259.439 92.1216 259.483C92.0717 259.504 92.0182 259.515 91.9642 259.515Z" fill="black"/>
</g>
<path d="M152.409 184.621C149.062 188.384 145.291 191.746 141.17 194.64C134.622 199.173 131.104 196.914 132.135 205.383C133.166 213.851 140.335 226.821 134.086 236.927C127.837 247.032 116.063 254.808 95.5689 246.072C75.0745 237.336 72.4458 215.59 81.5046 207.043C90.5634 198.496 98.3235 197.906 102.755 191.011C107.186 184.117 104.242 172.516 115.725 168.518C127.208 164.52 136.975 168.172 139.926 167.817C142.878 167.463 142.468 160.781 151.684 163.032C160.901 165.283 161.326 181.347 152.409 184.621Z" fill="#273956"/>
<path d="M151.33 170.525C151.33 170.525 159.523 170.21 158.587 175.884C157.65 181.559 155.738 181.559 145.994 183.755C136.251 185.951 125.531 186.297 123.304 195.726C121.077 205.154 127.703 220.328 127.113 231.677C126.523 243.026 119.495 247.135 111.971 248.071" stroke="white" stroke-width="0.5" stroke-linecap="round" stroke-linejoin="round"/>
<path d="M132.733 199.527C132.733 199.527 125.783 203.95 126.098 219.085" stroke="white" stroke-width="0.5" stroke-linecap="round" stroke-linejoin="round"/>
<path d="M145.018 179.033C145.018 179.033 132.733 173.673 124.555 180.607C116.378 187.54 118.881 196.347 115.733 205.839C112.585 215.331 104.344 230.103 92.043 233.59C79.7417 237.076 75.9639 220.021 81.3236 217.511C86.6833 215 92.3421 218.778 90.2171 223.862" stroke="white" stroke-width="0.5" stroke-linecap="round" stroke-linejoin="round"/>
<path d="M38.139 332.229C38.139 332.229 38.926 338.061 38.3909 340.099L37.8793 342.13C37.8793 342.13 36.3603 343.405 36.1006 333C36.1006 332.992 37.1237 330.71 38.139 332.229Z" fill="#F7A79E"/>
<path d="M36.6121 335.283C36.6121 335.283 37.3991 341.107 36.8639 343.153L36.3602 345.191C36.3602 345.191 34.8491 346.459 34.5894 336.054C34.5894 336.038 35.6126 333.732 36.6121 335.283Z" fill="#F7A79E"/>
<path d="M35.3528 337.313C35.3528 337.313 36.1399 343.137 35.6125 345.183L35.1403 347.19C35.1403 347.19 33.6135 348.458 33.3616 338.061C33.3223 338.061 34.3533 335.786 35.3528 337.313Z" fill="#F7A79E"/>
<path d="M40.4214 321.029C42.0411 322.963 43.4035 325.097 44.4747 327.381C45.7418 330.419 47.7723 332.953 49.2992 333.732C50.826 334.511 51.5737 335.511 49.0473 335.511C46.5209 335.511 45.9936 333.22 44.4747 332.717C42.8941 332.362 41.2779 332.19 39.658 332.205C38.2095 333.506 37.0048 335.054 36.1006 336.778C35.3136 338.801 34.3377 339.32 34.3377 342.35C34.3377 345.38 33.5506 349.969 32.8187 347.67C31.8277 344.473 31.48 341.11 31.7955 337.777C32.3071 334.999 34.3377 322.824 34.5895 321.816C34.8281 320.956 35.1145 320.11 35.4474 319.282C35.4474 319.282 37.6275 321.848 40.4214 321.029Z" fill="#FFCDC6"/>
<path d="M39.658 332.229C40.0696 331.506 40.3276 330.705 40.4156 329.878C40.5036 329.05 40.4199 328.214 40.1695 327.42" stroke="#F7A79E" stroke-linecap="round" stroke-linejoin="round"/>
<path d="M92.8695 294.262C91.8778 296.128 90.7209 298.197 89.375 300.677C83.4329 311.443 77.8686 317.008 74.9015 328.514C71.9344 340.021 69.707 355.179 69.707 355.179C69.707 355.179 57.8307 396.034 55.5404 402.306C53.2502 408.579 36.99 422.714 33.9521 433.465C32.9683 437.07 31.4178 443.909 29.6785 451.567C32.1954 450.717 34.9066 450.624 37.4755 451.301C40.0444 451.979 42.3578 453.396 44.1284 455.376C50.3775 442.941 57.2325 430.089 61.4432 424.273C69.9746 412.404 78.5061 398.3 81.851 390.509C85.1959 382.717 96.3246 355.257 97.4264 351.944C98.5282 348.631 98.544 347.505 99.9685 351.212C101.393 354.919 110.538 393.484 110.2 402.779C109.862 412.073 102.038 427.964 105.336 438.667C107.115 444.397 110.688 455.061 113.844 464.97C118.333 464.951 122.802 464.367 127.145 463.231C125.531 449.528 124.296 430.553 125.366 423.879C126.854 414.592 128.703 388.258 129.073 383.795C129.443 379.333 133.15 361.168 130.561 343.35C127.971 325.531 125.405 299.189 125.405 299.189C125.405 299.189 109.594 292.539 92.8695 294.262Z" fill="#024059"/>
<path d="M98.4416 350.299L89.6426 343.625" stroke="white" stroke-width="0.5" stroke-linecap="round" stroke-linejoin="round"/>
<path d="M121.336 299.598C121.336 299.598 125.555 321.423 127.318 339.391C129.081 357.359 124.862 392.232 125.555 401.024C126.247 409.815 121.683 422.494 121.336 434.126C121.298 443.652 121.768 453.173 122.745 462.648" stroke="white" stroke-width="0.5" stroke-linecap="round" stroke-linejoin="round"/>
<path d="M32.2441 451.032C32.2441 451.032 37.8714 429.184 43.8607 420.03C47.0855 415.012 50.6154 410.197 54.4306 405.612" stroke="white" stroke-width="0.5" stroke-linecap="round" stroke-linejoin="round"/>
<path d="M266.592 196.347C265.946 196.686 257.698 194.86 255.573 194.836C255.471 194.836 256.722 195.387 256.84 195.505C258.26 195.964 259.72 196.291 261.2 196.481C263.349 196.646 266.961 197.969 265.812 198.63C264.418 199.435 262.782 199.714 261.2 199.417C259.296 199.055 254.904 197.843 254.636 197.788C255.054 197.961 262.507 201.07 260.705 201.07C258.737 201.092 256.782 200.756 254.936 200.078C253.464 199.417 250.827 198.441 250.827 198.441L244.082 199.086H243.964L243.091 199.283C241.635 199.59 240.887 200.33 238.817 200.621C237.385 200.818 236.22 201.66 235.094 202.195C235.049 202.163 235.007 202.126 234.968 202.085C234.763 201.756 234.52 201.452 234.244 201.18C233.987 200.918 233.708 200.679 233.41 200.464L231.191 196.757C231.742 196.316 239.785 189.894 243.35 187.745C247.049 185.526 251.504 180.331 252.244 182.189C252.984 184.046 249.497 187.596 249.497 187.596C249.497 187.596 253.716 187.013 255.581 187.013C257.446 187.013 266.34 189.965 266.34 189.965C266.34 189.965 267.339 192.027 263.798 191.444C262.342 191.216 258.391 190.004 255.479 190.374C252.567 190.744 252.574 190.956 252.574 190.956L265.655 194.041C266.009 194.266 266.336 194.53 266.631 194.828C266.765 195.474 266.946 196.166 266.592 196.347Z" fill="#FFCDC6"/>
<path d="M255.549 195.246H255.408C254.196 194.774 252.945 194.411 251.669 194.159C251.567 194.14 251.477 194.082 251.418 193.996C251.359 193.911 251.336 193.805 251.355 193.703C251.376 193.6 251.436 193.51 251.523 193.451C251.609 193.392 251.716 193.37 251.819 193.388C253.143 193.649 254.441 194.026 255.699 194.514C255.795 194.554 255.871 194.63 255.912 194.725C255.953 194.82 255.956 194.928 255.919 195.025C255.886 195.094 255.833 195.151 255.767 195.19C255.702 195.23 255.626 195.249 255.549 195.246Z" fill="#F7A79E"/>
<path d="M254.574 198.244C254.496 198.244 254.42 198.222 254.353 198.181C253.374 197.515 252.317 196.97 251.205 196.56C251.11 196.522 251.033 196.449 250.991 196.356C250.949 196.262 250.944 196.156 250.979 196.06C251.014 195.964 251.085 195.885 251.177 195.84C251.269 195.795 251.375 195.788 251.473 195.82C252.657 196.254 253.785 196.827 254.833 197.528C254.92 197.586 254.98 197.675 255 197.777C255.021 197.879 255 197.984 254.943 198.071C254.902 198.13 254.847 198.177 254.782 198.207C254.717 198.237 254.645 198.25 254.574 198.244Z" fill="#F7A79E"/>
<path opacity="0.5" d="M93.932 264.733L94.0894 264.465L93.381 263.001L93.932 264.733Z" fill="#92E3A9"/>
<path d="M182.325 331.398H168.851V502.437H182.325V331.398Z" fill="#F5F1EC"/>
<path d="M182.325 331.398H178.091V502.437H182.325V331.398Z" fill="#E9B8AF"/>
<path d="M259.391 341.425H146.428V353.31H259.391V341.425Z" fill="#F5F1EC"/>
<path d="M259.391 350.539H146.428V353.31H259.391V350.539Z" fill="#E9B8AF"/>
<path d="M259.391 341.425H256.416V353.31H259.391V341.425Z" fill="#E9B8AF"/>
<path d="M262.823 365.705H192.611V416.91H262.823V365.705Z" fill="#F5F1EC"/>
<path d="M259.202 368.35H196.232V414.273H259.202V368.35Z" fill="#87A644"/>
<path d="M206.912 351.193H205.361V367.626H206.912V351.193Z" fill="#F5F1EC"/>
<path d="M252.442 351.193H250.891V367.626H252.442V351.193Z" fill="#F5F1EC"/>
<path d="M211.91 503.287H148.561C151.481 498.092 154.731 492.882 159.792 489.781C162.233 488.289 164.981 487.37 167.829 487.094C170.677 486.819 173.551 487.194 176.232 488.192C178.914 489.189 181.334 490.783 183.31 492.853C185.286 494.922 186.765 497.414 187.637 500.139C189.424 494.63 194.721 491.922 200.435 492.449C203.261 492.774 205.907 494.005 207.976 495.958C210.045 497.912 211.425 500.483 211.91 503.287Z" fill="#009444"/>
<path d="M138.841 280.178C138.541 280.632 138.094 280.969 137.574 281.131C137.069 281.306 136.533 281.373 136 281.327C135.476 281.289 134.961 281.17 134.473 280.973C133.99 280.784 133.541 280.518 133.143 280.186C133.67 280.226 134.151 280.312 134.631 280.391C135.102 280.474 135.577 280.527 136.055 280.548C136.516 280.595 136.98 280.595 137.44 280.548C137.924 280.5 138.397 280.375 138.841 280.178Z" fill="white"/>
<path d="M209.989 395.103H206.198L205.59 396.936H203L206.675 386.562H209.54L213.216 396.936H210.597L209.989 395.103ZM209.352 393.153L208.093 389.355L206.849 393.153H209.352Z" fill="#F5F1EC"/>
<path d="M216.809 386V396.936H214.334V386H216.809Z" fill="#F5F1EC"/>
<path d="M226.575 388.69V396.936H224.1V395.813C223.849 396.177 223.507 396.473 223.073 396.7C222.648 396.916 222.176 397.025 221.655 397.025C221.037 397.025 220.492 396.887 220.02 396.611C219.547 396.325 219.18 395.916 218.92 395.384C218.66 394.852 218.529 394.227 218.529 393.507V388.69H220.989V393.167C220.989 393.719 221.129 394.148 221.409 394.453C221.689 394.759 222.065 394.911 222.537 394.911C223.02 394.911 223.401 394.759 223.681 394.453C223.96 394.148 224.1 393.719 224.1 393.167V388.69H226.575Z" fill="#F5F1EC"/>
<path d="M231.419 388.571C231.989 388.571 232.485 388.69 232.91 388.926C233.344 389.163 233.677 389.473 233.908 389.857V388.69H236.383V396.921C236.383 397.68 236.233 398.365 235.934 398.975C235.645 399.596 235.196 400.089 234.588 400.453C233.99 400.818 233.243 401 232.346 401C231.149 401 230.18 400.709 229.437 400.128C228.694 399.557 228.27 398.778 228.164 397.793H230.609C230.686 398.108 230.87 398.355 231.159 398.532C231.448 398.719 231.805 398.813 232.23 398.813C232.741 398.813 233.146 398.66 233.445 398.355C233.754 398.059 233.908 397.581 233.908 396.921V395.754C233.667 396.138 233.334 396.453 232.91 396.7C232.485 396.936 231.989 397.054 231.419 397.054C230.754 397.054 230.151 396.882 229.611 396.537C229.071 396.182 228.641 395.685 228.323 395.044C228.014 394.394 227.86 393.645 227.86 392.798C227.86 391.951 228.014 391.207 228.323 390.567C228.641 389.926 229.071 389.433 229.611 389.089C230.151 388.744 230.754 388.571 231.419 388.571ZM233.908 392.813C233.908 392.182 233.735 391.685 233.387 391.32C233.05 390.956 232.635 390.773 232.143 390.773C231.651 390.773 231.231 390.956 230.884 391.32C230.546 391.675 230.378 392.167 230.378 392.798C230.378 393.429 230.546 393.931 230.884 394.305C231.231 394.67 231.651 394.852 232.143 394.852C232.635 394.852 233.05 394.67 233.387 394.305C233.735 393.941 233.908 393.443 233.908 392.813Z" fill="#F5F1EC"/>
<path d="M237.681 392.798C237.681 391.951 237.835 391.207 238.144 390.567C238.462 389.926 238.891 389.433 239.432 389.089C239.972 388.744 240.575 388.571 241.24 388.571C241.809 388.571 242.306 388.69 242.731 388.926C243.165 389.163 243.498 389.473 243.729 389.857V388.69H246.203V396.936H243.729V395.768C243.488 396.153 243.15 396.463 242.716 396.7C242.292 396.936 241.795 397.054 241.226 397.054C240.57 397.054 239.972 396.882 239.432 396.537C238.891 396.182 238.462 395.685 238.144 395.044C237.835 394.394 237.681 393.645 237.681 392.798ZM243.729 392.813C243.729 392.182 243.555 391.685 243.208 391.32C242.871 390.956 242.456 390.773 241.964 390.773C241.472 390.773 241.052 390.956 240.705 391.32C240.367 391.675 240.198 392.167 240.198 392.798C240.198 393.429 240.367 393.931 240.705 394.305C241.052 394.67 241.472 394.852 241.964 394.852C242.456 394.852 242.871 394.67 243.208 394.305C243.555 393.941 243.729 393.443 243.729 392.813Z" fill="#F5F1EC"/>
<path d="M250.468 390.064C250.757 389.611 251.119 389.256 251.553 389C251.987 388.734 252.469 388.601 253 388.601V391.276H252.32C251.703 391.276 251.24 391.414 250.931 391.69C250.622 391.956 250.468 392.429 250.468 393.108V396.936H247.993V388.69H250.468V390.064Z" fill="#F5F1EC"/>
</svg>
