<svg width="178" height="36" viewBox="0 0 178 36" fill="none" xmlns="http://www.w3.org/2000/svg">
<path d="M25.4372 25.8919H19.9738C19.4044 24.223 18.8381 22.5572 18.2688 20.8883C14.6876 20.8574 11.1096 20.8264 7.52848 20.7955C6.86888 22.4923 6.20616 24.1921 5.54656 25.8888H0.5C3.826 17.3526 7.15201 8.81954 10.478 0.283347C12.0617 0.329706 13.6422 0.376066 15.2259 0.419334C18.6297 8.90916 22.0335 17.399 25.4372 25.8888V25.8919ZM16.3335 16.6325C15.2819 13.2854 14.2303 9.93833 13.1786 6.59123C13.1724 6.55723 13.1693 6.52632 13.1631 6.49233C13.0013 6.49233 12.8364 6.49233 12.6746 6.48924C12.6466 6.62523 12.6124 6.7643 12.575 6.90646C12.5253 7.10117 12.4693 7.28352 12.4133 7.45968L9.28015 16.6789C11.6323 16.6634 13.9814 16.648 16.3335 16.6325Z" fill="#003853"/>
<path d="M31.6132 25.9476C29.9549 25.9599 28.2934 25.9692 26.6351 25.9815C26.6351 17.331 26.6382 8.68046 26.6413 0.0330152C26.9431 0.0299246 27.4316 0.0206506 28.0414 0.0113789C28.8006 -0.00407402 28.9126 -0.00716196 29.1242 0.0237439C29.3948 0.0639214 30.0389 0.165913 30.6456 0.654225C31.2803 1.16417 31.5168 1.81319 31.6008 2.09752L31.6132 25.9537V25.9476Z" fill="#003853"/>
<path d="M51.8026 25.8919H47.3721C47.3161 25.4561 47.2601 25.0204 47.2072 24.5877C47.1512 24.6433 47.0547 24.7422 46.9303 24.8627C46.9303 24.8627 46.616 25.1656 46.3173 25.4098C46.0311 25.6447 44.3821 26.5409 41.7686 26.3308C40.6952 26.2442 39.2173 26.1268 37.7114 25.0884C36.1153 23.9881 35.4775 22.5355 35.3624 22.2698C34.7868 20.9099 34.8677 19.6922 34.8988 19.1266C35.0419 16.6202 35.0637 12.8188 35.0357 7.69147C36.5913 7.71311 38.147 7.73783 39.7027 7.75947C39.7151 11.5825 39.7244 15.4056 39.7369 19.2286C39.7587 19.55 39.8831 20.9192 40.9472 21.6671C41.5601 22.0998 42.2197 22.1029 43.5358 22.1152C44.8115 22.1245 45.3995 21.8587 45.692 21.698C45.8942 21.5836 46.2053 21.4075 46.4698 21.0521C46.9147 20.4556 46.9054 19.788 46.8898 19.5408V7.76256C48.5264 7.77492 50.1629 7.78419 51.7995 7.79655V25.895L51.8026 25.8919Z" fill="#003853"/>
<path d="M73.0622 27.5392C73.056 29.1061 73.0094 31.523 71.3697 33.4113C68.9958 36.1403 64.7892 36.029 63.1434 35.9857C61.6748 35.9456 58.8871 35.8343 56.6096 33.8563C55.9375 33.2753 55.4833 32.6788 55.1908 32.2431C56.4011 31.3746 57.6114 30.5031 58.8217 29.6346C59.2355 30.1229 60.0694 30.9728 61.3792 31.489C62.826 32.0576 65.6324 32.5243 67.1538 30.8028C68.0997 29.7304 68.0997 28.318 68.053 27.6783C68.0406 26.8315 68.0312 25.9846 68.0188 25.1378C67.9503 25.1594 67.8819 25.1842 67.8103 25.2058C67.5085 25.4067 67.0761 25.6632 66.5316 25.8919C62.8945 27.431 59.2573 25.6941 59.0986 25.6168C54.7801 23.4782 54.1516 18.5889 54.0863 17.9924C54.0427 17.603 53.632 13.2854 56.678 10.0928C57.0576 9.69416 57.9506 8.83189 59.3413 8.17051C59.6898 8.00362 63.4794 6.26363 67.017 8.03453C67.5645 8.3065 67.9815 8.6032 68.2615 8.82572C68.2615 8.81336 68.2677 8.80099 68.2708 8.78862C68.277 8.3683 68.2833 7.9449 68.2895 7.52458H73.0094C73.1058 14.9296 73.0965 21.5713 73.0685 27.5423L73.0622 27.5392ZM67.8663 19.7262C67.9752 17.1672 68.0157 15.2758 68.0157 14.6298C68.0157 14.4629 68.0126 14.1044 67.8726 13.6748C67.8259 13.5358 67.7357 13.2576 67.5303 12.9671C67.1787 12.4695 66.7183 12.2408 66.4662 12.1172C65.9218 11.8452 65.4582 11.8112 64.895 11.7679C64.6492 11.7494 63.9896 11.7154 63.1434 11.8854C62.5024 12.0121 61.8428 12.2377 61.4135 12.4695C59.9449 13.2669 59.052 15.3407 59.1671 17.2414C59.2853 19.2163 60.477 20.7399 61.5192 21.4322C62.1975 21.8834 62.9007 22.0503 62.9007 22.0503C63.5541 22.2079 64.0767 22.1554 64.6835 22.0967C65.3804 22.0287 65.788 21.9916 66.292 21.7444C66.5814 21.6022 67.0978 21.3518 67.4774 20.777C67.7481 20.3659 67.8352 19.9673 67.8695 19.7324L67.8663 19.7262Z" fill="#8C9A48"/>
<path d="M91.9729 26.303C90.5448 26.303 89.1167 26.303 87.6886 26.303C87.5921 25.9754 87.4926 25.6478 87.3961 25.3171C87.2903 25.3758 87.1845 25.4345 87.0819 25.4901C86.9294 25.5767 86.7116 25.6972 86.444 25.8239C84.6208 26.6831 82.9158 26.714 82.1566 26.6831C80.8001 26.6275 79.0235 26.5533 77.5581 25.2398C76.0833 23.9201 75.8158 22.143 75.6913 21.324C75.5793 20.5761 75.3273 18.9103 76.2109 17.2383C77.4928 14.8091 80.2183 14.1662 81.3073 13.9066C82.978 13.511 84.403 13.6563 85.2337 13.8046C85.8249 13.9561 86.416 14.1075 87.0072 14.2621C86.9792 13.9035 86.861 13.0907 86.2356 12.4324C86.0707 12.2593 85.6164 11.8267 84.3688 11.5392C83.9488 11.4434 82.7447 11.2055 80.5325 11.5732C79.6583 11.7185 78.4448 11.9905 77.0416 12.5344C76.7429 11.1962 76.4411 9.85488 76.1425 8.51666C77.1007 8.13652 78.4542 7.70383 80.1187 7.48749C80.3334 7.45968 80.8966 7.39168 81.6246 7.36078C84.0421 7.26497 86.8298 7.1568 89.0731 8.65265C89.7296 9.09151 91.1235 10.1918 92.004 12.5839C91.9947 17.1579 91.9853 21.732 91.9791 26.3061L91.9729 26.303ZM87.0134 18.8763C86.9045 18.595 86.7956 18.3107 86.6836 18.0295C86.6774 17.9955 86.6525 17.9151 86.5809 17.8471C86.4689 17.7451 86.3289 17.7544 86.304 17.7544C85.2866 17.6308 84.4341 17.6277 83.815 17.6493C82.6856 17.6926 82.2126 17.8379 81.8206 18.0387C81.553 18.1778 81.2046 18.3602 80.9121 18.7465C80.2867 19.5748 80.4921 20.5792 80.5325 20.7739C80.6725 21.4538 81.0366 21.8834 81.1206 21.9761C81.4162 22.3099 81.7242 22.4799 81.8113 22.5263C82.4055 22.8353 82.9625 22.789 83.6439 22.7333C84.151 22.6901 84.7857 22.6314 85.4764 22.2512C85.9991 21.9669 86.3227 21.6269 86.4098 21.5311C86.4409 21.5002 86.6712 21.2468 86.8236 20.981C87.2903 20.1805 87.0943 19.2008 87.0134 18.8763Z" fill="#8C9A48"/>
<path d="M106.584 12.0708C106.276 12.0616 105.843 12.0554 105.32 12.0646C104.399 12.0832 103.936 12.0925 103.447 12.179C102.766 12.2964 101.742 12.4757 100.996 13.2916C100.398 13.9437 100.227 14.7287 100.181 15.2387C100.14 18.9288 100.103 22.6159 100.062 26.3061C98.4133 26.3061 96.7643 26.303 95.1153 26.2999C95.1029 20.1187 95.0935 13.9375 95.0811 7.75329L100.156 7.72856V9.22749C100.943 7.98508 101.82 7.55548 102.271 7.38859C102.897 7.15989 103.637 7.14444 105.115 7.10736C105.737 7.0919 106.248 7.10117 106.587 7.10736C106.587 8.76082 106.584 10.4143 106.581 12.0677L106.584 12.0708Z" fill="#8C9A48"/>
<path d="M145.211 26.269H140.233C140.217 22.8817 140.201 19.4913 140.186 16.104C140.18 14.8122 139.489 12.8033 138.111 12.0986C137.887 11.9843 137.628 11.8978 137.554 11.8761C137.221 11.768 135.74 11.2889 134.418 12.0368C134.293 12.1079 133.867 12.3613 133.478 12.8558C132.669 13.8881 132.688 15.146 132.694 15.6806C132.716 17.569 132.697 21.3519 132.781 26.337H128.014C128.008 20.1342 127.999 13.9314 127.993 7.72856C129.645 7.74401 131.297 7.75638 132.949 7.77183L132.927 9.10078L133.649 8.65574C133.988 8.4054 134.498 8.0778 135.164 7.79655C135.765 7.54313 137.358 6.97446 139.358 7.31442C140.833 7.56476 141.841 8.21069 142.078 8.36831C144.632 10.062 145.105 13.0505 145.189 13.6563C145.195 17.8595 145.204 22.0658 145.211 26.269Z" fill="#8C9A48"/>
<path d="M157.563 26.6306C155.833 26.8593 154.476 26.6491 153.599 26.4297C152.973 26.2751 152.516 26.1577 151.975 25.8363C150.394 24.9029 149.819 23.2835 149.61 22.6684C149.221 21.5187 149.237 20.5545 149.243 20.1094C149.274 17.8873 149.271 15.2541 149.252 12.0214C148.098 12.0276 146.944 12.0368 145.789 12.043C145.777 10.6059 145.761 9.16568 145.749 7.72856C146.878 7.71311 148.008 7.69456 149.137 7.67911C149.15 5.96075 149.159 4.24548 149.171 2.52711C150.87 2.52711 152.566 2.52402 154.265 2.52093V7.7471H157.883C157.905 9.17804 157.93 10.6121 157.952 12.043C156.682 12.0368 155.416 12.0276 154.146 12.0214C154.14 14.5804 154.131 17.1425 154.125 19.7015C154.131 20.0075 154.187 21.0428 154.93 21.6022C155.341 21.9112 155.851 21.9916 156.502 22.0905C156.953 22.1616 157.336 22.1709 157.606 22.1678C157.591 23.6543 157.575 25.1409 157.56 26.6244L157.563 26.6306Z" fill="#8C9A48"/>
<path d="M177.432 18.8176C172.749 18.7805 168.066 18.7403 163.384 18.7032C163.496 19.1823 163.928 20.7306 165.4 21.7351C167.024 22.8446 168.807 22.5417 169.588 22.4057C171.284 22.1152 172.435 21.2499 172.957 20.7955C174.006 21.5496 175.054 22.3068 176.103 23.0609C175.487 23.8336 174.137 25.2923 171.943 25.9939C170.543 26.442 169.398 26.3864 168.318 26.3277C165.867 26.1886 163.163 26.0372 161.01 24.0685C158.029 21.3488 158.328 17.1826 158.384 16.41C158.456 15.421 158.829 12.2037 161.38 9.87342C161.601 9.67254 162.634 8.75154 164.283 8.08707C164.765 7.89236 166.38 7.2897 168.536 7.36697C169.663 7.40714 172.332 7.49986 174.597 9.47165C177.323 11.8452 177.481 15.2109 177.5 15.8599C177.478 16.8458 177.453 17.8286 177.432 18.8145V18.8176ZM172.513 15.0131C172.478 14.6113 172.354 13.8881 171.865 13.1525C171.249 12.2254 170.406 11.8359 170.114 11.7031C170.036 11.666 169.756 11.5454 169.367 11.4496C169.096 11.3816 168.035 11.1437 166.75 11.5176C166.34 11.6381 165.643 11.8483 164.983 12.4324C163.9 13.3936 163.686 14.6546 163.636 15.0409C166.595 15.0316 169.551 15.0223 172.509 15.0131H172.513Z" fill="#8C9A48"/>
<path d="M78.0223 32.2945C77.9008 32.2945 77.7883 32.3145 77.685 32.3543C77.583 32.3941 77.4948 32.4521 77.4207 32.5281C77.3478 32.6042 77.2907 32.6984 77.2493 32.8106C77.208 32.9217 77.1874 33.0491 77.1874 33.1927C77.1874 33.3352 77.2062 33.4608 77.2439 33.5694C77.2815 33.6768 77.3356 33.7668 77.4061 33.8392C77.4766 33.9117 77.5623 33.9666 77.6632 34.004C77.7653 34.0402 77.8807 34.0583 78.0095 34.0583C78.1019 34.0583 78.1961 34.0511 78.2921 34.0366C78.3881 34.0221 78.4781 34.001 78.5619 33.9732V34.3553C78.4769 34.3795 78.3851 34.3982 78.2866 34.4115C78.1882 34.426 78.0861 34.4332 77.9804 34.4332C77.7738 34.4332 77.5921 34.4042 77.4353 34.3463C77.2785 34.2871 77.1472 34.2044 77.0415 34.0982C76.937 33.9907 76.858 33.8628 76.8045 33.7143C76.7523 33.5646 76.7261 33.3998 76.7261 33.2199C76.7261 33.0352 76.7541 32.8638 76.81 32.7056C76.8671 32.5475 76.9485 32.4104 77.0543 32.2945C77.1612 32.1786 77.2943 32.0875 77.4535 32.0211C77.6139 31.9547 77.795 31.9209 77.9968 31.9197C78.1001 31.9197 78.1979 31.9269 78.2903 31.9414C78.3827 31.9547 78.4659 31.974 78.54 31.9994V32.376C78.4428 32.3458 78.3523 32.3247 78.2684 32.3126C78.1846 32.3006 78.1025 32.2945 78.0223 32.2945Z" fill="#003853"/>
<path d="M80.2027 33.5115C80.2027 33.4185 80.1917 33.3364 80.1698 33.2652C80.148 33.1939 80.1176 33.1342 80.0787 33.0859C80.0398 33.0376 79.993 33.0014 79.9383 32.9772C79.8836 32.9531 79.8241 32.941 79.7597 32.941C79.6965 32.941 79.6375 32.9531 79.5828 32.9772C79.5294 33.0014 79.4832 33.0376 79.4443 33.0859C79.4054 33.1342 79.375 33.1939 79.3531 33.2652C79.3313 33.3364 79.3203 33.4185 79.3203 33.5115C79.3203 33.6044 79.3313 33.6865 79.3531 33.7577C79.375 33.829 79.4054 33.8887 79.4443 33.937C79.4844 33.9841 79.5312 34.0203 79.5846 34.0457C79.6393 34.0698 79.6989 34.0819 79.7633 34.0819C79.8277 34.0819 79.8867 34.0698 79.9401 34.0457C79.9936 34.0203 80.0398 33.9841 80.0787 33.937C80.1176 33.8887 80.148 33.829 80.1698 33.7577C80.1917 33.6865 80.2027 33.6044 80.2027 33.5115ZM80.6493 33.5115C80.6493 33.6491 80.6286 33.7746 80.5873 33.8881C80.546 34.0016 80.4865 34.0988 80.4087 34.1797C80.3321 34.2606 80.2391 34.3233 80.1297 34.368C80.0204 34.4115 79.8982 34.4332 79.7633 34.4332C79.6248 34.4332 79.5002 34.4115 79.3896 34.368C79.2802 34.3233 79.1872 34.2606 79.1107 34.1797C79.0341 34.0988 78.9751 34.0016 78.9338 33.8881C78.8937 33.7746 78.8737 33.6491 78.8737 33.5115C78.8737 33.3738 78.8943 33.2483 78.9356 33.1348C78.977 33.0213 79.0359 32.9241 79.1125 32.8432C79.1903 32.7624 79.2839 32.7002 79.3932 32.6567C79.5026 32.612 79.6248 32.5897 79.7597 32.5897C79.8982 32.5897 80.0222 32.612 80.1316 32.6567C80.2422 32.7002 80.3357 32.7624 80.4123 32.8432C80.4889 32.9241 80.5472 33.0213 80.5873 33.1348C80.6286 33.2483 80.6493 33.3738 80.6493 33.5115Z" fill="#003853"/>
<path d="M83.3073 33.3195C83.3073 33.2821 83.3061 33.2471 83.3036 33.2145C83.3012 33.1819 83.297 33.1535 83.2909 33.1294C83.2775 33.0762 83.2514 33.0334 83.2125 33.0008C83.1736 32.9682 83.1189 32.9513 83.0484 32.9501C83.0108 32.9501 82.9719 32.9555 82.9318 32.9664C82.8916 32.9772 82.8515 32.9929 82.8114 33.0135C82.7725 33.0328 82.7349 33.0569 82.6984 33.0859C82.6632 33.1137 82.631 33.1451 82.6018 33.1801V34.3879H82.1697V33.3195C82.1697 33.2821 82.1685 33.2471 82.1661 33.2145C82.1636 33.1819 82.1594 33.1535 82.1533 33.1294C82.1399 33.0762 82.1138 33.0334 82.0749 33.0008C82.0372 32.9682 81.9826 32.9513 81.9109 32.9501C81.8732 32.9501 81.8343 32.9555 81.7942 32.9664C81.7541 32.9772 81.714 32.9929 81.6739 33.0135C81.635 33.0328 81.5973 33.0569 81.5608 33.0859C81.5256 33.1137 81.4934 33.1451 81.4642 33.1801V34.3879H81.0321V32.6332H81.3895L81.4296 32.8776H81.4369C81.4624 32.8414 81.4946 32.8058 81.5335 32.7708C81.5724 32.7358 81.6161 32.705 81.6647 32.6784C81.7146 32.6519 81.7687 32.6308 81.827 32.6151C81.8865 32.5982 81.9491 32.5897 82.0148 32.5897C82.1314 32.5897 82.236 32.6157 82.3283 32.6676C82.4219 32.7183 82.493 32.798 82.5416 32.9066H82.5489C82.5829 32.8595 82.6206 32.8167 82.6619 32.778C82.7045 32.7394 82.7513 32.7062 82.8023 32.6784C82.8534 32.6507 82.9081 32.629 82.9664 32.6133C83.0259 32.5976 83.0891 32.5897 83.156 32.5897C83.2824 32.5909 83.3881 32.6175 83.4732 32.6694C83.5595 32.7201 83.6257 32.7901 83.6719 32.8795C83.6841 32.9024 83.6944 32.9277 83.7029 32.9555C83.7114 32.9821 83.7181 33.0123 83.723 33.0461C83.729 33.0799 83.7333 33.1173 83.7357 33.1583C83.7381 33.1994 83.7394 33.2465 83.7394 33.2996V34.3879H83.3073V33.3195Z" fill="#003853"/>
<path d="M86.2716 33.7704H85.3528L85.1139 34.3879H84.6381L85.6062 31.965H86.0145L86.9826 34.3879H86.5104L86.2716 33.7704ZM85.8085 32.5481C85.7234 32.8016 85.6475 33.0135 85.5806 33.1837L85.4968 33.3992H86.1275L86.0437 33.1837C85.9768 33.0123 85.9009 32.8004 85.8158 32.5481H85.8085Z" fill="#003853"/>
<path d="M87.2925 34.3879V31.7658H87.7245V34.3879H87.2925Z" fill="#003853"/>
<path d="M88.9988 34.4332C88.8214 34.4332 88.6743 34.4036 88.5577 34.3445C88.441 34.2841 88.3529 34.2032 88.2933 34.1018C88.2617 34.0475 88.238 33.9877 88.2222 33.9225C88.2076 33.8573 88.2003 33.7849 88.2003 33.7052V32.6332H88.6324V33.66C88.6324 33.7191 88.6367 33.7704 88.6452 33.8139C88.6537 33.8561 88.6664 33.893 88.6834 33.9243C88.7126 33.9775 88.7539 34.0173 88.8074 34.0439C88.8609 34.0692 88.9247 34.0819 88.9988 34.0819C89.0766 34.0819 89.1429 34.0674 89.1975 34.0384C89.2534 34.0095 89.2954 33.9654 89.3233 33.9062C89.3513 33.8495 89.3653 33.7704 89.3653 33.669V32.6332H89.7973V33.7052C89.7973 33.8477 89.7724 33.9678 89.7226 34.0656C89.6946 34.1211 89.6582 34.1718 89.6132 34.2177C89.5694 34.2624 89.5172 34.301 89.4564 34.3336C89.3969 34.365 89.3288 34.3891 89.2522 34.406C89.1769 34.4241 89.0924 34.4332 88.9988 34.4332Z" fill="#003853"/>
<path d="M90.3843 33.9044H90.8893L90.4955 35.1322H90.0343L90.3843 33.9044Z" fill="#003853"/>
<path d="M92.9895 33.8791C92.9895 33.8416 92.9785 33.8109 92.9566 33.7867C92.936 33.7626 92.908 33.7426 92.8728 33.727C92.8375 33.71 92.7968 33.6956 92.7506 33.6835C92.7057 33.6714 92.6583 33.6593 92.6085 33.6473C92.5452 33.6304 92.4845 33.6111 92.4261 33.5893C92.3678 33.5664 92.3162 33.5368 92.2712 33.5006C92.2274 33.4644 92.1922 33.4191 92.1655 33.3648C92.1399 33.3092 92.1272 33.2416 92.1272 33.162C92.1272 33.0642 92.1448 32.9797 92.18 32.9084C92.2153 32.836 92.2627 32.7762 92.3222 32.7292C92.383 32.6821 92.4529 32.6471 92.5319 32.6241C92.6121 32.6012 92.6966 32.5897 92.7853 32.5897C92.8935 32.5897 92.9949 32.5988 93.0897 32.6169C93.1845 32.6338 93.2702 32.6561 93.3468 32.6839V33.0334C93.3067 33.0201 93.2641 33.008 93.2192 32.9972C93.1754 32.9851 93.1304 32.9748 93.0843 32.9664C93.0393 32.9579 92.9943 32.9513 92.9494 32.9465C92.9044 32.9404 92.8619 32.9374 92.8217 32.9374C92.7707 32.9374 92.7276 32.9422 92.6923 32.9519C92.6571 32.9616 92.6285 32.9748 92.6066 32.9917C92.5848 33.0074 92.5689 33.0261 92.5592 33.0479C92.5495 33.0684 92.5446 33.0901 92.5446 33.1131C92.5446 33.1529 92.555 33.1855 92.5756 33.2108C92.5975 33.2362 92.6273 33.2567 92.665 33.2724C92.7026 33.2881 92.7421 33.3014 92.7835 33.3123C92.8248 33.3219 92.8649 33.3316 92.9038 33.3412C92.9646 33.3557 93.0253 33.3732 93.0861 33.3937C93.1469 33.4143 93.2015 33.4432 93.2502 33.4807C93.2988 33.5169 93.3383 33.5646 93.3687 33.6237C93.4003 33.6817 93.4161 33.7559 93.4161 33.8465C93.4161 33.9455 93.3972 34.0318 93.3595 34.1054C93.3219 34.1791 93.269 34.2406 93.2009 34.2901C93.1341 34.3384 93.0533 34.374 92.9585 34.397C92.8649 34.4211 92.7616 34.4332 92.6486 34.4332C92.5367 34.4332 92.4359 34.4241 92.3459 34.406C92.2572 34.3891 92.1837 34.3674 92.1253 34.3408V33.995C92.2201 34.03 92.3076 34.0541 92.3879 34.0674C92.4681 34.0795 92.5428 34.0855 92.6121 34.0855C92.6656 34.0855 92.7154 34.0819 92.7616 34.0746C92.8078 34.0662 92.8473 34.0535 92.8801 34.0366C92.9141 34.0197 92.9408 33.9986 92.9603 33.9732C92.9797 33.9467 92.9895 33.9153 92.9895 33.8791Z" fill="#003853"/>
<path d="M94.6995 34.0873C94.7833 34.0873 94.8708 34.0789 94.962 34.062C95.0531 34.0451 95.1455 34.0209 95.2391 33.9895V34.3318C95.1832 34.3559 95.0975 34.3789 94.982 34.4006C94.8666 34.4223 94.7469 34.4332 94.6229 34.4332C94.4977 34.4332 94.3786 34.4175 94.2656 34.3861C94.1538 34.3535 94.0559 34.3016 93.9721 34.2304C93.8882 34.1592 93.8214 34.0668 93.7716 33.9533C93.7229 33.8398 93.6986 33.7022 93.6986 33.5404C93.6986 33.3811 93.7217 33.2416 93.7679 33.1221C93.8141 33.0026 93.8761 32.9036 93.9539 32.8251C94.0316 32.7467 94.1204 32.6881 94.22 32.6495C94.3209 32.6096 94.4248 32.5897 94.5318 32.5897C94.6436 32.5897 94.7463 32.6066 94.8399 32.6404C94.9346 32.6742 95.0161 32.7273 95.0841 32.7998C95.1534 32.8722 95.2069 32.9658 95.2446 33.0805C95.2835 33.194 95.3029 33.3286 95.3029 33.4843C95.3017 33.5447 95.2999 33.596 95.2974 33.6382H94.1398C94.1459 33.7191 94.1641 33.7885 94.1945 33.8465C94.2249 33.9032 94.2644 33.9497 94.313 33.9859C94.3628 34.0209 94.4206 34.0469 94.4862 34.0638C94.5518 34.0795 94.6229 34.0873 94.6995 34.0873ZM94.5263 32.9247C94.4716 32.9247 94.423 32.935 94.3804 32.9555C94.3379 32.9748 94.3008 33.002 94.2692 33.037C94.2389 33.0708 94.2145 33.1106 94.1963 33.1565C94.1781 33.2024 94.1659 33.2513 94.1599 33.3032H94.8544C94.8544 33.2513 94.8471 33.2024 94.8326 33.1565C94.8192 33.1106 94.7985 33.0708 94.7706 33.037C94.7438 33.002 94.7098 32.9748 94.6685 32.9555C94.6284 32.935 94.581 32.9247 94.5263 32.9247Z" fill="#003853"/>
<path d="M96.4842 34.4332C96.3068 34.4332 96.1597 34.4036 96.0431 34.3445C95.9264 34.2841 95.8383 34.2032 95.7787 34.1018C95.7471 34.0475 95.7234 33.9877 95.7076 33.9225C95.693 33.8573 95.6857 33.7849 95.6857 33.7052V32.6332H96.1178V33.66C96.1178 33.7191 96.1221 33.7704 96.1306 33.8139C96.1391 33.8561 96.1518 33.893 96.1688 33.9243C96.198 33.9775 96.2393 34.0173 96.2928 34.0439C96.3463 34.0692 96.4101 34.0819 96.4842 34.0819C96.562 34.0819 96.6283 34.0674 96.6829 34.0384C96.7389 34.0095 96.7808 33.9654 96.8087 33.9062C96.8367 33.8495 96.8507 33.7704 96.8507 33.669V32.6332H97.2827V33.7052C97.2827 33.8477 97.2578 33.9678 97.208 34.0656C97.18 34.1211 97.1436 34.1718 97.0986 34.2177C97.0548 34.2624 97.0026 34.301 96.9418 34.3336C96.8823 34.365 96.8142 34.3891 96.7376 34.406C96.6623 34.4241 96.5778 34.4332 96.4842 34.4332Z" fill="#003853"/>
<path d="M99.5469 34.2014H99.5396C99.5153 34.2268 99.4862 34.2527 99.4521 34.2793C99.4181 34.3058 99.3792 34.3312 99.3355 34.3553C99.2917 34.3783 99.2431 34.397 99.1896 34.4115C99.1362 34.426 99.0784 34.4332 99.0164 34.4332C98.9326 34.4332 98.8542 34.4199 98.7813 34.3934C98.7083 34.368 98.6458 34.3312 98.5935 34.2829C98.5412 34.2334 98.4999 34.1742 98.4695 34.1054C98.4404 34.0354 98.4258 33.9575 98.4258 33.8718C98.4258 33.7777 98.4428 33.6931 98.4768 33.6183C98.5121 33.5435 98.5607 33.4801 98.6227 33.4282C98.6846 33.3762 98.7588 33.337 98.8451 33.3104C98.9314 33.2827 99.0268 33.2688 99.1313 33.2688C99.2079 33.2688 99.2783 33.2736 99.3428 33.2833C99.4072 33.2929 99.4637 33.3044 99.5123 33.3177V33.2471C99.5123 33.206 99.505 33.1668 99.4904 33.1294C99.4771 33.0907 99.4546 33.0569 99.423 33.028C99.3926 32.9978 99.3525 32.9742 99.3027 32.9573C99.2528 32.9392 99.1921 32.9302 99.1204 32.9302C99.0328 32.9302 98.9453 32.9398 98.8578 32.9591C98.7703 32.9785 98.6755 33.0074 98.5734 33.0461V32.711C98.6622 32.6724 98.7563 32.6428 98.856 32.6223C98.9557 32.6018 99.0602 32.5909 99.1696 32.5897C99.2984 32.5897 99.4108 32.6054 99.5068 32.6368C99.6041 32.6682 99.6849 32.7116 99.7493 32.7672C99.8149 32.8215 99.8635 32.8861 99.8951 32.9609C99.928 33.0358 99.9444 33.1173 99.9444 33.2054V33.8664C99.9444 33.9823 99.9456 34.0819 99.948 34.1652C99.9504 34.2485 99.9529 34.3227 99.9553 34.3879H99.5652L99.5469 34.2014ZM99.5123 33.64C99.471 33.6304 99.4236 33.6219 99.3701 33.6147C99.3166 33.6062 99.2625 33.602 99.2079 33.602C99.1021 33.602 99.0183 33.6231 98.9563 33.6654C98.8955 33.7064 98.8651 33.7698 98.8651 33.8555C98.8651 33.8954 98.8718 33.9304 98.8852 33.9606C98.8998 33.9895 98.9186 34.0137 98.9417 34.033C98.966 34.0523 98.9939 34.0668 99.0256 34.0765C99.0572 34.0861 99.0906 34.0909 99.1258 34.0909C99.1696 34.0909 99.2109 34.0855 99.2498 34.0746C99.2887 34.0626 99.3245 34.0481 99.3573 34.0312C99.3902 34.0131 99.4193 33.9932 99.4449 33.9714C99.4716 33.9497 99.4941 33.9286 99.5123 33.908V33.64Z" fill="#003853"/>
<path d="M100.448 34.3879V31.7658H100.88V34.3879H100.448Z" fill="#003853"/>
<path d="M102.154 34.4332C101.976 34.4332 101.829 34.4036 101.713 34.3445C101.596 34.2841 101.508 34.2032 101.448 34.1018C101.417 34.0475 101.393 33.9877 101.377 33.9225C101.363 33.8573 101.355 33.7849 101.355 33.7052V32.6332H101.787V33.66C101.787 33.7191 101.792 33.7704 101.8 33.8139C101.809 33.8561 101.821 33.893 101.839 33.9243C101.868 33.9775 101.909 34.0173 101.962 34.0439C102.016 34.0692 102.08 34.0819 102.154 34.0819C102.232 34.0819 102.298 34.0674 102.353 34.0384C102.409 34.0095 102.45 33.9654 102.478 33.9062C102.506 33.8495 102.52 33.7704 102.52 33.669V32.6332H102.952V33.7052C102.952 33.8477 102.927 33.9678 102.878 34.0656C102.85 34.1211 102.813 34.1718 102.768 34.2177C102.725 34.2624 102.672 34.301 102.611 34.3336C102.552 34.365 102.484 34.3891 102.407 34.406C102.332 34.4241 102.247 34.4332 102.154 34.4332Z" fill="#003853"/>
<path d="M104.555 34.4332C104.555 34.4091 104.555 34.3795 104.555 34.3445C104.556 34.3083 104.558 34.2781 104.56 34.2539H104.557C104.53 34.2757 104.499 34.2974 104.464 34.3191C104.43 34.3396 104.392 34.359 104.351 34.3771C104.309 34.394 104.264 34.4072 104.214 34.4169C104.164 34.4278 104.113 34.4332 104.061 34.4332C103.967 34.4332 103.875 34.4169 103.786 34.3843C103.697 34.3505 103.618 34.298 103.549 34.2268C103.479 34.1543 103.423 34.062 103.381 33.9497C103.338 33.8374 103.317 33.7022 103.317 33.5441C103.317 33.3859 103.338 33.2477 103.381 33.1294C103.425 33.0098 103.482 32.9102 103.554 32.8306C103.626 32.7509 103.708 32.6911 103.8 32.6513C103.894 32.6102 103.99 32.5897 104.088 32.5897C104.196 32.5897 104.292 32.6127 104.376 32.6585C104.46 32.7032 104.529 32.7605 104.582 32.8306H104.589L104.608 32.6332H104.987V34.4205C104.987 34.5231 104.978 34.6113 104.961 34.6849C104.944 34.7586 104.919 34.8237 104.887 34.8805C104.848 34.9469 104.798 35.0048 104.737 35.0543C104.678 35.1038 104.609 35.1449 104.531 35.1775C104.455 35.2101 104.37 35.2342 104.278 35.2499C104.185 35.2668 104.088 35.2753 103.984 35.2753C103.926 35.2753 103.869 35.2729 103.813 35.268C103.757 35.2644 103.704 35.2584 103.654 35.2499C103.606 35.2427 103.561 35.2336 103.519 35.2227C103.479 35.2131 103.445 35.2028 103.417 35.192V34.8425C103.497 34.869 103.581 34.8889 103.669 34.9022C103.758 34.9167 103.851 34.924 103.948 34.924C104.141 34.924 104.29 34.8865 104.396 34.8117C104.502 34.738 104.555 34.6258 104.555 34.4748V34.4332ZM104.168 34.0909C104.212 34.0909 104.253 34.0855 104.292 34.0746C104.331 34.0638 104.367 34.0499 104.4 34.033C104.433 34.0161 104.462 33.9974 104.487 33.9769C104.514 33.9563 104.537 33.9358 104.555 33.9153V33.1312C104.509 33.0768 104.452 33.0316 104.383 32.9954C104.315 32.9591 104.243 32.9404 104.167 32.9392C104.14 32.9392 104.111 32.9428 104.081 32.9501C104.052 32.9561 104.022 32.9676 103.992 32.9845C103.961 33.0014 103.932 33.0243 103.904 33.0533C103.877 33.0811 103.854 33.1167 103.833 33.1601C103.812 33.2036 103.795 33.2555 103.782 33.3159C103.77 33.3762 103.764 33.4463 103.764 33.5259C103.764 33.6141 103.772 33.6931 103.789 33.7632C103.806 33.832 103.832 33.8911 103.866 33.9406C103.9 33.9889 103.942 34.0264 103.992 34.0529C104.043 34.0783 104.102 34.0909 104.168 34.0909Z" fill="#003853"/>
<path d="M106.241 34.4332C106.064 34.4332 105.917 34.4036 105.8 34.3445C105.683 34.2841 105.595 34.2032 105.536 34.1018C105.504 34.0475 105.48 33.9877 105.465 33.9225C105.45 33.8573 105.443 33.7849 105.443 33.7052V32.6332H105.875V33.66C105.875 33.7191 105.879 33.7704 105.887 33.8139C105.896 33.8561 105.909 33.893 105.926 33.9243C105.955 33.9775 105.996 34.0173 106.05 34.0439C106.103 34.0692 106.167 34.0819 106.241 34.0819C106.319 34.0819 106.385 34.0674 106.44 34.0384C106.496 34.0095 106.538 33.9654 106.566 33.9062C106.594 33.8495 106.608 33.7704 106.608 33.669V32.6332H107.04V33.7052C107.04 33.8477 107.015 33.9678 106.965 34.0656C106.937 34.1211 106.9 34.1718 106.856 34.2177C106.812 34.2624 106.759 34.301 106.699 34.3336C106.639 34.365 106.571 34.3891 106.495 34.406C106.419 34.4241 106.335 34.4332 106.241 34.4332Z" fill="#003853"/>
<path d="M108.405 34.0873C108.489 34.0873 108.576 34.0789 108.668 34.062C108.759 34.0451 108.851 34.0209 108.945 33.9895V34.3318C108.889 34.3559 108.803 34.3789 108.688 34.4006C108.572 34.4223 108.452 34.4332 108.329 34.4332C108.203 34.4332 108.084 34.4175 107.971 34.3861C107.859 34.3535 107.762 34.3016 107.678 34.2304C107.594 34.1592 107.527 34.0668 107.477 33.9533C107.429 33.8398 107.404 33.7022 107.404 33.5404C107.404 33.3811 107.427 33.2416 107.474 33.1221C107.52 33.0026 107.582 32.9036 107.659 32.8251C107.737 32.7467 107.826 32.6881 107.926 32.6495C108.027 32.6096 108.13 32.5897 108.237 32.5897C108.349 32.5897 108.452 32.6066 108.545 32.6404C108.64 32.6742 108.722 32.7273 108.79 32.7998C108.859 32.8722 108.913 32.9658 108.95 33.0805C108.989 33.194 109.009 33.3286 109.009 33.4843C109.007 33.5447 109.005 33.596 109.003 33.6382H107.845C107.851 33.7191 107.87 33.7885 107.9 33.8465C107.93 33.9032 107.97 33.9497 108.019 33.9859C108.068 34.0209 108.126 34.0469 108.192 34.0638C108.257 34.0795 108.329 34.0873 108.405 34.0873ZM108.232 32.9247C108.177 32.9247 108.129 32.935 108.086 32.9555C108.044 32.9748 108.006 33.002 107.975 33.037C107.944 33.0708 107.92 33.1106 107.902 33.1565C107.884 33.2024 107.872 33.2513 107.865 33.3032H108.56C108.56 33.2513 108.553 33.2024 108.538 33.1565C108.525 33.1106 108.504 33.0708 108.476 33.037C108.449 33.002 108.415 32.9748 108.374 32.9555C108.334 32.935 108.287 32.9247 108.232 32.9247Z" fill="#003853"/>
<path d="M109.428 34.3879V31.7658H109.86V34.3879H109.428Z" fill="#003853"/>
<path d="M112.033 34.0873C112.117 34.0873 112.204 34.0789 112.295 34.062C112.387 34.0451 112.479 34.0209 112.573 33.9895V34.3318C112.517 34.3559 112.431 34.3789 112.316 34.4006C112.2 34.4223 112.08 34.4332 111.956 34.4332C111.831 34.4332 111.712 34.4175 111.599 34.3861C111.487 34.3535 111.389 34.3016 111.306 34.2304C111.222 34.1592 111.155 34.0668 111.105 33.9533C111.056 33.8398 111.032 33.7022 111.032 33.5404C111.032 33.3811 111.055 33.2416 111.101 33.1221C111.148 33.0026 111.21 32.9036 111.287 32.8251C111.365 32.7467 111.454 32.6881 111.553 32.6495C111.654 32.6096 111.758 32.5897 111.865 32.5897C111.977 32.5897 112.08 32.6066 112.173 32.6404C112.268 32.6742 112.35 32.7273 112.418 32.7998C112.487 32.8722 112.54 32.9658 112.578 33.0805C112.617 33.194 112.636 33.3286 112.636 33.4843C112.635 33.5447 112.633 33.596 112.631 33.6382H111.473C111.479 33.7191 111.498 33.7885 111.528 33.8465C111.558 33.9032 111.598 33.9497 111.646 33.9859C111.696 34.0209 111.754 34.0469 111.82 34.0638C111.885 34.0795 111.956 34.0873 112.033 34.0873ZM111.86 32.9247C111.805 32.9247 111.756 32.935 111.714 32.9555C111.671 32.9748 111.634 33.002 111.603 33.037C111.572 33.0708 111.548 33.1106 111.53 33.1565C111.512 33.2024 111.499 33.2513 111.493 33.3032H112.188C112.188 33.2513 112.181 33.2024 112.166 33.1565C112.153 33.1106 112.132 33.0708 112.104 33.037C112.077 33.002 112.043 32.9748 112.002 32.9555C111.962 32.935 111.914 32.9247 111.86 32.9247Z" fill="#003853"/>
<path d="M113.82 33.8791C113.82 33.8416 113.809 33.8109 113.787 33.7867C113.766 33.7626 113.738 33.7426 113.703 33.727C113.668 33.71 113.627 33.6956 113.581 33.6835C113.536 33.6714 113.488 33.6593 113.439 33.6473C113.375 33.6304 113.315 33.6111 113.256 33.5893C113.198 33.5664 113.146 33.5368 113.101 33.5006C113.057 33.4644 113.022 33.4191 112.996 33.3648C112.97 33.3092 112.957 33.2416 112.957 33.162C112.957 33.0642 112.975 32.9797 113.01 32.9084C113.045 32.836 113.093 32.7762 113.152 32.7292C113.213 32.6821 113.283 32.6471 113.362 32.6241C113.442 32.6012 113.527 32.5897 113.615 32.5897C113.724 32.5897 113.825 32.5988 113.92 32.6169C114.015 32.6338 114.1 32.6561 114.177 32.6839V33.0334C114.137 33.0201 114.094 33.008 114.049 32.9972C114.005 32.9851 113.961 32.9748 113.914 32.9664C113.869 32.9579 113.824 32.9513 113.779 32.9465C113.734 32.9404 113.692 32.9374 113.652 32.9374C113.601 32.9374 113.558 32.9422 113.522 32.9519C113.487 32.9616 113.459 32.9748 113.437 32.9917C113.415 33.0074 113.399 33.0261 113.389 33.0479C113.38 33.0684 113.375 33.0901 113.375 33.1131C113.375 33.1529 113.385 33.1855 113.406 33.2108C113.428 33.2362 113.457 33.2567 113.495 33.2724C113.533 33.2881 113.572 33.3014 113.614 33.3123C113.655 33.3219 113.695 33.3316 113.734 33.3412C113.795 33.3557 113.855 33.3732 113.916 33.3937C113.977 33.4143 114.032 33.4432 114.08 33.4807C114.129 33.5169 114.168 33.5646 114.199 33.6237C114.23 33.6817 114.246 33.7559 114.246 33.8465C114.246 33.9455 114.227 34.0318 114.19 34.1054C114.152 34.1791 114.099 34.2406 114.031 34.2901C113.964 34.3384 113.883 34.374 113.789 34.397C113.695 34.4211 113.592 34.4332 113.479 34.4332C113.367 34.4332 113.266 34.4241 113.176 34.406C113.087 34.3891 113.014 34.3674 112.955 34.3408V33.995C113.05 34.03 113.138 34.0541 113.218 34.0674C113.298 34.0795 113.373 34.0855 113.442 34.0855C113.496 34.0855 113.545 34.0819 113.592 34.0746C113.638 34.0662 113.677 34.0535 113.71 34.0366C113.744 34.0197 113.771 33.9986 113.79 33.9732C113.81 33.9467 113.82 33.9153 113.82 33.8791Z" fill="#003853"/>
<path d="M115.699 34.3861C115.65 34.4006 115.592 34.4121 115.524 34.4205C115.457 34.429 115.395 34.4332 115.336 34.4332C115.188 34.4332 115.066 34.4097 114.972 34.3626C114.878 34.3143 114.812 34.2455 114.773 34.1561C114.745 34.0921 114.731 34.0052 114.731 33.8954V32.9863H114.401V32.6332H114.731V32.1424H115.163V32.6332H115.674V32.9863H115.163V33.8392C115.163 33.9068 115.173 33.9569 115.194 33.9895C115.231 34.0451 115.303 34.0728 115.411 34.0728C115.461 34.0728 115.51 34.0692 115.559 34.062C115.609 34.0535 115.655 34.0433 115.699 34.0312V34.3861Z" fill="#003853"/>
<path d="M117.077 34.2014H117.07C117.046 34.2268 117.017 34.2527 116.982 34.2793C116.948 34.3058 116.91 34.3312 116.866 34.3553C116.822 34.3783 116.773 34.397 116.72 34.4115C116.667 34.426 116.609 34.4332 116.547 34.4332C116.463 34.4332 116.385 34.4199 116.312 34.3934C116.239 34.368 116.176 34.3312 116.124 34.2829C116.072 34.2334 116.03 34.1742 116 34.1054C115.971 34.0354 115.956 33.9575 115.956 33.8718C115.956 33.7777 115.973 33.6931 116.007 33.6183C116.042 33.5435 116.091 33.4801 116.153 33.4282C116.215 33.3762 116.289 33.337 116.375 33.3104C116.462 33.2827 116.557 33.2688 116.662 33.2688C116.738 33.2688 116.809 33.2736 116.873 33.2833C116.938 33.2929 116.994 33.3044 117.043 33.3177V33.2471C117.043 33.206 117.035 33.1668 117.021 33.1294C117.007 33.0907 116.985 33.0569 116.953 33.028C116.923 32.9978 116.883 32.9742 116.833 32.9573C116.783 32.9392 116.722 32.9302 116.651 32.9302C116.563 32.9302 116.476 32.9398 116.388 32.9591C116.301 32.9785 116.206 33.0074 116.104 33.0461V32.711C116.193 32.6724 116.287 32.6428 116.386 32.6223C116.486 32.6018 116.591 32.5909 116.7 32.5897C116.829 32.5897 116.941 32.6054 117.037 32.6368C117.134 32.6682 117.215 32.7116 117.28 32.7672C117.345 32.8215 117.394 32.8861 117.425 32.9609C117.458 33.0358 117.475 33.1173 117.475 33.2054V33.8664C117.475 33.9823 117.476 34.0819 117.478 34.1652C117.481 34.2485 117.483 34.3227 117.486 34.3879H117.096L117.077 34.2014ZM117.043 33.64C117.001 33.6304 116.954 33.6219 116.9 33.6147C116.847 33.6062 116.793 33.602 116.738 33.602C116.632 33.602 116.549 33.6231 116.487 33.6654C116.426 33.7064 116.395 33.7698 116.395 33.8555C116.395 33.8954 116.402 33.9304 116.416 33.9606C116.43 33.9895 116.449 34.0137 116.472 34.033C116.496 34.0523 116.524 34.0668 116.556 34.0765C116.588 34.0861 116.621 34.0909 116.656 34.0909C116.7 34.0909 116.741 34.0855 116.78 34.0746C116.819 34.0626 116.855 34.0481 116.888 34.0312C116.921 34.0131 116.95 33.9932 116.975 33.9714C117.002 33.9497 117.024 33.9286 117.043 33.908V33.64ZM117.176 31.7205L116.875 32.3525H116.539L116.756 31.7205H117.176Z" fill="#003853"/>
<path d="M119.876 34.4332C119.876 34.4091 119.876 34.3795 119.876 34.3445C119.877 34.3083 119.879 34.2781 119.881 34.2539H119.877C119.851 34.2757 119.82 34.2974 119.785 34.3191C119.75 34.3396 119.713 34.359 119.671 34.3771C119.63 34.394 119.585 34.4072 119.535 34.4169C119.485 34.4278 119.434 34.4332 119.382 34.4332C119.288 34.4332 119.196 34.4169 119.106 34.3843C119.018 34.3505 118.939 34.298 118.869 34.2268C118.8 34.1543 118.744 34.062 118.702 33.9497C118.659 33.8374 118.638 33.7022 118.638 33.5441C118.638 33.3859 118.659 33.2477 118.702 33.1294C118.745 33.0098 118.803 32.9102 118.875 32.8306C118.947 32.7509 119.029 32.6911 119.121 32.6513C119.215 32.6102 119.311 32.5897 119.409 32.5897C119.517 32.5897 119.613 32.6127 119.697 32.6585C119.781 32.7032 119.85 32.7605 119.903 32.8306H119.91L119.929 32.6332H120.308V34.4205C120.308 34.5231 120.299 34.6113 120.282 34.6849C120.265 34.7586 120.24 34.8237 120.207 34.8805C120.169 34.9469 120.119 35.0048 120.058 35.0543C119.998 35.1038 119.93 35.1449 119.852 35.1775C119.775 35.2101 119.691 35.2342 119.599 35.2499C119.506 35.2668 119.408 35.2753 119.305 35.2753C119.247 35.2753 119.19 35.2729 119.134 35.268C119.078 35.2644 119.025 35.2584 118.975 35.2499C118.926 35.2427 118.882 35.2336 118.84 35.2227C118.8 35.2131 118.766 35.2028 118.738 35.192V34.8425C118.818 34.869 118.902 34.8889 118.99 34.9022C119.078 34.9167 119.171 34.924 119.269 34.924C119.462 34.924 119.611 34.8865 119.717 34.8117C119.823 34.738 119.876 34.6258 119.876 34.4748V34.4332ZM119.489 34.0909C119.533 34.0909 119.574 34.0855 119.613 34.0746C119.652 34.0638 119.688 34.0499 119.721 34.033C119.754 34.0161 119.783 33.9974 119.808 33.9769C119.835 33.9563 119.857 33.9358 119.876 33.9153V33.1312C119.829 33.0768 119.772 33.0316 119.704 32.9954C119.636 32.9591 119.564 32.9404 119.487 32.9392C119.461 32.9392 119.432 32.9428 119.402 32.9501C119.373 32.9561 119.343 32.9676 119.312 32.9845C119.282 33.0014 119.253 33.0243 119.225 33.0533C119.198 33.0811 119.174 33.1167 119.154 33.1601C119.133 33.2036 119.116 33.2555 119.103 33.3159C119.091 33.3762 119.084 33.4463 119.084 33.5259C119.084 33.6141 119.093 33.6931 119.11 33.7632C119.127 33.832 119.153 33.8911 119.187 33.9406C119.221 33.9889 119.263 34.0264 119.312 34.0529C119.363 34.0783 119.422 34.0909 119.489 34.0909Z" fill="#003853"/>
<path d="M121.821 34.2014H121.814C121.789 34.2268 121.76 34.2527 121.726 34.2793C121.692 34.3058 121.653 34.3312 121.609 34.3553C121.566 34.3783 121.517 34.397 121.464 34.4115C121.41 34.426 121.352 34.4332 121.29 34.4332C121.206 34.4332 121.128 34.4199 121.055 34.3934C120.982 34.368 120.92 34.3312 120.867 34.2829C120.815 34.2334 120.774 34.1742 120.743 34.1054C120.714 34.0354 120.7 33.9575 120.7 33.8718C120.7 33.7777 120.717 33.6931 120.751 33.6183C120.786 33.5435 120.835 33.4801 120.897 33.4282C120.959 33.3762 121.033 33.337 121.119 33.3104C121.205 33.2827 121.301 33.2688 121.405 33.2688C121.482 33.2688 121.552 33.2736 121.617 33.2833C121.681 33.2929 121.738 33.3044 121.786 33.3177V33.2471C121.786 33.206 121.779 33.1668 121.764 33.1294C121.751 33.0907 121.728 33.0569 121.697 33.028C121.666 32.9978 121.626 32.9742 121.577 32.9573C121.527 32.9392 121.466 32.9302 121.394 32.9302C121.307 32.9302 121.219 32.9398 121.132 32.9591C121.044 32.9785 120.949 33.0074 120.847 33.0461V32.711C120.936 32.6724 121.03 32.6428 121.13 32.6223C121.23 32.6018 121.334 32.5909 121.443 32.5897C121.572 32.5897 121.685 32.6054 121.781 32.6368C121.878 32.6682 121.959 32.7116 122.023 32.7672C122.089 32.8215 122.137 32.8861 122.169 32.9609C122.202 33.0358 122.218 33.1173 122.218 33.2054V33.8664C122.218 33.9823 122.219 34.0819 122.222 34.1652C122.224 34.2485 122.227 34.3227 122.229 34.3879H121.839L121.821 34.2014ZM121.786 33.64C121.745 33.6304 121.697 33.6219 121.644 33.6147C121.591 33.6062 121.536 33.602 121.482 33.602C121.376 33.602 121.292 33.6231 121.23 33.6654C121.169 33.7064 121.139 33.7698 121.139 33.8555C121.139 33.8954 121.146 33.9304 121.159 33.9606C121.174 33.9895 121.193 34.0137 121.216 34.033C121.24 34.0523 121.268 34.0668 121.299 34.0765C121.331 34.0861 121.364 34.0909 121.4 34.0909C121.443 34.0909 121.485 34.0855 121.524 34.0746C121.563 34.0626 121.598 34.0481 121.631 34.0312C121.664 34.0131 121.693 33.9932 121.719 33.9714C121.745 33.9497 121.768 33.9286 121.786 33.908V33.64Z" fill="#003853"/>
<path d="M123.753 32.9736H123.717C123.584 32.9736 123.468 32.9935 123.367 33.0334C123.267 33.072 123.19 33.1318 123.135 33.2127V34.3879H122.703V32.6332H123.061L123.101 32.8776H123.108C123.159 32.7883 123.229 32.7183 123.318 32.6676C123.408 32.6157 123.515 32.5897 123.64 32.5897C123.684 32.5897 123.722 32.5921 123.753 32.597V32.9736Z" fill="#003853"/>
<path d="M125.048 34.2014H125.04C125.016 34.2268 124.987 34.2527 124.953 34.2793C124.919 34.3058 124.88 34.3312 124.836 34.3553C124.792 34.3783 124.744 34.397 124.69 34.4115C124.637 34.426 124.579 34.4332 124.517 34.4332C124.433 34.4332 124.355 34.4199 124.282 34.3934C124.209 34.368 124.146 34.3312 124.094 34.2829C124.042 34.2334 124.001 34.1742 123.97 34.1054C123.941 34.0354 123.926 33.9575 123.926 33.8718C123.926 33.7777 123.943 33.6931 123.978 33.6183C124.013 33.5435 124.061 33.4801 124.123 33.4282C124.185 33.3762 124.259 33.337 124.346 33.3104C124.432 33.2827 124.527 33.2688 124.632 33.2688C124.709 33.2688 124.779 33.2736 124.843 33.2833C124.908 33.2929 124.964 33.3044 125.013 33.3177V33.2471C125.013 33.206 125.006 33.1668 124.991 33.1294C124.978 33.0907 124.955 33.0569 124.924 33.028C124.893 32.9978 124.853 32.9742 124.803 32.9573C124.754 32.9392 124.693 32.9302 124.621 32.9302C124.534 32.9302 124.446 32.9398 124.359 32.9591C124.271 32.9785 124.176 33.0074 124.074 33.0461V32.711C124.163 32.6724 124.257 32.6428 124.357 32.6223C124.456 32.6018 124.561 32.5909 124.67 32.5897C124.799 32.5897 124.912 32.6054 125.008 32.6368C125.105 32.6682 125.186 32.7116 125.25 32.7672C125.316 32.8215 125.364 32.8861 125.396 32.9609C125.429 33.0358 125.445 33.1173 125.445 33.2054V33.8664C125.445 33.9823 125.446 34.0819 125.449 34.1652C125.451 34.2485 125.454 34.3227 125.456 34.3879H125.066L125.048 34.2014ZM125.013 33.64C124.972 33.6304 124.924 33.6219 124.871 33.6147C124.817 33.6062 124.763 33.602 124.709 33.602C124.603 33.602 124.519 33.6231 124.457 33.6654C124.396 33.7064 124.366 33.7698 124.366 33.8555C124.366 33.8954 124.372 33.9304 124.386 33.9606C124.4 33.9895 124.419 34.0137 124.442 34.033C124.467 34.0523 124.495 34.0668 124.526 34.0765C124.558 34.0861 124.591 34.0909 124.627 34.0909C124.67 34.0909 124.712 34.0855 124.75 34.0746C124.789 34.0626 124.825 34.0481 124.858 34.0312C124.891 34.0131 124.92 33.9932 124.946 33.9714C124.972 33.9497 124.995 33.9286 125.013 33.908V33.64Z" fill="#003853"/>
<path d="M126.327 32.8776H126.335C126.36 32.8414 126.392 32.8058 126.431 32.7708C126.47 32.7358 126.515 32.705 126.564 32.6784C126.614 32.6519 126.669 32.6308 126.728 32.6151C126.789 32.5982 126.854 32.5897 126.922 32.5897C126.986 32.5897 127.048 32.597 127.108 32.6114C127.168 32.6259 127.224 32.6489 127.274 32.6803C127.323 32.7104 127.367 32.7503 127.405 32.7998C127.444 32.8481 127.474 32.906 127.496 32.9736C127.508 33.0111 127.516 33.0521 127.52 33.0968C127.525 33.1402 127.527 33.1909 127.527 33.2489V34.3879H127.095V33.3159C127.095 33.2688 127.093 33.2284 127.089 33.1946C127.086 33.1608 127.079 33.1312 127.069 33.1058C127.048 33.0503 127.014 33.0104 126.969 32.9863C126.925 32.9622 126.872 32.9501 126.809 32.9501C126.725 32.9501 126.644 32.97 126.566 33.0098C126.49 33.0485 126.422 33.1052 126.362 33.1801V34.3879H125.93V32.6332H126.287L126.327 32.8776Z" fill="#003853"/>
<path d="M129.08 34.3861C129.032 34.4006 128.973 34.4121 128.905 34.4205C128.838 34.429 128.776 34.4332 128.717 34.4332C128.569 34.4332 128.448 34.4097 128.353 34.3626C128.259 34.3143 128.193 34.2455 128.154 34.1561C128.126 34.0921 128.112 34.0052 128.112 33.8954V32.9863H127.782V32.6332H128.112V32.1424H128.544V32.6332H129.055V32.9863H128.544V33.8392C128.544 33.9068 128.555 33.9569 128.575 33.9895C128.612 34.0451 128.684 34.0728 128.792 34.0728C128.842 34.0728 128.891 34.0692 128.94 34.062C128.99 34.0535 129.036 34.0433 129.08 34.0312V34.3861Z" fill="#003853"/>
<path d="M129.43 32.6332H129.862V34.3879H129.43V32.6332ZM129.419 31.7658H129.873V32.2312H129.419V31.7658Z" fill="#003853"/>
<path d="M131.109 34.0909C131.152 34.0909 131.192 34.0855 131.23 34.0746C131.268 34.0638 131.305 34.0493 131.339 34.0312C131.373 34.0131 131.403 33.9932 131.428 33.9714C131.455 33.9497 131.477 33.9286 131.496 33.908V33.075C131.445 33.034 131.388 33.0002 131.324 32.9736C131.261 32.9459 131.194 32.932 131.124 32.932C131.079 32.932 131.031 32.941 130.982 32.9591C130.933 32.9772 130.888 33.008 130.847 33.0515C130.807 33.095 130.773 33.1553 130.745 33.2326C130.718 33.3098 130.705 33.4082 130.705 33.5278C130.705 33.704 130.739 33.8416 130.807 33.9406C130.876 34.0396 130.977 34.0897 131.109 34.0909ZM130.258 33.5459C130.258 33.3925 130.279 33.2561 130.322 33.1366C130.364 33.0159 130.422 32.9151 130.495 32.8342C130.569 32.7521 130.653 32.6911 130.748 32.6513C130.843 32.6102 130.942 32.5897 131.044 32.5897C131.091 32.5897 131.136 32.5939 131.179 32.6024C131.221 32.6108 131.261 32.6223 131.299 32.6368C131.337 32.6513 131.372 32.6676 131.405 32.6857C131.437 32.7038 131.468 32.7225 131.496 32.7418H131.499C131.498 32.7177 131.497 32.6839 131.496 32.6404C131.496 32.5957 131.496 32.5475 131.496 32.4955V31.7658H131.928V33.8664C131.928 33.9823 131.929 34.0819 131.931 34.1652C131.934 34.2485 131.936 34.3227 131.939 34.3879H131.549L131.53 34.2014H131.523C131.498 34.2316 131.467 34.2612 131.43 34.2901C131.395 34.3191 131.355 34.3445 131.312 34.3662C131.269 34.3867 131.222 34.403 131.169 34.4151C131.118 34.4272 131.062 34.4332 131.002 34.4332C130.906 34.4332 130.813 34.4163 130.725 34.3825C130.637 34.3487 130.558 34.2968 130.488 34.2268C130.418 34.1555 130.362 34.0632 130.32 33.9497C130.279 33.835 130.258 33.7004 130.258 33.5459Z" fill="#003853"/>
<path d="M133.669 33.5115C133.669 33.4185 133.658 33.3364 133.636 33.2652C133.614 33.1939 133.584 33.1342 133.545 33.0859C133.506 33.0376 133.459 33.0014 133.404 32.9772C133.35 32.9531 133.29 32.941 133.226 32.941C133.163 32.941 133.104 32.9531 133.049 32.9772C132.995 33.0014 132.949 33.0376 132.91 33.0859C132.872 33.1342 132.841 33.1939 132.819 33.2652C132.797 33.3364 132.786 33.4185 132.786 33.5115C132.786 33.6044 132.797 33.6865 132.819 33.7577C132.841 33.829 132.872 33.8887 132.91 33.937C132.951 33.9841 132.997 34.0203 133.051 34.0457C133.105 34.0698 133.165 34.0819 133.229 34.0819C133.294 34.0819 133.353 34.0698 133.406 34.0457C133.46 34.0203 133.506 33.9841 133.545 33.937C133.584 33.8887 133.614 33.829 133.636 33.7577C133.658 33.6865 133.669 33.6044 133.669 33.5115ZM134.115 33.5115C134.115 33.6491 134.095 33.7746 134.053 33.8881C134.012 34.0016 133.953 34.0988 133.875 34.1797C133.798 34.2606 133.705 34.3233 133.596 34.368C133.486 34.4115 133.364 34.4332 133.229 34.4332C133.091 34.4332 132.966 34.4115 132.856 34.368C132.746 34.3233 132.653 34.2606 132.577 34.1797C132.5 34.0988 132.441 34.0016 132.4 33.8881C132.36 33.7746 132.34 33.6491 132.34 33.5115C132.34 33.3738 132.36 33.2483 132.402 33.1348C132.443 33.0213 132.502 32.9241 132.579 32.8432C132.656 32.7624 132.75 32.7002 132.859 32.6567C132.969 32.612 133.091 32.5897 133.226 32.5897C133.364 32.5897 133.488 32.612 133.598 32.6567C133.708 32.7002 133.802 32.7624 133.878 32.8432C133.955 32.9241 134.013 33.0213 134.053 33.1348C134.095 33.2483 134.115 33.3738 134.115 33.5115Z" fill="#003853"/>
<path d="M136.792 33.6002L135.238 34.2956V33.9026L136.383 33.4191V33.4119L135.238 32.9284V32.5354L136.792 33.2308V33.6002Z" fill="#003853"/>
<path d="M125.034 26.303C123.606 26.303 122.178 26.303 120.749 26.303C120.653 25.9754 120.553 25.6478 120.457 25.3171C120.351 25.3758 120.245 25.4345 120.143 25.4901C119.99 25.5767 119.773 25.6972 119.505 25.8239C117.682 26.6831 115.977 26.714 115.218 26.6831C113.861 26.6275 112.084 26.5533 110.619 25.2398C109.144 23.9201 108.877 22.143 108.752 21.324C108.64 20.5761 108.388 18.9103 109.272 17.2383C110.554 14.8091 113.279 14.1662 114.368 13.9066C116.039 13.511 117.464 13.6563 118.295 13.8046C118.886 13.9561 119.477 14.1075 120.068 14.2621C120.04 13.9035 119.922 13.0907 119.296 12.4324C119.132 12.2593 118.677 11.8267 117.43 11.5392C117.01 11.4434 115.806 11.2055 113.593 11.5732C112.719 11.7185 111.506 11.9905 110.103 12.5344C109.804 11.1962 109.502 9.85488 109.203 8.51666C110.162 8.13652 111.515 7.70383 113.18 7.48749C113.394 7.45968 113.957 7.39168 114.686 7.36078C117.103 7.26497 119.891 7.1568 122.134 8.65265C122.791 9.09151 124.184 10.1918 125.065 12.5839C125.056 17.1579 125.046 21.732 125.04 26.3061L125.034 26.303ZM120.071 18.8763C119.962 18.595 119.853 18.3107 119.741 18.0295C119.735 17.9955 119.71 17.9151 119.639 17.8471C119.527 17.7451 119.387 17.7544 119.362 17.7544C118.344 17.6308 117.492 17.6277 116.873 17.6493C115.743 17.6926 115.27 17.8379 114.878 18.0387C114.611 18.1778 114.262 18.3602 113.97 18.7465C113.345 19.5748 113.55 20.5792 113.59 20.7739C113.73 21.4538 114.094 21.8834 114.178 21.9761C114.474 22.3099 114.782 22.4799 114.869 22.5263C115.463 22.8353 116.02 22.789 116.702 22.7333C117.209 22.6901 117.844 22.6314 118.534 22.2512C119.057 21.9669 119.38 21.6269 119.468 21.5311C119.499 21.5002 119.729 21.2468 119.881 20.981C120.348 20.1805 120.152 19.2008 120.071 18.8763Z" fill="#8C9A48"/>
</svg>
