<svg width="726" height="731" viewBox="0 0 726 731" fill="none" xmlns="http://www.w3.org/2000/svg">
<path d="M684.813 116.256C684.813 93.8538 684.813 82.6528 680.454 74.0963C676.619 66.5698 670.499 60.4506 662.973 56.6157C654.417 52.2559 643.215 52.2559 620.813 52.2559H218.789C196.387 52.2559 185.186 52.2559 176.629 56.6157C169.103 60.4506 162.984 66.5698 159.149 74.0963C154.789 82.6528 154.789 93.8538 154.789 116.256V730.65H684.813V116.256Z" fill="white"/>
<mask id="mask0_270_7" style="mask-type:alpha" maskUnits="userSpaceOnUse" x="154" y="52" width="531" height="679">
<path d="M684.813 116.256C684.813 93.8538 684.813 82.6528 680.454 74.0963C676.619 66.5698 670.499 60.4506 662.973 56.6157C654.417 52.2559 643.215 52.2559 620.813 52.2559H218.789C196.387 52.2559 185.186 52.2559 176.629 56.6157C169.103 60.4506 162.984 66.5698 159.149 74.0963C154.789 82.6528 154.789 93.8538 154.789 116.256V730.65H684.813V116.256Z" fill="white"/>
</mask>
<g mask="url(#mask0_270_7)">
<g opacity="0.5">
<path d="M623.092 228.661H646.126C647.844 228.66 649.491 227.977 650.705 226.763C651.92 225.548 652.603 223.902 652.605 222.185V168.938C652.603 167.221 651.92 165.575 650.705 164.361C649.491 163.147 647.844 162.464 646.126 162.462H623.092C621.375 162.464 619.728 163.147 618.513 164.361C617.299 165.575 616.616 167.221 616.614 168.938V222.185C616.616 223.902 617.299 225.548 618.513 226.763C619.728 227.977 621.375 228.66 623.092 228.661Z" fill="#E6E6E6"/>
<path d="M532.395 725.156H650.445C653.69 725.152 656.8 723.862 659.094 721.569C661.388 719.276 662.679 716.166 662.682 712.923V236.577C662.679 233.333 661.388 230.224 659.094 227.931C656.8 225.638 653.69 224.348 650.445 224.344H532.395C529.151 224.348 526.041 225.638 523.747 227.931C521.453 230.224 520.162 233.333 520.159 236.577V712.923C520.162 716.166 521.453 719.276 523.747 721.569C526.041 723.862 529.151 725.152 532.395 725.156Z" fill="#E6E6E6"/>
<path d="M602.937 725.156H720.987C724.232 725.152 727.342 723.862 729.636 721.569C731.93 719.276 733.221 716.166 733.224 712.923V236.577C733.221 233.333 731.93 230.224 729.636 227.931C727.342 225.638 724.232 224.348 720.987 224.344H602.937C599.693 224.348 596.583 225.638 594.289 227.931C591.995 230.224 590.704 233.333 590.701 236.577V712.923C590.704 716.166 591.995 719.276 594.289 721.569C596.583 723.862 599.693 725.152 602.937 725.156Z" fill="#F2F2F2"/>
<path d="M644.687 228.661H667.721C669.439 228.66 671.085 227.977 672.3 226.763C673.514 225.548 674.197 223.902 674.199 222.185V168.938C674.197 167.221 673.514 165.575 672.3 164.361C671.085 163.147 669.439 162.464 667.721 162.462H644.687C642.969 162.464 641.323 163.147 640.108 164.361C638.894 165.575 638.21 167.221 638.209 168.938V222.185C638.21 223.902 638.894 225.548 640.108 226.763C641.323 227.977 642.969 228.66 644.687 228.661Z" fill="#F2F2F2"/>
<path d="M674.919 332.278H702.272C703.226 332.277 704.141 331.897 704.816 331.223C705.491 330.548 705.87 329.634 705.871 328.68V286.946C705.87 285.992 705.491 285.077 704.816 284.403C704.141 283.728 703.226 283.349 702.272 283.348H674.919C673.965 283.349 673.05 283.728 672.375 284.403C671.701 285.077 671.321 285.992 671.32 286.946V328.68C671.321 329.634 671.701 330.548 672.375 331.223C673.05 331.897 673.965 332.277 674.919 332.278Z" fill="white"/>
<path d="M621.653 332.278H649.006C649.96 332.277 650.875 331.897 651.549 331.223C652.224 330.548 652.604 329.634 652.605 328.68V286.946C652.604 285.992 652.224 285.077 651.549 284.403C650.875 283.728 649.96 283.349 649.006 283.348H621.653C620.698 283.349 619.784 283.728 619.109 284.403C618.434 285.077 618.055 285.992 618.054 286.946V328.68C618.055 329.634 618.434 330.548 619.109 331.223C619.784 331.897 620.698 332.277 621.653 332.278Z" fill="white"/>
<path d="M674.919 408.551H702.272C703.226 408.549 704.141 408.17 704.816 407.496C705.491 406.821 705.87 405.907 705.871 404.953V363.218C705.87 362.265 705.491 361.35 704.816 360.676C704.141 360.001 703.226 359.622 702.272 359.621H674.919C673.965 359.622 673.05 360.001 672.375 360.676C671.701 361.35 671.321 362.265 671.32 363.218V404.953C671.321 405.907 671.701 406.821 672.375 407.496C673.05 408.17 673.965 408.549 674.919 408.551Z" fill="white"/>
<path d="M621.653 408.551H649.006C649.96 408.549 650.875 408.17 651.549 407.496C652.224 406.821 652.604 405.907 652.605 404.953V363.218C652.604 362.265 652.224 361.35 651.549 360.676C650.875 360.001 649.96 359.622 649.006 359.621H621.653C620.698 359.622 619.784 360.001 619.109 360.676C618.434 361.35 618.055 362.265 618.054 363.218V404.953C618.055 405.907 618.434 406.821 619.109 407.496C619.784 408.17 620.698 408.549 621.653 408.551Z" fill="white"/>
<path d="M674.919 484.823H702.272C703.226 484.822 704.141 484.443 704.816 483.768C705.491 483.094 705.87 482.18 705.871 481.226V439.491C705.87 438.538 705.491 437.623 704.816 436.949C704.141 436.274 703.226 435.895 702.272 435.894H674.919C673.965 435.895 673.05 436.274 672.375 436.949C671.701 437.623 671.321 438.538 671.32 439.491V481.226C671.321 482.18 671.701 483.094 672.375 483.768C673.05 484.443 673.965 484.822 674.919 484.823Z" fill="white"/>
<path d="M621.653 484.823H649.006C649.96 484.822 650.875 484.443 651.549 483.768C652.224 483.094 652.604 482.18 652.605 481.226V439.491C652.604 438.538 652.224 437.623 651.549 436.949C650.875 436.274 649.96 435.895 649.006 435.894H621.653C620.698 435.895 619.784 436.274 619.109 436.949C618.434 437.623 618.055 438.538 618.054 439.491V481.226C618.055 482.18 618.434 483.094 619.109 483.768C619.784 484.443 620.698 484.822 621.653 484.823Z" fill="white"/>
<path d="M674.919 561.097H702.272C703.226 561.095 704.141 560.716 704.816 560.042C705.491 559.367 705.87 558.453 705.871 557.499V515.765C705.87 514.811 705.491 513.896 704.816 513.222C704.141 512.547 703.226 512.168 702.272 512.167H674.919C673.965 512.168 673.05 512.547 672.375 513.222C671.701 513.896 671.321 514.811 671.32 515.765V557.499C671.321 558.453 671.701 559.367 672.375 560.042C673.05 560.716 673.965 561.095 674.919 561.097Z" fill="white"/>
<path d="M621.653 561.097H649.006C649.96 561.095 650.875 560.716 651.549 560.042C652.224 559.367 652.604 558.453 652.605 557.499V515.765C652.604 514.811 652.224 513.896 651.549 513.222C650.875 512.547 649.96 512.168 649.006 512.167H621.653C620.698 512.168 619.784 512.547 619.109 513.222C618.434 513.896 618.055 514.811 618.054 515.765V557.499C618.055 558.453 618.434 559.367 619.109 560.042C619.784 560.716 620.698 561.095 621.653 561.097Z" fill="white"/>
<path d="M674.919 637.369H702.272C703.226 637.368 704.141 636.989 704.816 636.314C705.491 635.64 705.87 634.726 705.871 633.772V592.037C705.87 591.084 705.491 590.169 704.816 589.495C704.141 588.82 703.226 588.441 702.272 588.44H674.919C673.965 588.441 673.05 588.82 672.375 589.495C671.701 590.169 671.321 591.084 671.32 592.037V633.772C671.321 634.726 671.701 635.64 672.375 636.314C673.05 636.989 673.965 637.368 674.919 637.369Z" fill="white"/>
<path d="M621.653 637.369H649.006C649.96 637.368 650.875 636.989 651.549 636.314C652.224 635.64 652.604 634.726 652.605 633.772V592.037C652.604 591.084 652.224 590.169 651.549 589.495C650.875 588.82 649.96 588.441 649.006 588.44H621.653C620.698 588.441 619.784 588.82 619.109 589.495C618.434 590.169 618.055 591.084 618.054 592.037V633.772C618.055 634.726 618.434 635.64 619.109 636.314C619.784 636.989 620.698 637.368 621.653 637.369Z" fill="white"/>
<path d="M399.745 138.984H422.779C424.497 138.982 426.143 138.299 427.358 137.085C428.572 135.871 429.255 134.225 429.257 132.508V79.261C429.255 77.544 428.572 75.8979 427.358 74.6839C426.143 73.4698 424.497 72.7869 422.779 72.785H399.745C398.027 72.7869 396.381 73.4698 395.166 74.6839C393.952 75.8979 393.268 77.544 393.267 79.261V132.508C393.268 134.225 393.952 135.871 395.166 137.085C396.381 138.299 398.027 138.982 399.745 138.984Z" fill="#E6E6E6"/>
<path d="M309.048 635.478H427.098C430.342 635.474 433.452 634.185 435.746 631.891C438.041 629.598 439.331 626.489 439.335 623.246V146.899C439.331 143.656 438.041 140.547 435.746 138.253C433.452 135.96 430.342 134.67 427.098 134.667H309.048C305.804 134.67 302.693 135.96 300.399 138.253C298.105 140.547 296.815 143.656 296.811 146.899V623.246C296.815 626.489 298.105 629.598 300.399 631.891C302.693 634.185 305.804 635.474 309.048 635.478Z" fill="#E6E6E6"/>
<path d="M379.59 635.478H497.64C500.884 635.474 503.995 634.185 506.289 631.891C508.583 629.598 509.873 626.489 509.877 623.246V146.899C509.873 143.656 508.583 140.547 506.289 138.253C503.995 135.96 500.884 134.67 497.64 134.667H379.59C376.346 134.67 373.235 135.96 370.941 138.253C368.647 140.547 367.357 143.656 367.353 146.899V623.246C367.357 626.489 368.647 629.598 370.941 631.891C373.235 634.185 376.346 635.474 379.59 635.478Z" fill="#F2F2F2"/>
<path d="M421.339 138.984H444.374C446.091 138.982 447.738 138.299 448.952 137.085C450.167 135.871 450.85 134.225 450.852 132.508V79.261C450.85 77.544 450.167 75.8979 448.952 74.6839C447.738 73.4698 446.091 72.7869 444.374 72.785H421.339C419.622 72.7869 417.975 73.4698 416.761 74.6839C415.546 75.8979 414.863 77.544 414.861 79.261V132.508C414.863 134.225 415.546 135.871 416.761 137.085C417.975 138.299 419.622 138.982 421.339 138.984Z" fill="#F2F2F2"/>
<path d="M451.572 242.6H478.925C479.879 242.599 480.794 242.22 481.468 241.545C482.143 240.871 482.523 239.956 482.524 239.003V197.268C482.523 196.314 482.143 195.4 481.468 194.725C480.794 194.051 479.879 193.672 478.925 193.671H451.572C450.617 193.672 449.703 194.051 449.028 194.725C448.353 195.4 447.974 196.314 447.972 197.268V239.003C447.974 239.956 448.353 240.871 449.028 241.545C449.703 242.22 450.617 242.599 451.572 242.6Z" fill="white"/>
<path d="M398.305 242.6H425.658C426.612 242.599 427.527 242.22 428.202 241.545C428.877 240.871 429.256 239.956 429.257 239.003V197.268C429.256 196.314 428.877 195.4 428.202 194.725C427.527 194.051 426.612 193.672 425.658 193.671H398.305C397.351 193.672 396.436 194.051 395.762 194.725C395.087 195.4 394.707 196.314 394.706 197.268V239.003C394.707 239.956 395.087 240.871 395.762 241.545C396.436 242.22 397.351 242.599 398.305 242.6Z" fill="white"/>
<path d="M451.572 318.874H478.925C479.879 318.872 480.794 318.493 481.468 317.819C482.143 317.144 482.523 316.23 482.524 315.276V273.541C482.523 272.588 482.143 271.673 481.468 270.999C480.794 270.324 479.879 269.945 478.925 269.944H451.572C450.617 269.945 449.703 270.324 449.028 270.999C448.353 271.673 447.974 272.588 447.972 273.541V315.276C447.974 316.23 448.353 317.144 449.028 317.819C449.703 318.493 450.617 318.872 451.572 318.874Z" fill="white"/>
<path d="M398.305 318.874H425.658C426.612 318.872 427.527 318.493 428.202 317.819C428.877 317.144 429.256 316.23 429.257 315.276V273.541C429.256 272.588 428.877 271.673 428.202 270.999C427.527 270.324 426.612 269.945 425.658 269.944H398.305C397.351 269.945 396.436 270.324 395.762 270.999C395.087 271.673 394.707 272.588 394.706 273.541V315.276C394.707 316.23 395.087 317.144 395.762 317.819C396.436 318.493 397.351 318.872 398.305 318.874Z" fill="white"/>
<path d="M451.572 395.146H478.925C479.879 395.145 480.794 394.766 481.468 394.091C482.143 393.417 482.523 392.502 482.524 391.549V349.814C482.523 348.86 482.143 347.946 481.468 347.272C480.794 346.597 479.879 346.218 478.925 346.217H451.572C450.617 346.218 449.703 346.597 449.028 347.272C448.353 347.946 447.974 348.86 447.972 349.814V391.549C447.974 392.502 448.353 393.417 449.028 394.091C449.703 394.766 450.617 395.145 451.572 395.146Z" fill="white"/>
<path d="M398.305 395.146H425.658C426.612 395.145 427.527 394.766 428.202 394.091C428.877 393.417 429.256 392.502 429.257 391.549V349.814C429.256 348.86 428.877 347.946 428.202 347.272C427.527 346.597 426.612 346.218 425.658 346.217H398.305C397.351 346.218 396.436 346.597 395.762 347.272C395.087 347.946 394.707 348.86 394.706 349.814V391.549C394.707 392.502 395.087 393.417 395.762 394.091C396.436 394.766 397.351 395.145 398.305 395.146Z" fill="white"/>
<path d="M451.572 471.419H478.925C479.879 471.418 480.794 471.039 481.468 470.364C482.143 469.69 482.523 468.775 482.524 467.821V426.087C482.523 425.133 482.143 424.219 481.468 423.544C480.794 422.87 479.879 422.49 478.925 422.489H451.572C450.617 422.49 449.703 422.87 449.028 423.544C448.353 424.219 447.974 425.133 447.972 426.087V467.821C447.974 468.775 448.353 469.69 449.028 470.364C449.703 471.039 450.617 471.418 451.572 471.419Z" fill="white"/>
<path d="M398.305 471.419H425.658C426.612 471.418 427.527 471.039 428.202 470.364C428.877 469.69 429.256 468.775 429.257 467.821V426.087C429.256 425.133 428.877 424.219 428.202 423.544C427.527 422.87 426.612 422.49 425.658 422.489H398.305C397.351 422.49 396.436 422.87 395.762 423.544C395.087 424.219 394.707 425.133 394.706 426.087V467.821C394.707 468.775 395.087 469.69 395.762 470.364C396.436 471.039 397.351 471.418 398.305 471.419Z" fill="white"/>
<path d="M451.572 547.692H478.925C479.879 547.691 480.794 547.312 481.468 546.637C482.143 545.963 482.523 545.048 482.524 544.094V502.36C482.523 501.406 482.143 500.492 481.468 499.817C480.794 499.143 479.879 498.763 478.925 498.762H451.572C450.617 498.763 449.703 499.143 449.028 499.817C448.353 500.492 447.974 501.406 447.972 502.36V544.094C447.974 545.048 448.353 545.963 449.028 546.637C449.703 547.312 450.617 547.691 451.572 547.692Z" fill="white"/>
<path d="M398.305 547.692H425.658C426.612 547.691 427.527 547.312 428.202 546.637C428.877 545.963 429.256 545.048 429.257 544.094V502.36C429.256 501.406 428.877 500.492 428.202 499.817C427.527 499.143 426.612 498.763 425.658 498.762H398.305C397.351 498.763 396.436 499.143 395.762 499.817C395.087 500.492 394.707 501.406 394.706 502.36V544.094C394.707 545.048 395.087 545.963 395.762 546.637C396.436 547.312 397.351 547.691 398.305 547.692Z" fill="white"/>
<path d="M459.108 478.897H482.143C483.86 478.895 485.507 478.213 486.721 476.998C487.936 475.784 488.619 474.138 488.621 472.421V442.2C488.619 440.483 487.936 438.837 486.721 437.623C485.507 436.409 483.86 435.726 482.143 435.724H459.108C457.391 435.726 455.744 436.409 454.53 437.623C453.315 438.837 452.632 440.483 452.63 442.2V472.421C452.632 474.138 453.315 475.784 454.53 476.999C455.744 478.213 457.391 478.895 459.108 478.897Z" fill="#E6E6E6"/>
<path d="M264.758 724.986H382.808C386.052 724.982 389.163 723.693 391.457 721.399C393.751 719.106 395.041 715.997 395.045 712.754V483.935C395.041 480.691 393.751 477.582 391.457 475.289C389.163 472.996 386.052 471.706 382.808 471.702H264.758C261.514 471.706 258.403 472.996 256.109 475.289C253.815 477.582 252.525 480.691 252.521 483.935V712.754C252.525 715.997 253.815 719.106 256.109 721.399C258.403 723.693 261.514 724.982 264.758 724.986Z" fill="#E6E6E6"/>
<path d="M335.3 724.986H539.728C542.972 724.982 546.082 723.693 548.376 721.399C550.67 719.106 551.961 715.997 551.964 712.754V483.935C551.961 480.691 550.67 477.582 548.376 475.289C546.082 472.996 542.972 471.706 539.728 471.702H335.3C332.055 471.706 328.945 472.996 326.651 475.289C324.357 477.582 323.066 480.691 323.063 483.935V712.754C323.066 715.997 324.357 719.106 326.651 721.399C328.945 723.693 332.055 724.982 335.3 724.986Z" fill="#F2F2F2"/>
<path d="M480.703 478.897H503.737C505.454 478.895 507.101 478.213 508.316 476.998C509.53 475.784 510.213 474.138 510.215 472.421V442.2C510.213 440.483 509.53 438.837 508.316 437.623C507.101 436.409 505.454 435.726 503.737 435.724H480.703C478.985 435.726 477.339 436.409 476.124 437.623C474.91 438.837 474.226 440.483 474.224 442.2V472.421C474.226 474.138 474.91 475.784 476.124 476.999C477.339 478.213 478.985 478.895 480.703 478.897Z" fill="#F2F2F2"/>
<path d="M450.47 584.672H477.823C478.777 584.671 479.692 584.292 480.367 583.617C481.042 582.943 481.421 582.028 481.422 581.075V539.34C481.421 538.387 481.042 537.472 480.367 536.798C479.692 536.123 478.777 535.744 477.823 535.743H450.47C449.516 535.744 448.601 536.123 447.926 536.798C447.252 537.472 446.872 538.387 446.871 539.34V581.075C446.872 582.028 447.252 582.943 447.926 583.617C448.601 584.292 449.516 584.671 450.47 584.672Z" fill="white"/>
<path d="M397.204 584.672H424.557C425.511 584.671 426.426 584.292 427.101 583.617C427.776 582.943 428.155 582.028 428.156 581.075V539.34C428.155 538.387 427.776 537.472 427.101 536.798C426.426 536.123 425.511 535.744 424.557 535.743H397.204C396.25 535.744 395.335 536.123 394.66 536.798C393.986 537.472 393.606 538.387 393.605 539.34V581.075C393.606 582.028 393.986 582.943 394.66 583.617C395.335 584.292 396.25 584.671 397.204 584.672Z" fill="white"/>
<path d="M450.47 660.946H477.823C478.777 660.944 479.692 660.565 480.367 659.891C481.042 659.216 481.421 658.302 481.422 657.348V615.614C481.421 614.66 481.042 613.745 480.367 613.071C479.692 612.396 478.777 612.017 477.823 612.016H450.47C449.516 612.017 448.601 612.396 447.926 613.071C447.252 613.745 446.872 614.66 446.871 615.614V657.348C446.872 658.302 447.252 659.216 447.926 659.891C448.601 660.565 449.516 660.944 450.47 660.946Z" fill="white"/>
<path d="M397.204 660.946H424.557C425.511 660.944 426.426 660.565 427.101 659.891C427.776 659.216 428.155 658.302 428.156 657.348V615.614C428.155 614.66 427.776 613.745 427.101 613.071C426.426 612.396 425.511 612.017 424.557 612.016H397.204C396.25 612.017 395.335 612.396 394.66 613.071C393.986 613.745 393.606 614.66 393.605 615.614V657.348C393.606 658.302 393.986 659.216 394.66 659.891C395.335 660.565 396.25 660.944 397.204 660.946Z" fill="white"/>
<path d="M176.397 228.661H199.431C201.149 228.66 202.796 227.977 204.01 226.763C205.225 225.548 205.908 223.902 205.91 222.185V168.938C205.908 167.221 205.225 165.575 204.01 164.361C202.796 163.147 201.149 162.464 199.431 162.462H176.397C174.68 162.464 173.033 163.147 171.819 164.361C170.604 165.575 169.921 167.221 169.919 168.938V222.185C169.921 223.902 170.604 225.548 171.819 226.763C173.033 227.977 174.68 228.66 176.397 228.661Z" fill="#E6E6E6"/>
<path d="M85.7004 725.156H203.75C206.995 725.152 210.105 723.862 212.399 721.569C214.693 719.276 215.983 716.166 215.987 712.923V236.577C215.983 233.333 214.693 230.224 212.399 227.931C210.105 225.638 206.995 224.348 203.75 224.344H85.7004C82.4561 224.348 79.3457 225.638 77.0516 227.931C74.7575 230.224 73.4671 233.333 73.4635 236.577V712.923C73.4671 716.166 74.7575 719.276 77.0516 721.569C79.3457 723.862 82.4561 725.152 85.7004 725.156Z" fill="#E6E6E6"/>
<path d="M156.243 725.156H274.292C277.537 725.152 280.647 723.862 282.941 721.569C285.235 719.276 286.526 716.166 286.529 712.923V236.577C286.526 233.333 285.235 230.224 282.941 227.931C280.647 225.638 277.537 224.348 274.292 224.344H156.243C152.998 224.348 149.888 225.638 147.594 227.931C145.3 230.224 144.009 233.333 144.006 236.577V712.923C144.009 716.166 145.3 719.276 147.594 721.569C149.888 723.862 152.998 725.152 156.243 725.156Z" fill="#F2F2F2"/>
<path d="M197.992 228.661H221.026C222.743 228.66 224.39 227.977 225.605 226.763C226.819 225.548 227.502 223.902 227.504 222.185V168.938C227.502 167.221 226.819 165.575 225.605 164.361C224.39 163.147 222.743 162.464 221.026 162.462H197.992C196.274 162.464 194.627 163.147 193.413 164.361C192.198 165.575 191.515 167.221 191.513 168.938V222.185C191.515 223.902 192.198 225.548 193.413 226.763C194.627 227.977 196.274 228.66 197.992 228.661Z" fill="#F2F2F2"/>
<path d="M228.224 332.278H255.577C256.531 332.277 257.446 331.897 258.121 331.223C258.795 330.548 259.175 329.634 259.176 328.68V286.946C259.175 285.992 258.795 285.077 258.121 284.403C257.446 283.728 256.531 283.349 255.577 283.348H228.224C227.27 283.349 226.355 283.728 225.68 284.403C225.006 285.077 224.626 285.992 224.625 286.946V328.68C224.626 329.634 225.006 330.548 225.68 331.223C226.355 331.897 227.27 332.277 228.224 332.278Z" fill="white"/>
<path d="M174.958 332.278H202.311C203.265 332.277 204.18 331.897 204.854 331.223C205.529 330.548 205.909 329.634 205.91 328.68V286.946C205.909 285.992 205.529 285.077 204.854 284.403C204.18 283.728 203.265 283.349 202.311 283.348H174.958C174.004 283.349 173.089 283.728 172.414 284.403C171.739 285.077 171.36 285.992 171.359 286.946V328.68C171.36 329.634 171.739 330.548 172.414 331.223C173.089 331.897 174.004 332.277 174.958 332.278Z" fill="white"/>
<path d="M228.224 408.551H255.577C256.531 408.549 257.446 408.17 258.121 407.496C258.795 406.821 259.175 405.907 259.176 404.953V363.218C259.175 362.265 258.795 361.35 258.121 360.676C257.446 360.001 256.531 359.622 255.577 359.621H228.224C227.27 359.622 226.355 360.001 225.68 360.676C225.006 361.35 224.626 362.265 224.625 363.218V404.953C224.626 405.907 225.006 406.821 225.68 407.496C226.355 408.17 227.27 408.549 228.224 408.551Z" fill="white"/>
<path d="M174.958 408.551H202.311C203.265 408.549 204.18 408.17 204.854 407.496C205.529 406.821 205.909 405.907 205.91 404.953V363.218C205.909 362.265 205.529 361.35 204.854 360.676C204.18 360.001 203.265 359.622 202.311 359.621H174.958C174.004 359.622 173.089 360.001 172.414 360.676C171.739 361.35 171.36 362.265 171.359 363.218V404.953C171.36 405.907 171.739 406.821 172.414 407.496C173.089 408.17 174.004 408.549 174.958 408.551Z" fill="white"/>
<path d="M228.224 484.823H255.577C256.531 484.822 257.446 484.443 258.121 483.768C258.795 483.094 259.175 482.18 259.176 481.226V439.491C259.175 438.538 258.795 437.623 258.121 436.949C257.446 436.274 256.531 435.895 255.577 435.894H228.224C227.27 435.895 226.355 436.274 225.68 436.949C225.006 437.623 224.626 438.538 224.625 439.491V481.226C224.626 482.18 225.006 483.094 225.68 483.768C226.355 484.443 227.27 484.822 228.224 484.823Z" fill="white"/>
<path d="M174.958 484.823H202.311C203.265 484.822 204.18 484.443 204.854 483.768C205.529 483.094 205.909 482.18 205.91 481.226V439.491C205.909 438.538 205.529 437.623 204.854 436.949C204.18 436.274 203.265 435.895 202.311 435.894H174.958C174.004 435.895 173.089 436.274 172.414 436.949C171.739 437.623 171.36 438.538 171.359 439.491V481.226C171.36 482.18 171.739 483.094 172.414 483.768C173.089 484.443 174.004 484.822 174.958 484.823Z" fill="white"/>
<path d="M228.224 561.097H255.577C256.531 561.095 257.446 560.716 258.121 560.042C258.795 559.367 259.175 558.453 259.176 557.499V515.765C259.175 514.811 258.795 513.896 258.121 513.222C257.446 512.547 256.531 512.168 255.577 512.167H228.224C227.27 512.168 226.355 512.547 225.68 513.222C225.006 513.896 224.626 514.811 224.625 515.765V557.499C224.626 558.453 225.006 559.367 225.68 560.042C226.355 560.716 227.27 561.095 228.224 561.097Z" fill="white"/>
<path d="M174.958 561.097H202.311C203.265 561.095 204.18 560.716 204.854 560.042C205.529 559.367 205.909 558.453 205.91 557.499V515.765C205.909 514.811 205.529 513.896 204.854 513.222C204.18 512.547 203.265 512.168 202.311 512.167H174.958C174.004 512.168 173.089 512.547 172.414 513.222C171.739 513.896 171.36 514.811 171.359 515.765V557.499C171.36 558.453 171.739 559.367 172.414 560.042C173.089 560.716 174.004 561.095 174.958 561.097Z" fill="white"/>
<path d="M228.224 637.369H255.577C256.531 637.368 257.446 636.989 258.121 636.314C258.795 635.64 259.175 634.726 259.176 633.772V592.037C259.175 591.084 258.795 590.169 258.121 589.495C257.446 588.82 256.531 588.441 255.577 588.44H228.224C227.27 588.441 226.355 588.82 225.68 589.495C225.006 590.169 224.626 591.084 224.625 592.037V633.772C224.626 634.726 225.006 635.64 225.68 636.314C226.355 636.989 227.27 637.368 228.224 637.369Z" fill="white"/>
<path d="M174.958 637.369H202.311C203.265 637.368 204.18 636.989 204.854 636.314C205.529 635.64 205.909 634.726 205.91 633.772V592.037C205.909 591.084 205.529 590.169 204.854 589.495C204.18 588.82 203.265 588.441 202.311 588.44H174.958C174.004 588.441 173.089 588.82 172.414 589.495C171.739 590.169 171.36 591.084 171.359 592.037V633.772C171.36 634.726 171.739 635.64 172.414 636.314C173.089 636.989 174.004 637.368 174.958 637.369Z" fill="white"/>
</g>
</g>
<path d="M523.713 36.9033C470.007 36.9033 426.469 85.2205 426.469 144.823V220.548H449.759L463.242 192.491L459.871 220.548H609.568L621.826 195.042L618.761 220.548H635.616V161.09C635.616 92.5037 585.515 36.9033 523.713 36.9033Z" fill="#2F2E41"/>
<path d="M476.774 173.006C476.774 173.006 507.126 243.828 466.656 257.992L507.126 391.541L575.924 387.494L594.135 342.978L590.088 276.203L584.017 231.687C584.017 231.687 541.525 241.804 545.572 166.936L476.774 173.006Z" fill="#FFB8B8"/>
<path d="M460.586 255.969C460.586 255.969 393.811 249.898 399.882 298.462C405.952 347.025 412.022 357.142 412.022 357.142L418.093 429.987L381.67 452.245H347.272C347.272 452.245 242.051 476.527 294.661 502.832C347.271 529.137 365.483 482.597 365.483 482.597C365.483 482.597 462.609 482.597 468.68 466.409C474.75 450.222 460.586 255.969 460.586 255.969Z" fill="#FFB8B8"/>
<path d="M590.087 235.734C590.087 235.734 652.815 213.476 656.862 262.039C660.909 310.602 660.909 314.649 660.909 314.649L673.049 383.447C673.049 383.447 697.331 444.151 697.331 462.362C697.331 480.573 715.542 537.23 715.542 537.23C715.542 537.23 739.824 616.146 713.519 614.122C687.214 612.099 683.167 529.137 683.167 529.137L628.533 419.869L612.345 353.095L590.087 235.734Z" fill="#FFB8B8"/>
<path d="M470.703 247.875H454.516L452.492 332.86C452.492 332.86 426.187 369.283 458.563 401.658L466.656 454.268L614.369 448.198L624.487 393.564C624.487 393.564 644.721 349.048 616.393 308.579L590.088 225.617H575.924C575.924 225.617 608.729 346.576 539.501 349.048C482.844 351.072 470.703 247.875 470.703 247.875Z" fill="#87A644"/>
<path d="M543.06 730.181C543.318 704.447 543.544 688.994 543.544 688.994C543.544 688.994 542.017 704.447 539.425 730.181H380.506C422.499 597.867 461.009 489.125 462.568 484.758C462.577 484.71 462.592 484.664 462.611 484.619L467.515 468.284V468.273L469.59 461.348V461.315L471.784 454.057L474.752 444.152L606.271 440.109L609.949 448.379L622.466 476.521C623.554 476.835 624.585 477.322 625.52 477.962C648.028 492.706 676.127 600.716 701.743 730.181L543.06 730.181Z" fill="#2F2E41"/>
<path d="M620.44 423.916L460.586 429.987C460.586 429.987 453.29 484.62 460.586 484.62C462.609 484.62 628.534 498.784 626.51 474.503C624.487 450.221 620.44 423.916 620.44 423.916Z" fill="#2F2E41"/>
<path d="M508.048 196.182C539.448 196.182 564.902 170.727 564.902 139.327C564.902 107.927 539.448 82.4722 508.048 82.4722C476.647 82.4722 451.193 107.927 451.193 139.327C451.193 170.727 476.647 196.182 508.048 196.182Z" fill="#FFB8B8"/>
<path d="M551.358 66.6319C541.594 54.06 527.193 46.0969 511.118 46.0969H509.208C472.398 46.0969 442.557 79.4062 442.557 120.495L454.891 120.495L456.883 105.333L459.804 120.495H532.958L539.086 107.668L537.554 120.495H551.946C558.661 153.846 549.012 187.197 522.998 220.548H547.514L559.771 194.894L556.707 220.548H603.439L612.632 161.543C612.632 117.353 586.957 79.8806 551.358 66.6319Z" fill="#2F2E41"/>
<path d="M564.794 72.8448C584.91 72.8448 601.217 56.5379 601.217 36.4224C601.217 16.3069 584.91 0 564.794 0C544.679 0 528.372 16.3069 528.372 36.4224C528.372 56.5379 544.679 72.8448 564.794 72.8448Z" fill="#2F2E41"/>
<path d="M246.552 376.586C273.974 376.586 296.203 354.357 296.203 326.935C296.203 299.514 273.974 277.285 246.552 277.285C219.131 277.285 196.902 299.514 196.902 326.935C196.902 354.357 219.131 376.586 246.552 376.586Z" fill="#6C63FF"/>
<path d="M125.535 542.31C140.339 542.627 152.115 553.355 152.115 553.355C152.115 553.355 139.89 563.569 125.086 563.251C110.282 562.933 98.5054 552.205 98.5054 552.205C98.5054 552.205 110.731 541.992 125.535 542.31Z" fill="#6C63FF"/>
<path d="M51.1084 491.776C64.4831 498.13 79.8196 493.822 79.8196 493.822C79.8196 493.822 73.4714 479.211 60.0967 472.857C46.7221 466.503 31.3855 470.811 31.3855 470.811C31.3855 470.811 37.7337 485.422 51.1084 491.776Z" fill="#6C63FF"/>
<path d="M52.468 485.462C67.2139 484.114 80.1209 493.451 80.1209 493.451C80.1209 493.451 69.1202 504.973 54.3743 506.321C39.6285 507.669 26.7214 498.331 26.7214 498.331C26.7214 498.331 37.7222 486.809 52.468 485.462Z" fill="#3F3D56"/>
<path d="M106.522 488.015C105.108 502.755 114.388 515.703 114.388 515.703C114.388 515.703 125.959 504.754 127.372 490.014C128.785 475.275 119.506 462.326 119.506 462.326C119.506 462.326 107.935 473.275 106.522 488.015Z" fill="#3F3D56"/>
<path d="M175.967 578.413C168.233 591.04 170.894 606.747 170.894 606.747C170.894 606.747 186.095 601.981 193.829 589.354C201.563 576.727 198.902 561.021 198.902 561.021C198.902 561.021 183.702 565.786 175.967 578.413Z" fill="#3F3D56"/>
<path d="M153.529 715.699L154.656 714.937C150.684 709.172 148.514 702.356 148.424 695.354C148.456 685.113 153.486 675.64 158.351 666.48C159.254 664.779 160.154 663.084 161.02 661.391C164.654 654.484 167.55 647.213 169.66 639.699C177.206 611.657 169.777 578.572 149.787 551.197C133.929 529.481 110.29 510.491 77.5191 493.143L76.8828 494.345C109.467 511.595 132.955 530.454 148.689 552C168.438 579.045 175.787 611.698 168.347 639.346C166.261 646.768 163.399 653.949 159.809 660.772C158.946 662.459 158.049 664.147 157.15 665.842C152.207 675.149 147.096 684.772 147.064 695.35C147.154 702.624 149.404 709.707 153.529 715.699Z" fill="#3F3D56"/>
<path d="M12.9225 494.931C20.0596 494.931 25.8453 489.145 25.8453 482.008C25.8453 474.871 20.0596 469.085 12.9225 469.085C5.78548 469.085 -0.000228882 474.871 -0.000228882 482.008C-0.000228882 489.145 5.78548 494.931 12.9225 494.931Z" fill="#3F3D56"/>
<path d="M539.114 631.629H70.4941V730.93H539.114V631.629Z" fill="#F2F2F2"/>
<path d="M55.5308 642.511L106.542 535.728H513.949L552.037 642.511H55.5308Z" fill="#3F3D56"/>
<path d="M371.799 542.53H182.718V605.103H371.799V542.53Z" fill="#F2F2F2"/>
<path d="M194.96 491.518L165.034 554.092H389.483L371.798 491.518H194.96Z" fill="#3F3D56"/>
<path d="M348.674 651.353H199.382V730.93H348.674V651.353Z" fill="#CCCCCC"/>
<path d="M168.435 654.073H88.858V730.93H168.435V654.073Z" fill="#CCCCCC"/>
<path d="M415.668 658.834H374.519V730.93H415.668V658.834Z" fill="#3F3D56"/>
<path d="M480.282 662.915H460.217V681.619H480.282V662.915Z" fill="#6C63FF"/>
<path d="M507.147 662.915H487.083V681.619H507.147V662.915Z" fill="#6C63FF"/>
<path d="M480.282 688.421H460.217V707.805H480.282V688.421Z" fill="#6C63FF"/>
<path d="M507.147 688.421H487.083V707.805H507.147V688.421Z" fill="#6C63FF"/>
<path d="M215.764 559.652H200.062V574.29H215.764V559.652Z" fill="#3F3D56"/>
<path d="M236.79 559.652H221.087V574.29H236.79V559.652Z" fill="#3F3D56"/>
<path d="M215.764 579.613H200.062V594.783H215.764V579.613Z" fill="#3F3D56"/>
<path d="M236.79 579.613H221.087V594.783H236.79V579.613Z" fill="#3F3D56"/>
<path d="M333.429 559.652H317.727V574.29H333.429V559.652Z" fill="#3F3D56"/>
<path d="M354.455 559.652H338.752V574.29H354.455V559.652Z" fill="#3F3D56"/>
<path d="M333.429 579.613H317.727V594.783H333.429V579.613Z" fill="#3F3D56"/>
<path d="M354.455 579.613H338.752V594.783H354.455V579.613Z" fill="#3F3D56"/>
<path d="M274.937 559.652H259.235V574.29H274.937V559.652Z" fill="#3F3D56"/>
<path d="M295.962 559.652H280.26V574.29H295.962V559.652Z" fill="#3F3D56"/>
<path d="M274.937 579.613H259.235V594.783H274.937V579.613Z" fill="#3F3D56"/>
<path d="M295.962 579.613H280.26V594.783H295.962V579.613Z" fill="#3F3D56"/>
<path d="M393.588 666.139H383.701V675.355H393.588V666.139Z" fill="#F2F2F2"/>
<path d="M406.826 666.139H396.939V675.355H406.826V666.139Z" fill="#F2F2F2"/>
<path d="M393.588 678.706H383.701V688.258H393.588V678.706Z" fill="#F2F2F2"/>
<path d="M406.826 678.706H396.939V688.258H406.826V678.706Z" fill="#F2F2F2"/>
<path d="M410.227 702.704C411.729 702.704 412.947 701.486 412.947 699.983C412.947 698.481 411.729 697.263 410.227 697.263C408.724 697.263 407.506 698.481 407.506 699.983C407.506 701.486 408.724 702.704 410.227 702.704Z" fill="#F2F2F2"/>
<path d="M246.213 475.206H223.768V480.6H228.257V496.29H241.724V480.6H246.213V475.206Z" fill="#F2F2F2"/>
<path d="M200.241 707.797C196.375 722.091 183.131 730.943 183.131 730.943C183.131 730.943 176.155 716.621 180.022 702.327C183.889 688.034 197.133 679.181 197.133 679.181C197.133 679.181 204.108 693.504 200.241 707.797Z" fill="#6C63FF"/>
<path d="M165.065 707.797C168.932 722.091 182.176 730.943 182.176 730.943C182.176 730.943 189.151 716.621 185.284 702.327C181.418 688.034 168.173 679.181 168.173 679.181C168.173 679.181 161.198 693.504 165.065 707.797Z" fill="#6C63FF"/>
<path d="M170.747 704.725C181.357 715.054 182.653 730.931 182.653 730.931C182.653 730.931 166.746 730.063 156.136 719.734C145.526 709.406 144.23 693.528 144.23 693.528C144.23 693.528 160.137 694.397 170.747 704.725Z" fill="#3F3D56"/>
<path d="M194.559 704.725C183.949 715.054 182.653 730.931 182.653 730.931C182.653 730.931 198.56 730.063 209.17 719.734C219.78 709.406 221.076 693.528 221.076 693.528C221.076 693.528 205.169 694.397 194.559 704.725Z" fill="#3F3D56"/>
<path d="M349.934 343.368C349.918 344.791 349.553 346.188 348.873 347.437C348.192 348.687 347.217 349.751 346.03 350.537L345.704 350.741H198.623L199.214 348.938C199.316 348.619 210.083 317.373 257.748 323.406C262.243 321.869 306.113 307.545 332.373 323.637C344.024 330.779 349.934 337.417 349.934 343.368Z" fill="#F2F2F2"/>
</svg>
