<svg width="25" height="25" viewBox="0 0 25 25" fill="none" xmlns="http://www.w3.org/2000/svg">
<path d="M0.111328 6.39999C0.111328 4.15979 0.111328 3.03969 0.547302 2.18404C0.930796 1.43139 1.54272 0.819467 2.29537 0.435974C3.15101 0 4.27112 0 6.51133 0H18.6002C20.8404 0 21.9605 0 22.8162 0.435974C23.5688 0.819467 24.1807 1.43139 24.5642 2.18404C25.0002 3.03969 25.0002 4.15979 25.0002 6.4V18.4889C25.0002 20.7291 25.0002 21.8492 24.5642 22.7049C24.1807 23.4575 23.5688 24.0694 22.8162 24.4529C21.9605 24.8889 20.8404 24.8889 18.6002 24.8889H6.51132C4.27112 24.8889 3.15101 24.8889 2.29537 24.4529C1.54272 24.0694 0.930796 23.4575 0.547302 22.7049C0.111328 21.8492 0.111328 20.7291 0.111328 18.4889V6.39999Z" fill="#F5F5F5"/>
<path d="M18.7779 6.78788V9.61616C18.7779 9.92727 18.5234 10.1818 18.2123 10.1818C17.9012 10.1818 17.6466 9.92727 17.6466 9.61616V8.1596L14.3658 11.4404C14.2527 11.5535 14.1113 11.6101 13.9699 11.6101C13.8284 11.6101 13.687 11.5535 13.5739 11.4404C13.3476 11.2141 13.3476 10.8606 13.5739 10.6343L16.8406 7.35353H15.384C15.0729 7.35353 14.8183 7.09899 14.8183 6.78788C14.8183 6.47677 15.0729 6.22222 15.384 6.22222H18.2123C18.3678 6.22222 18.5093 6.27879 18.6082 6.39192C18.7214 6.49091 18.7779 6.63232 18.7779 6.78788ZM18.2123 14.7071C17.9012 14.7071 17.6466 14.9616 17.6466 15.2727V16.7293L14.4224 13.5333C14.1961 13.3071 13.8284 13.3071 13.6022 13.5333C13.3759 13.7596 13.3759 14.1131 13.588 14.3394L16.784 17.5354H15.3274C15.0163 17.5354 14.7618 17.7899 14.7618 18.101C14.7618 18.4121 15.0163 18.6667 15.3274 18.6667H18.1557C18.3113 18.6667 18.481 18.6101 18.58 18.497C18.6931 18.3838 18.7779 18.2424 18.7779 18.101V15.2727C18.7779 14.9616 18.5234 14.7071 18.2123 14.7071ZM10.6891 13.5051L7.46481 16.7293V15.2727C7.46481 14.9616 7.21026 14.7071 6.89915 14.7071C6.58804 14.7071 6.3335 14.9616 6.3335 15.2727V18.101C6.3335 18.2566 6.39006 18.398 6.50319 18.497C6.61632 18.6101 6.75774 18.6667 6.91329 18.6667H9.74158C10.0527 18.6667 10.3072 18.4121 10.3072 18.101C10.3072 17.7899 10.0527 17.5354 9.74158 17.5354H8.27087L11.4951 14.3111C11.7214 14.0848 11.7072 13.7313 11.4951 13.5051C11.283 13.2788 10.9153 13.2788 10.6891 13.5051ZM8.27087 7.4101H9.72744C10.0385 7.4101 10.2931 7.15555 10.2931 6.84444C10.2931 6.53333 10.0385 6.27879 9.72744 6.27879H6.89915C6.7436 6.27879 6.60218 6.33535 6.50319 6.44848C6.39006 6.54747 6.3335 6.68889 6.3335 6.84444V9.67273C6.3335 9.98384 6.58804 10.2384 6.89915 10.2384C7.21026 10.2384 7.46481 9.98384 7.46481 9.67273V8.20202L10.7315 11.4687C10.8446 11.5818 10.986 11.6384 11.1274 11.6384C11.2689 11.6384 11.4103 11.5818 11.5234 11.4687C11.7497 11.2424 11.7497 10.8889 11.5234 10.6626L8.27087 7.4101Z" fill="#D9D9D9"/>
</svg>
